<svg height="512pt" viewBox="0 0 512 512" width="512pt" xmlns="http://www.w3.org/2000/svg">
    <path d="m512 256c0 141.386719-114.613281 256-256 256s-256-114.613281-256-256 114.613281-256 256-256 256 114.613281 256 256zm0 0"
          fill="#015081"/>
    <path d="m276 50c0 11.046875-8.953125 20-20 20s-20-8.953125-20-20 8.953125-20 20-20 20 8.953125 20 20zm0 0"
          fill="#0995a3"/>
    <path d="m203.457031 49.285156c5.71875 21.339844-6.945312 43.273438-28.285156 48.988282l-38.636719 10.355468c-21.339844 5.71875-43.273437-6.945312-48.988281-28.285156-4.84375-18.070312 3.5-36.5625 19.125-45.277344-.421875-1.621094-.671875-3.3125-.671875-5.066406 0-11.046875 8.953125-20 20-20 8.789062 0 16.234375 5.675781 18.921875 13.558594l9.542969-2.558594c21.339844-5.71875 43.273437 6.945312 48.992187 28.285156zm201.871094-14.222656c.421875-1.617188.671875-3.308594.671875-5.0625 0-11.046875-8.953125-20-20-20-8.789062 0-16.234375 5.675781-18.921875 13.558594l-9.542969-2.558594c-21.339844-5.71875-43.273437 6.945312-48.992187 28.285156-5.71875 21.335938 6.945312 43.269532 28.285156 48.988282l38.636719 10.355468c21.339844 5.714844 43.273437-6.949218 48.988281-28.285156 4.84375-18.070312-3.5-36.566406-19.125-45.28125zm0 0"
          fill="#02c6dc"/>
    <path d="m203.457031 49.285156c5.71875 21.339844-6.945312 43.273438-28.285156 48.988282l-15.453125 4.140624c-21.339844 5.71875-43.273438-6.945312-48.992188-28.28125-5.71875-21.339843 6.945313-43.273437 28.285157-48.992187l15.453125-4.140625c21.339844-5.71875 43.273437 6.945312 48.992187 28.285156zm192.714844-17.933594-15.457031-4.140624c-21.335938-5.71875-43.269532 6.945312-48.988282 28.285156s6.945313 43.273437 28.285157 48.988281l15.453125 4.144531c21.339844 5.714844 43.273437-6.949218 48.988281-28.285156 5.71875-21.339844-6.941406-43.273438-28.28125-48.992188zm0 0"
          fill="#84deea"/>
    <path d="m399.515625 403.761719c7.25 19.996093 9.011719 40.820312 5.773437 60.226562-7.273437 5.230469-14.8125 10.074219-22.632812 14.535157-17.664062-6.3125-34.214844-17.25-47.765625-32.183594-24.296875 10.082031-50.941406 15.660156-78.890625 15.660156s-54.59375-5.578125-78.890625-15.660156c-13.550781 14.933594-30.101563 25.871094-47.765625 32.183594-7.820312-4.460938-15.363281-9.308594-22.636719-14.539063-3.238281-19.40625-1.472656-40.226563 5.777344-60.222656-38.535156-37.433594-62.484375-89.796875-62.484375-147.761719 0-113.769531 92.230469-206 206-206s206 92.230469 206 206c0 57.964844-23.949219 110.328125-62.484375 147.761719zm0 0"
          fill="#0cabb9"/>
    <path d="m138.886719 425.488281c11.890625 8.230469 24.6875 15.234375 38.214843 20.847657-11.050781 12.179687-24.085937 21.710937-38.105468 28.226562-2.40625 1.121094-5.238282-.273438-5.863282-2.851562l-.011718-.050782c-3.28125-13.648437-4.007813-28.175781-2.003906-42.757812.5-3.667969 4.730468-5.519532 7.769531-3.414063zm323.113281-169.488281c0-105.652344-79.539062-192.710938-182-204.601562-102.460938 11.890624-182 98.949218-182 204.601562s79.539062 192.710938 182 204.601562c26.644531-3.09375 51.734375-11.277343 74.28125-23.542968 2.121094-1.15625 4.730469-.902344 6.605469.621094 12.140625 9.84375 25.804687 17.027343 40.054687 21.242187l.050782.015625c2.542968.75 5.167968-1.003906 5.402343-3.644531 1.492188-16.847657-.71875-34.476563-6.894531-51.515625 38.546875-37.429688 62.5-89.800782 62.5-147.777344zm0 0"
          fill="#2abbc7"/>
    <path d="m422 256c0 91.679688-74.320312 166-166 166s-166-74.320312-166-166 74.320312-166 166-166 166 74.320312 166 166zm0 0"
          fill="#fcf498"/>
    <path d="m422 256c0 84.910156-63.753906 154.917969-146 164.796875-82.246094-9.878906-146-79.886719-146-164.796875s63.753906-154.917969 146-164.796875c82.246094 9.878906 146 79.886719 146 164.796875zm0 0"
          fill="#fdf7bd"/>
    <path d="m266 111v60c0 2.761719-2.238281 5-5 5h-10c-2.761719 0-5-2.238281-5-5v-60c0-2.761719 2.238281-5 5-5h10c2.761719 0 5 2.238281 5 5zm-5 225h-10c-2.761719 0-5 2.238281-5 5v60c0 2.761719 2.238281 5 5 5h10c2.761719 0 5-2.238281 5-5v-60c0-2.761719-2.238281-5-5-5zm-85-75v-10c0-2.761719-2.238281-5-5-5h-60c-2.761719 0-5 2.238281-5 5v10c0 2.761719 2.238281 5 5 5h60c2.761719 0 5-2.238281 5-5zm225-15h-60c-2.761719 0-5 2.238281-5 5v10c0 2.761719 2.238281 5 5 5h60c2.761719 0 5-2.238281 5-5v-10c0-2.761719-2.238281-5-5-5zm-226.605469-57.464844c1.953125 1.953125 5.117188 1.953125 7.070313 0l7.070312-7.070312c1.953125-1.953125 1.953125-5.117188 0-7.070313l-27.996094-27.996093c-1.953124-1.953126-5.117187-1.953126-7.070312 0l-7.070312 7.070312c-1.953126 1.953125-1.953126 5.121094 0 7.070312zm161.210938 132.929688c-1.953125-1.953125-5.117188-1.953125-7.070313 0l-7.070312 7.070312c-1.953125 1.953125-1.953125 5.117188 0 7.070313l29.996094 29.996093c1.949218 1.953126 5.117187 1.953126 7.070312 0l7.070312-7.070312c1.953126-1.953125 1.953126-5.121094 0-7.070312zm-5.070313-132.929688c1.953125 1.953125 5.117188 1.953125 7.070313 0l27.996093-27.996094c1.953126-1.949218 1.953126-5.117187 0-7.070312l-7.070312-7.070312c-1.953125-1.953126-5.117188-1.953126-7.070312 0l-27.996094 27.996093c-1.953125 1.953125-1.953125 5.117188 0 7.070313zm-147.070312 132.929688c-1.953125-1.953125-5.117188-1.953125-7.070313 0l-29.996093 29.996094c-1.953126 1.949218-1.953126 5.117187 0 7.070312l7.070312 7.070312c1.953125 1.953126 5.117188 1.953126 7.070312 0l29.996094-29.996093c1.953125-1.953125 1.953125-5.117188 0-7.070313zm0 0"
          fill="#e8ce00"/>
    <path d="m266 105v170c0 2.761719-2.238281 5-5 5h-10c-2.761719 0-5-2.238281-5-5v-170c0-2.761719 2.238281-5 5-5h10c2.761719 0 5 2.238281 5 5zm0 0"
          fill="#c2186c"/>
    <path d="m325 266h-90c-2.761719 0-5-2.238281-5-5v-10c0-2.761719 2.238281-5 5-5h90c2.761719 0 5 2.238281 5 5v10c0 2.761719-2.238281 5-5 5zm0 0"
          fill="#fd3d96"/>
</svg>
