<svg height="512pt" viewBox="0 0 512 512" width="512pt" xmlns="http://www.w3.org/2000/svg">
    <path d="m512 256c0 141.386719-114.613281 256-256 256s-256-114.613281-256-256 114.613281-256 256-256 256 114.613281 256 256zm0 0"
          fill="#fdbfdc"/>
    <path d="m165.972656 344.71875c-1.875 1.574219-4.160156 2.34375-6.433594 2.34375-2.847656 0-5.675781-1.210938-7.65625-3.5625-1.125-1.339844-2.242187-2.71875-3.3125-4.09375-3.390624-4.359375-2.601562-10.644531 1.757813-14.035156s10.640625-2.601563 14.03125 1.757812c.914063 1.175782 1.867187 2.351563 2.828125 3.496094 3.554688 4.226562 3.011719 10.535156-1.214844 14.09375zm-37.761718-42.082031c1.480468 4.058593 5.3125 6.574219 9.394531 6.574219 1.136719 0 2.296875-.195313 3.425781-.609376 5.1875-1.890624 7.859375-7.632812 5.964844-12.820312-.511719-1.40625-1.003906-2.835938-1.457032-4.253906-1.691406-5.257813-7.324218-8.148438-12.578124-6.460938-5.261719 1.691406-8.152344 7.324219-6.464844 12.582032.535156 1.660156 1.113281 3.339843 1.714844 4.988281zm11.789062-46.507813v-.128906c0-1.460938.027344-2.9375.082031-4.382812.203125-5.519532-4.105469-10.160157-9.621093-10.363282-5.523438-.222656-10.160157 4.101563-10.367188 9.621094-.0625 1.691406-.09375 3.417969-.09375 5.125v.128906c0 5.523438 4.476562 10 10 10s10-4.476562 10-10zm58.066406 100.394532c-1.289062-.746094-2.585937-1.53125-3.855468-2.328126-4.667969-2.945312-10.84375-1.546874-13.789063 3.125-2.945313 4.667969-1.546875 10.84375 3.125 13.789063 1.484375.941406 3.007813 1.859375 4.519531 2.730469 1.574219.910156 3.292969 1.34375 4.992188 1.34375 3.453125 0 6.8125-1.792969 8.667968-5 2.761719-4.78125 1.125-10.898438-3.660156-13.660156zm37.839844 13.746093c-1.464844-.257812-2.949219-.546875-4.410156-.859375-5.402344-1.15625-10.71875 2.273438-11.878906 7.675782-1.160157 5.398437 2.277343 10.714843 7.675781 11.875 1.714843.371093 3.457031.710937 5.179687 1.007812.582032.101562 1.160156.152344 1.726563.152344 4.769531 0 8.992187-3.425782 9.839843-8.285156.949219-5.4375-2.691406-10.617188-8.132812-11.566407zm1.496094-249.007812c-1.726563.238281-3.480469.511719-5.207032.816406-5.4375.960937-9.070312 6.148437-8.109374 11.585937.855468 4.851563 5.074218 8.261719 9.835937 8.261719.578125 0 1.164063-.046875 1.75-.152343 1.472656-.261719 2.96875-.496094 4.445313-.695313 5.472656-.75 9.296874-5.792969 8.550781-11.265625-.75-5.472656-5.789063-9.300781-11.265625-8.550781zm127.558594 94.847656c.511718 1.398437 1.003906 2.828125 1.464843 4.25 1.363281 4.234375 5.289063 6.933594 9.511719 6.933594 1.019531 0 2.054688-.15625 3.074219-.484375 5.253906-1.695313 8.140625-7.332032 6.445312-12.589844-.535156-1.664062-1.113281-3.34375-1.714843-4.988281-1.902344-5.183594-7.644532-7.847657-12.832032-5.949219-5.183594 1.898438-7.847656 7.640625-5.949218 12.828125zm16.566406 54.769531c.128906.003906.257812.003906.386718.003906 5.347657 0 9.78125-4.230468 9.984376-9.621093.066406-1.746094.101562-3.515625.101562-5.320313v-.203125c0-5.519531-4.476562-10-10-10s-10 4.480469-10 10v.261719c0 1.492188-.027344 3.007812-.085938 4.503906-.210937 5.519532 4.09375 10.164063 9.613282 10.375zm-105.320313 99.367188c-1.460937.257812-2.957031.492187-4.445312.695312-5.472657.742188-9.304688 5.78125-8.558594 11.253906.679687 5.015626 4.972656 8.652344 9.894531 8.652344.449219 0 .902344-.027344 1.359375-.089844 1.742188-.238281 3.492188-.511718 5.210938-.8125 5.4375-.953124 9.074219-6.136718 8.117187-11.578124-.953125-5.441407-6.132812-9.074219-11.578125-8.121094zm83.820313-201.855469c-3.5625-4.222656-9.871094-4.757813-14.09375-1.199219-4.222656 3.5625-4.757813 9.867188-1.199219 14.089844.957031 1.140625 1.914063 2.316406 2.832031 3.496094 1.972656 2.53125 4.917969 3.855468 7.894532 3.855468 2.148437 0 4.316406-.691406 6.140624-2.113281 4.355469-3.398437 5.136719-9.679687 1.742188-14.035156-1.078125-1.382813-2.195312-2.761719-3.316406-4.09375zm-207.066406 14.390625c1.871093 1.570312 4.148437 2.335938 6.417968 2.335938 2.855469 0 5.6875-1.214844 7.667969-3.574219.960937-1.148438 1.957031-2.292969 2.957031-3.394531 3.707032-4.09375 3.394532-10.417969-.695312-14.125-4.09375-3.707032-10.417969-3.398438-14.125.695312-1.171875 1.292969-2.335938 2.628906-3.464844 3.976562-3.546875 4.230469-2.992188 10.539063 1.242188 14.085938zm-18.851563 39.648438c1.125.410156 2.277344.601562 3.40625.601562 4.089844 0 7.929687-2.523438 9.402344-6.59375.511719-1.40625 1.054687-2.820312 1.617187-4.203125 2.085938-5.113281-.367187-10.949219-5.480468-13.035156-5.113282-2.085938-10.949219.367187-13.035157 5.480469-.664062 1.625-1.304687 3.289062-1.902343 4.941406-1.882813 5.191406.796874 10.925781 5.992187 12.808594zm215.207031 128.234374c2.71875 0 5.429688-1.105468 7.40625-3.277343 1.171875-1.292969 2.339844-2.628907 3.46875-3.976563 3.550782-4.226562 3.003906-10.535156-1.226562-14.085937-4.230469-3.550781-10.539063-3-14.089844 1.226562-.964844 1.148438-1.957031 2.289063-2.957031 3.386719-3.714844 4.089844-3.410157 10.414062.675781 14.128906 1.917969 1.738282 4.324219 2.597656 6.722656 2.597656zm-156.878906-214.925781c-1.546875.820313-3.09375 1.679688-4.601562 2.550781-4.777344 2.773438-6.402344 8.894532-3.632813 13.671876 1.855469 3.195312 5.210937 4.980468 8.660156 4.980468 1.703125 0 3.429688-.433594 5.007813-1.351562 1.285156-.746094 2.609375-1.480469 3.929687-2.179688 4.878907-2.585937 6.738281-8.636718 4.152344-13.519531-2.582031-4.875-8.636719-6.738281-13.515625-4.152344zm121.585938 220.730469c-1.285157.746094-2.605469 1.476562-3.929688 2.175781-4.882812 2.582031-6.75 8.628907-4.167969 13.511719 1.792969 3.394531 5.261719 5.332031 8.847657 5.332031 1.578124 0 3.175781-.375 4.664062-1.160156 1.550781-.820313 3.101562-1.675781 4.605469-2.550781 4.78125-2.765625 6.414062-8.882813 3.644531-13.664063-2.765625-4.777343-8.882812-6.410156-13.664062-3.644531zm14.316406-215.65625c-1.488282-.933594-3.011719-1.851562-4.527344-2.726562-4.785156-2.753907-10.898438-1.109376-13.65625 3.675781-2.757812 4.785156-1.113281 10.898437 3.671875 13.65625 1.292969.742187 2.589844 1.523437 3.855469 2.320312 1.65625 1.042969 3.5 1.539063 5.320312 1.539063 3.320313 0 6.570313-1.65625 8.472656-4.675782 2.941407-4.671874 1.535157-10.84375-3.136718-13.789062zm53.589844 166.632812c.664062-1.617187 1.304687-3.277343 1.90625-4.933593 1.890624-5.191407-.785157-10.925781-5.976563-12.816407-5.191406-1.886718-10.925781.785157-12.816406 5.976563-.515625 1.410156-1.058594 2.824219-1.625 4.203125-2.089844 5.113281.359375 10.949219 5.46875 13.042969 1.242187.507812 2.523437.746093 3.785156.746093 3.9375 0 7.671875-2.34375 9.257813-6.21875zm-97.355469-184.4375c-1.707031-.363281-3.449219-.703124-5.179688-1-5.441406-.949218-10.621093 2.703126-11.5625 8.140626-.945312 5.441406 2.699219 10.621093 8.140625 11.566406 1.476563.253906 2.960938.542968 4.417969.851562.703125.152344 1.40625.222656 2.101563.222656 4.613281 0 8.761718-3.210937 9.769531-7.90625 1.152343-5.402343-2.289063-10.71875-7.6875-11.875zm-18.257813-62.742187c1.574219.082031 3.144532.183594 4.710938.300781.253906.019532.511718.03125.765625.03125 5.179687 0 9.5625-3.996094 9.960937-9.246094.414063-5.507812-3.710937-10.3125-9.21875-10.726562-1.722656-.132812-3.449218-.242188-5.183594-.332031-5.519531-.292969-10.21875 3.953125-10.503906 9.46875s3.953125 10.21875 9.46875 10.503906zm-43.960937 2.46875c.539062 0 1.082031-.042969 1.632812-.132813 1.546875-.253906 3.105469-.492187 4.667969-.710937 5.46875-.761719 9.28125-5.816406 8.515625-11.289063-.765625-5.46875-5.816406-9.28125-11.289063-8.515624-1.71875.238281-3.429687.5-5.136718.777343-5.449219.898438-9.140625 6.039063-8.246094 11.488281.804688 4.902344 5.046875 8.382813 9.855469 8.382813zm208.476562 66.398437c-1.015625-1.402343-2.050781-2.789062-3.101562-4.164062-3.351563-4.390625-9.628907-5.230469-14.015625-1.875-4.390625 3.351562-5.230469 9.628906-1.875 14.015625.949218 1.25 1.890625 2.507813 2.8125 3.777344 1.957031 2.695312 5.007812 4.125 8.101562 4.125 2.035156 0 4.09375-.621094 5.867188-1.910157 4.46875-3.246093 5.457031-9.5 2.210937-13.96875zm-122.691406-62.125c1.519531.417969 3.03125.855469 4.535156 1.308594.960938.289063 1.933594.425782 2.890625.425782 4.292969 0 8.265625-2.789063 9.570313-7.113282 1.59375-5.289062-1.402344-10.867187-6.691407-12.460937-1.65625-.5-3.320312-.980469-4.992187-1.441407-5.324219-1.464843-10.832031 1.660157-12.296875 6.988282-1.464844 5.320312 1.660156 10.828125 6.984375 12.292968zm91.339844 27.53125c-1.292969-1.152343-2.601563-2.289062-3.925781-3.410156-4.214844-3.566406-10.523438-3.046875-14.09375 1.167969-3.570313 4.214844-3.046876 10.523437 1.167968 14.09375 1.199219 1.015625 2.386719 2.046875 3.5625 3.09375 1.90625 1.695313 4.277344 2.527344 6.644532 2.527344 2.753906 0 5.5-1.132813 7.472656-3.355469 3.671875-4.125 3.300781-10.445312-.828125-14.117188zm-220.007813-19.851562c1.238282 0 2.496094-.230469 3.714844-.71875 1.457031-.582031 2.921875-1.148438 4.394531-1.699219 5.175781-1.925781 7.8125-7.683593 5.882813-12.859375-1.925782-5.175781-7.683594-7.808594-12.859375-5.882812-1.625.605468-3.246094 1.230468-4.851563 1.875-5.128906 2.050781-7.621094 7.875-5.566406 13 1.5625 3.90625 5.316406 6.285156 9.285156 6.285156zm246.613282 297.996094c-4.398438-3.34375-10.671876-2.492188-14.015626 1.902344-.953124 1.253906-1.921874 2.496093-2.90625 3.726562-3.449218 4.3125-2.746093 10.605469 1.566407 14.054688 1.84375 1.472656 4.046875 2.1875 6.238281 2.1875 2.933594 0 5.84375-1.285157 7.816406-3.757813 1.082032-1.351563 2.148438-2.71875 3.199219-4.097656 3.34375-4.394531 2.496094-10.671875-1.898437-14.015625zm-285.90625-277.058594c1.9375 0 3.898437-.5625 5.621093-1.734375 1.296875-.886719 2.605469-1.753906 3.925781-2.605469 4.636719-3 5.964844-9.1875 2.96875-13.828125-3-4.636719-9.191406-5.964843-13.828124-2.96875-1.453126.941407-2.894532 1.898438-4.324219 2.871094-4.5625 3.109375-5.742188 9.332031-2.636719 13.894531 1.9375 2.839844 5.078125 4.371094 8.273438 4.371094zm321.820312 149.9375c-.011719 0-.023438 0-.035156 0-5.519532.019531-9.984375 4.511719-9.964844 10.035156v.402344c0 1.578125-.019531 3.152344-.054688 4.722656-.132812 5.519532 4.238282 10.101563 9.757813 10.230469.082031.003906.160156.003906.242187.003906 5.414063 0 9.863282-4.320312 9.992188-9.761719.042969-1.726562.0625-3.457031.0625-5.160156v-.507812c-.019531-5.511719-4.492188-9.964844-10-9.964844zm-26.289062-67.921875c1.640624 3.757813 5.3125 6.003906 9.171874 6.003906 1.332032 0 2.691407-.269531 3.992188-.839843 5.0625-2.207032 7.375-8.101563 5.167969-13.164063-.691407-1.585937-1.402344-3.160156-2.132813-4.726563-2.332031-5.007812-8.28125-7.175781-13.289062-4.84375-5.003906 2.332032-7.171875 8.28125-4.84375 13.285157.660156 1.417969 1.308594 2.847656 1.933594 4.285156zm11.660156 35.816406c.339844 1.535157.660156 3.074219.964844 4.621094.9375 4.769531 5.117187 8.074219 9.800781 8.074219.640625 0 1.289062-.058594 1.9375-.1875 5.417969-1.0625 8.949219-6.320313 7.886719-11.738282-.332032-1.703124-.6875-3.398437-1.0625-5.089843-1.191407-5.390625-6.527344-8.796875-11.921876-7.601563-5.394531 1.191406-8.796874 6.53125-7.605468 11.921875zm11.996094 77.050781c-5.386719-1.179687-10.722657 2.234376-11.90625 7.628907-.335938 1.535156-.691407 3.066406-1.0625 4.589843-1.3125 5.367188 1.972656 10.777344 7.335937 12.089844.796875.195313 1.597656.289063 2.382813.289063 4.5 0 8.589843-3.058594 9.707031-7.625.414062-1.679688.804687-3.371094 1.175781-5.066407 1.179688-5.394531-2.234375-10.726562-7.632812-11.90625zm-111.847657-207.875c1.394531.738282 2.777344 1.488282 4.152344 2.261719 1.546875.863281 3.222656 1.277344 4.878906 1.277344 3.5 0 6.898438-1.84375 8.730469-5.117187 2.699219-4.820313.980469-10.914063-3.835938-13.613282-1.515624-.84375-3.039062-1.675781-4.574218-2.488281-4.882813-2.582031-10.933594-.71875-13.515625 4.164063-2.582031 4.878906-.71875 10.933593 4.164062 13.515624zm99.703125 250.777344c-5.011718-2.324218-10.953125-.140625-13.273437 4.871094-.664063 1.429688-1.34375 2.851562-2.039063 4.265625-2.441406 4.953125-.40625 10.949219 4.546875 13.390625 1.421875.699219 2.929688 1.03125 4.414063 1.03125 3.6875 0 7.234375-2.046875 8.976562-5.578125.769532-1.558594 1.515625-3.125 2.25-4.703125 2.320313-5.011719.136719-10.957031-4.875-13.277344zm-359.921875-196.082031c-4.664062-2.960937-10.839843-1.582031-13.800781 3.082031-.929688 1.464844-1.84375 2.941406-2.738281 4.429688-2.84375 4.734375-1.316407 10.878906 3.417969 13.722656 1.613281.972656 3.390624 1.433594 5.144531 1.433594 3.394531 0 6.703125-1.726563 8.578125-4.847656.8125-1.351563 1.640625-2.691407 2.484375-4.019532 2.957031-4.664062 1.578125-10.84375-3.085938-13.800781zm58.820313 281c-1.304688-.882813-2.597656-1.78125-3.878906-2.699219-4.496094-3.207031-10.738282-2.164062-13.949219 2.332032-3.207031 4.492187-2.164063 10.738281 2.328125 13.945312 1.414062 1.007812 2.835937 2 4.273437 2.972656 1.71875 1.167969 3.671875 1.726563 5.601563 1.726563 3.207031 0 6.351562-1.535157 8.285156-4.386719 3.101562-4.570312 1.910156-10.789062-2.660156-13.890625zm201.742187 10.855469c-1.382812.738281-2.773437 1.457031-4.175781 2.15625-4.9375 2.476562-6.9375 8.484375-4.460938 13.421875 1.753907 3.5 5.28125 5.523437 8.949219 5.523437 1.503907 0 3.03125-.34375 4.46875-1.0625 1.546875-.773437 3.085938-1.570312 4.609375-2.378906 4.878906-2.59375 6.730469-8.648438 4.136719-13.523438-2.59375-4.878906-8.648437-6.726562-13.527344-4.136718zm35.054688-23.820313c-1.199219 1.019531-2.40625 2.023438-3.628907 3.015625-4.292968 3.476563-4.953124 9.769532-1.476562 14.0625 1.976562 2.441406 4.863281 3.707032 7.777344 3.707032 2.210937 0 4.4375-.730469 6.289062-2.230469 1.34375-1.089844 2.675782-2.195313 3.996094-3.316407 4.207031-3.578124 4.714844-9.890624 1.136719-14.097656-3.578125-4.207031-9.890625-4.71875-14.09375-1.140625zm-325.449219-205.441406c1.054688.355469 2.128906.523437 3.183594.523437 4.179687 0 8.074218-2.640624 9.480468-6.820312.5-1.5 1.019532-2.988281 1.558594-4.472656 1.882813-5.191406-.800781-10.925782-5.992187-12.808594-5.191407-1.878906-10.929688.800781-12.808594 5.992188-.59375 1.632812-1.167969 3.273437-1.71875 4.925781-1.757813 5.234375 1.0625 10.902343 6.296875 12.660156zm45.152344-96.011719c-1.21875 1.230469-2.425782 2.476563-3.617188 3.738282-3.792968 4.011718-3.613281 10.339843.398438 14.132812 1.933594 1.828125 4.402344 2.734375 6.867187 2.734375 2.65625 0 5.304688-1.050781 7.269531-3.132813 1.082032-1.140624 2.175782-2.269531 3.285157-3.386718 3.886719-3.921875 3.859375-10.253906-.058594-14.144532-3.921875-3.886718-10.253906-3.863281-14.144531.058594zm205.914062 340.972656c-1.511718.417969-3.027344.820313-4.554687 1.203126-5.355469 1.347656-8.609375 6.78125-7.261719 12.136718 1.140625 4.539063 5.214844 7.566406 9.691406 7.566406.804688 0 1.625-.101562 2.445313-.304687 1.683593-.421875 3.359375-.867187 5.03125-1.332031 5.320312-1.476563 8.4375-6.988282 6.960937-12.308594-1.480468-5.324219-6.992187-8.441406-12.3125-6.960938zm-84.140625 4.582032c-1.558593-.25-3.105469-.519532-4.648437-.808594-5.425782-1.015625-10.652344 2.5625-11.667969 7.992188-1.015625 5.425781 2.5625 10.652343 7.992187 11.664062 1.699219.320312 3.40625.617188 5.121094.894531.542969.089844 1.082032.132813 1.613282.132813 4.816406 0 9.0625-3.492188 9.859374-8.402344.882813-5.449219-2.820312-10.585938-8.269531-11.472656zm-40.828125-11.28125c-1.464844-.582032-2.925781-1.1875-4.375-1.804688-5.078125-2.164062-10.953125.199219-13.121094 5.28125-2.164062 5.082032.199219 10.953125 5.28125 13.121094 1.59375.679688 3.203126 1.339844 4.816407 1.984375 1.214843.480469 2.464843.710937 3.695312.710937 3.976563 0 7.734375-2.386718 9.292969-6.300781 2.042969-5.132812-.457031-10.949219-5.589844-12.992187zm-131.277344-149.757813c5.492188-.59375 9.460938-5.527343 8.867188-11.019531-.171875-1.558594-.320312-3.125-.457031-4.699219-.464844-5.503906-5.308594-9.59375-10.804688-9.121093-5.503906.464843-9.585937 5.304687-9.121093 10.804687.144531 1.730469.3125 3.453125.496093 5.171875.558594 5.125 4.890625 8.921875 9.929688 8.921875.363281 0 .726562-.015625 1.089843-.058594zm17.976563 30.347657c-.503906-1.488282-.988281-2.980469-1.457031-4.484376-1.636719-5.273437-7.242188-8.222656-12.515625-6.582031-5.273438 1.640625-8.222657 7.246094-6.582031 12.519531.515624 1.65625 1.050781 3.304688 1.605468 4.949219 1.410156 4.171875 5.300782 6.800781 9.472656 6.800781 1.0625 0 2.140626-.167968 3.199219-.527343 5.234375-1.769531 8.042969-7.441407 6.277344-12.675781zm-20.160156-74.878907c.363281.039063.71875.058594 1.074219.058594 5.046874 0 9.382812-3.8125 9.929687-8.941406.167969-1.566407.351563-3.128907.554687-4.6875.71875-5.476563-3.140624-10.496094-8.617187-11.210938-5.46875-.714843-10.496094 3.140625-11.210937 8.617188-.226563 1.714843-.429688 3.4375-.613282 5.164062-.585937 5.492188 3.394532 10.417969 8.882813 11zm35.613281 109.234375c-2.738281-4.792968-8.847656-6.460937-13.644531-3.71875-4.796875 2.738282-6.460938 8.847656-3.71875 13.644532.859375 1.5 1.734375 2.992187 2.625 4.46875 1.878906 3.113281 5.183593 4.835937 8.570312 4.835937 1.761719 0 3.542969-.464844 5.160157-1.441406 4.730468-2.855469 6.246093-9.003907 3.394531-13.730469-.8125-1.34375-1.609375-2.695312-2.386719-4.058594zm24.878906 34.304688c-3.703125-4.097656-10.027344-4.417969-14.125-.710938-4.097656 3.703125-4.414062 10.023438-.710937 14.121094 1.160156 1.289062 2.339843 2.558594 3.53125 3.8125 1.96875 2.074219 4.609375 3.117188 7.257812 3.117188 2.46875 0 4.945313-.910157 6.878907-2.746094 4.007812-3.800782 4.171874-10.132813.371093-14.136719-1.082031-1.140625-2.148437-2.292969-3.203125-3.457031zm156.125 64.277344c-1.566406.085937-3.136718.152343-4.714844.199218-5.519531.164063-9.859374 4.777344-9.695312 10.296875.164062 5.417969 4.605469 9.699219 9.992188 9.699219.097656 0 .203124 0 .304687-.003906 1.738281-.050782 3.464844-.125 5.191406-.21875 5.515625-.296875 9.746094-5.007813 9.445313-10.523438-.296875-5.515625-5.003906-9.753906-10.523438-9.449218zm0 0"
          fill="#fd5ca6"/>
    <path d="m321 256c0 35.898438-29.101562 65-65 65s-65-29.101562-65-65 29.101562-65 65-65 65 29.101562 65 65zm0 0"
          fill="#fd3d96"/>
    <path d="m275.5 318.019531c-6.15625 1.933594-12.703125 2.980469-19.5 2.980469-35.898438 0-65-29.101562-65-65s29.101562-65 65-65c6.796875 0 13.34375 1.046875 19.5 2.980469-26.371094 8.28125-45.5 32.914062-45.5 62.019531s19.128906 53.738281 45.5 62.019531zm0 0"
          fill="#e31e7f"/>
    <path d="m281 253.5v5c0 2.761719-2.238281 5-5 5h-12.5v12.5c0 2.761719-2.238281 5-5 5h-5c-2.761719 0-5-2.238281-5-5v-12.5h-12.5c-2.761719 0-5-2.238281-5-5v-5c0-2.761719 2.238281-5 5-5h12.5v-12.5c0-2.761719 2.238281-5 5-5h5c2.761719 0 5 2.238281 5 5v12.5h12.5c2.761719 0 5 2.238281 5 5zm0 0"
          fill="#fff5f5"/>
    <path d="m90 205c0 24.851562-20.148438 45-45 45s-45-20.148438-45-45 20.148438-45 45-45 45 20.148438 45 45zm175 205c-24.851562 0-45 20.148438-45 45s20.148438 45 45 45 45-20.148438 45-45-20.148438-45-45-45zm90-280c-24.851562 0-45 20.148438-45 45s20.148438 45 45 45 45-20.148438 45-45-20.148438-45-45-45zm0 0"
          fill="#056099"/>
    <path d="m368.5 217.9375c-4.261719 1.339844-8.796875 2.0625-13.5 2.0625-24.851562 0-45-20.148438-45-45s20.148438-45 45-45c4.703125 0 9.238281.722656 13.5 2.0625-18.257812 5.734375-31.5 22.789062-31.5 42.9375s13.242188 37.203125 31.5 42.9375zm-90 194.125c-4.261719-1.339844-8.796875-2.0625-13.5-2.0625-24.851562 0-45 20.148438-45 45s20.148438 45 45 45c4.703125 0 9.238281-.722656 13.5-2.0625-18.257812-5.734375-31.5-22.789062-31.5-42.9375s13.242188-37.203125 31.5-42.9375zm-220-250c-4.261719-1.339844-8.796875-2.0625-13.5-2.0625-24.851562 0-45 20.148438-45 45s20.148438 45 45 45c4.703125 0 9.238281-.722656 13.5-2.0625-18.257812-5.734375-31.5-22.789062-31.5-42.9375s13.242188-37.203125 31.5-42.9375zm0 0"
          fill="#015081"/>
    <path d="m70 202.5v5c0 2.761719-2.238281 5-5 5h-40c-2.761719 0-5-2.238281-5-5v-5c0-2.761719 2.238281-5 5-5h40c2.761719 0 5 2.238281 5 5zm305-35h-40c-2.761719 0-5 2.238281-5 5v5c0 2.761719 2.238281 5 5 5h40c2.761719 0 5-2.238281 5-5v-5c0-2.761719-2.238281-5-5-5zm-90 280h-40c-2.761719 0-5 2.238281-5 5v5c0 2.761719 2.238281 5 5 5h40c2.761719 0 5-2.238281 5-5v-5c0-2.761719-2.238281-5-5-5zm0 0"
          fill="#d3f1f5"/>
</svg>
