<svg height="512pt" viewBox="0 0 512 512" width="512pt" xmlns="http://www.w3.org/2000/svg">
    <path d="m0 256c0-141.386719 114.613281-256 256-256s256 114.613281 256 256c0 134.765625-104.136719 245.210938-236.328125 255.253906-6.492187-.492187-13.054687-.742187-19.671875-.742187s-13.179688.25-19.671875.742187c-132.191406-10.042968-236.328125-120.488281-236.328125-255.253906zm0 0"
          fill="#7ecd00"/>
    <path d="m147.5 440h-15v-168h15zm0 0" fill="#015081"/>
    <path d="m140 430c-16.570312 0-30 13.429688-30 30s13.429688 30 30 30 30-13.429688 30-30-13.429688-30-30-30zm0 45c-8.285156 0-15-6.714844-15-15s6.714844-15 15-15 15 6.714844 15 15-6.714844 15-15 15zm0 0"
          fill="#013f69"/>
    <path d="m236 250h40v261.226562c-6.601562.511719-13.269531.773438-20 .773438s-13.398438-.261719-20-.773438zm0 0"
          fill="#015081"/>
    <path d="m276 400v111.226562c-6.601562.511719-13.269531.773438-20 .773438v-112c0-5.523438 4.476562-10 10-10s10 4.476562 10 10zm0 0"
          fill="#0571b3"/>
    <path d="m451 372h-390c-5.523438 0-10-4.476562-10-10v-19.949219c0-5.523437 4.476562-10 10-10h390c5.523438 0 10 4.476563 10 10v19.949219c0 5.523438-4.476562 10-10 10zm0-266.714844h-390c-5.523438 0-10-4.476562-10-10v-23.285156c0-5.523438 4.476562-10 10-10h390c5.523438 0 10 4.476562 10 10v23.285156c0 5.523438-4.476562 10-10 10zm0 0"
          fill="#015081"/>
    <path d="m451 372h-361c-5.523438 0-10-4.476562-10-10v-19.949219c0-5.523437 4.476562-10 10-10h361c5.523438 0 10 4.476563 10 10v19.949219c0 5.523438-4.476562 10-10 10zm0-266.714844h-361c-5.523438 0-10-4.476562-10-10v-23.285156c0-5.523438 4.476562-10 10-10h361c5.523438 0 10 4.476562 10 10v23.285156c0 5.523438-4.476562 10-10 10zm0 0"
          fill="#0571b3"/>
    <path d="m461 342h-410v-250h410zm0 0" fill="#ade8f0"/>
    <path d="m461 342h-381v-250h381zm0 0" fill="#d3f1f5"/>
    <path d="m160 115v5c0 2.761719-2.238281 5-5 5h-60c-2.761719 0-5-2.238281-5-5v-5c0-2.761719 2.238281-5 5-5h60c2.761719 0 5 2.238281 5 5zm96 127c-13.808594 0-25 11.191406-25 25s11.191406 25 25 25 25-11.191406 25-25-11.191406-25-25-25zm20-32.5h-40c-2.761719 0-5 2.238281-5 5v5c0 2.761719 2.238281 5 5 5h40c2.761719 0 5-2.238281 5-5v-5c0-2.761719-2.238281-5-5-5zm-70 0h-12.5v-12.5c0-2.761719-2.238281-5-5-5h-5c-2.761719 0-5 2.238281-5 5v12.5h-12.5c-2.761719 0-5 2.238281-5 5v5c0 2.761719 2.238281 5 5 5h12.5v12.5c0 2.761719 2.238281 5 5 5h5c2.761719 0 5-2.238281 5-5v-12.5h12.5c2.761719 0 5-2.238281 5-5v-5c0-2.761719-2.238281-5-5-5zm190-17.5c13.808594 0 25-11.191406 25-25s-11.191406-25-25-25-25 11.191406-25 25 11.191406 25 25 25zm-280 50c-13.808594 0-25 11.191406-25 25s11.191406 25 25 25 25-11.191406 25-25-11.191406-25-25-25zm20-32.5h-40c-2.761719 0-5 2.238281-5 5v5c0 2.761719 2.238281 5 5 5h40c2.761719 0 5-2.238281 5-5v-5c0-2.761719-2.238281-5-5-5zm-20-67.5c-13.808594 0-25 11.191406-25 25s11.191406 25 25 25 25-11.191406 25-25-11.191406-25-25-25zm140 0c-13.808594 0-25 11.191406-25 25s11.191406 25 25 25 25-11.191406 25-25-11.191406-25-25-25zm134 163c-4.140625 0-7.5 3.359375-7.5 7.5s3.359375 7.5 7.5 7.5 7.5-3.359375 7.5-7.5-3.359375-7.5-7.5-7.5zm6-63c-13.808594 0-25 11.191406-25 25s11.191406 25 25 25 25-11.191406 25-25-11.191406-25-25-25zm20-32.5h-40c-2.761719 0-5 2.238281-5 5v5c0 2.761719 2.238281 5 5 5h40c2.761719 0 5-2.238281 5-5v-5c0-2.761719-2.238281-5-5-5zm-3.5 95.5c-4.140625 0-7.5 3.359375-7.5 7.5s3.359375 7.5 7.5 7.5 7.5-3.359375 7.5-7.5-3.359375-7.5-7.5-7.5zm-66.5-81.75h-40c-2.761719 0-5 2.238281-5 5v5c0 2.761719 2.238281 5 5 5h40c2.761719 0 5-2.238281 5-5v-5c0-2.761719-2.238281-5-5-5zm21.5 81.75c-4.140625 0-7.5 3.359375-7.5 7.5s3.359375 7.5 7.5 7.5 7.5-3.359375 7.5-7.5-3.359375-7.5-7.5-7.5zm-21.5-109.25h-40c-2.761719 0-5 2.238281-5 5v5c0 2.761719 2.238281 5 5 5h40c2.761719 0 5-2.238281 5-5v-5c0-2.761719-2.238281-5-5-5zm0 0"
          fill="#75ccd4"/>
</svg>
