<svg height="512pt" viewBox="0 0 512 512" width="512pt" xmlns="http://www.w3.org/2000/svg">
    <path d="m512 256c0 51.28125-15.089844 99.035156-41.058594 139.078125-5.601562 8.640625-19.003906 4.707031-19.003906-5.589844v-298.222656c37.472656 44.523437 60.0625 101.988281 60.0625 164.734375zm-395.578125-214.617188c-8.480469 5.527344-4.625 18.679688 5.492187 18.679688h298.820313c-44.523437-37.472656-101.988281-60.0625-164.734375-60.0625-51.496094 0-99.433594 15.214844-139.578125 41.382812zm0 0"
          fill="#013f69"/>
    <path d="m471 51v344c-6.359375 9.820312-13.390625 19.199219-21 28.027344-46.945312 54.492187-116.433594 88.972656-194 88.972656-141.386719 0-256-114.613281-256-256 0-90.140625 46.59375-169.386719 117.003906-215h343.996094c5.523438 0 10 4.476562 10 10zm0 0"
          fill="#fdf061"/>
    <path d="m431.105469 442.726562c-6.519531 6.113282-13.34375 11.886719-20.472657 17.300782-9.769531 7.421875-20.101562 14.15625-30.898437 20.128906-2.429687-22.539062-21.5625-40.15625-44.734375-40.15625h-170c-57.898438 0-105-47.101562-105-105s47.101562-105 105-105h170c24.8125 0 45-20.1875 45-45s-20.1875-45-45-45h-307.265625c11.21875-22.03125 25.535156-42.222656 42.375-60h264.890625c57.898438 0 105 47.101562 105 105s-47.101562 105-105 105h-170c-24.8125 0-45 20.1875-45 45s20.1875 45 45 45h170c42.867188 0 79.808594 25.824219 96.105469 62.726562zm0 0"
          fill="#e8ce00"/>
    <path d="m335 230c1.691406 0 3.355469-.101562 5-.285156v60.164062c-1.65625.078125-3.324219.121094-5 .121094h-15v-60zm89.304688-100.160156c-3.5625-5.746094-7.660157-11.121094-12.226563-16.0625l-42.480469 42.484375c4.496094 5.398437 7.742188 11.871093 9.320313 18.960937zm-264.304688 100.28125v60.164062c1.644531-.183594 3.308594-.285156 5-.285156h15v-60h-15c-1.675781 0-3.34375.042969-5 .121094zm80 59.878906h20v-60h-20zm-164.03125-10.601562 45.246094 45.25c1.664062-7.035157 4.980468-13.433594 9.519531-18.769532l-42.46875-42.46875c-4.589844 4.914063-8.710937 10.269532-12.296875 15.988282zm0 111.203124c3.585938 5.71875 7.707031 11.074219 12.296875 15.988282l42.464844-42.46875c-4.539063-5.335938-7.851563-11.734375-9.515625-18.769532zm84.03125-10.886718v60.164062c1.65625.078125 3.324219.121094 5 .121094h15v-60h-15c-1.691406 0-3.355469-.101562-5-.285156zm80 60.285156h20v-60h-20zm0-300h20v-60h-20zm-80 0h20v-60h-20zm-60-60h-20v60h20zm307.101562 328.757812-42.445312 42.441407c5.101562 4.480469 9.179688 10.089843 11.847656 16.441406l43.785156-43.789063c-3.910156-5.445312-8.328124-10.496093-13.1875-15.09375zm-37.835937-194.636718 42.46875 42.46875c4.589844-4.914063 8.710937-10.269532 12.296875-15.988282l-45.25-45.25c-1.660156 7.035157-4.976562 13.433594-9.515625 18.769532zm-49.265625 165.878906v60h15c1.691406 0 3.355469.105469 5 .285156v-60.152344c-1.65625-.078124-3.324219-.132812-5-.132812zm0-300v60h15c1.691406 0 3.355469.101562 5 .285156v-60.164062c-1.65625-.078125-3.324219-.121094-5-.121094zm0 0"
          fill="#d6bf01"/>
    <path d="m247.109375 262.15625c.40625 4.257812-2.933594 7.84375-7.109375 7.84375h-42.855469c-4.179687 0-7.515625-3.585938-7.109375-7.84375.351563-3.714844 3.683594-6.441406 7.414063-6.441406 3.777343 0 6.835937-3.0625 6.835937-6.835938v-25.589844c-8.53125-4.941406-14.285156-14.148437-14.285156-24.71875 0-16.292968 13.636719-29.398437 30.117188-28.53125 14.761718.777344 26.703124 13.125 27.019531 27.90625.230469 10.832032-5.578125 20.304688-14.277344 25.34375v25.589844c0 3.773438 3.058594 6.835938 6.835937 6.835938 3.726563 0 7.058594 2.726562 7.414063 6.441406zm0 0"
          fill="#fd3d96"/>
    <path d="m217.144531 270h-20c-4.457031 0-7.960937-4.082031-6.976562-8.710938.71875-3.378906 3.878906-5.550781 7.332031-5.574218 3.753906-.027344 6.785156-3.078125 6.785156-6.835938v-25.589844c-8.53125-4.941406-14.285156-14.148437-14.285156-24.71875 0-16.292968 13.636719-29.398437 30.117188-28.53125 2.941406.15625 5.765624.777344 8.410156 1.777344-10.824219 4.066406-18.527344 14.507813-18.527344 26.753906 0 7.925782 3.238281 15.085938 8.453125 20.257813 3.824219 3.785156 5.832031 9.035156 5.832031 14.417969v15.632812c0 3.773438-3.0625 6.835938-6.835937 6.835938h-.007813c-3.667968 0-6.960937 2.632812-7.390625 6.273437-.511719 4.332031 2.859375 8.011719 7.09375 8.011719zm0 0"
          fill="#e31e7f"/>
    <path d="m327.109375 122.15625c.40625 4.257812-2.933594 7.84375-7.109375 7.84375h-42.855469c-4.179687 0-7.515625-3.585938-7.109375-7.84375.351563-3.714844 3.683594-6.441406 7.414063-6.441406 3.777343 0 6.835937-3.0625 6.835937-6.835938v-25.589844c-8.53125-4.941406-14.285156-14.148437-14.285156-24.71875 0-16.292968 13.636719-29.398437 30.117188-28.53125 14.761718.777344 26.703124 13.125 27.019531 27.90625.230469 10.832032-5.578125 20.304688-14.277344 25.34375v25.589844c0 3.773438 3.058594 6.835938 6.835937 6.835938 3.726563 0 7.058594 2.726562 7.414063 6.441406zm0 0"
          fill="#0995a3"/>
    <path d="m297.144531 130h-20c-4.457031 0-7.960937-4.082031-6.976562-8.710938.71875-3.378906 3.878906-5.550781 7.332031-5.574218 3.753906-.027344 6.785156-3.078125 6.785156-6.835938v-25.589844c-8.53125-4.941406-14.285156-14.148437-14.285156-24.71875 0-16.292968 13.636719-29.398437 30.117188-28.53125 2.941406.15625 5.765624.777344 8.410156 1.777344-10.824219 4.066406-18.527344 14.507813-18.527344 26.753906 0 7.925782 3.238281 15.085938 8.453125 20.257813 3.824219 3.785156 5.832031 9.035156 5.832031 14.417969v15.632812c0 3.773438-3.0625 6.835938-6.835937 6.835938h-.007813c-3.667968 0-6.960937 2.632812-7.390625 6.273437-.511719 4.332031 2.859375 8.011719 7.09375 8.011719zm0 0"
          fill="#00808a"/>
    <path d="m210 370v80c0 11.046875-8.953125 20-20 20h-80c-11.046875 0-20-8.953125-20-20v-80c0-11.046875 8.953125-20 20-20h80c11.046875 0 20 8.953125 20 20zm0 0"
          fill="#e31e7f"/>
    <path d="m210 370v56c0 11.046875-8.953125 20-20 20h-56c-11.046875 0-20-8.953125-20-20v-56c0-11.046875 8.953125-20 20-20h56c11.046875 0 20 8.953125 20 20zm0 0"
          fill="#fd3d96"/>
    <path d="m133.636719 377.273438c0 9.035156-7.328125 16.363281-16.363281 16.363281-9.039063 0-16.367188-7.328125-16.367188-16.363281 0-9.039063 7.328125-16.363282 16.367188-16.363282 9.035156 0 16.363281 7.324219 16.363281 16.363282zm49.089843 49.089843c-9.035156 0-16.363281 7.328125-16.363281 16.363281 0 9.039063 7.324219 16.363282 16.363281 16.363282 9.039063 0 16.363282-7.324219 16.363282-16.363282 0-9.035156-7.324219-16.363281-16.363282-16.363281zm-32.726562-32.726562c-9.035156 0-16.363281 7.324219-16.363281 16.363281 0 9.035156 7.324219 16.363281 16.363281 16.363281s16.363281-7.328125 16.363281-16.363281c0-9.039062-7.328125-16.363281-16.363281-16.363281zm0 0"
          fill="#fff5f5"/>
    <path d="m331.167969 460h-21.167969c-5.523438 0-10-4.476562-10-10v-195.667969c0-5.523437 4.476562-10 10-10h21.167969c5.523437 0 10 4.476563 10 10v195.667969c0 5.523438-4.476563 10-10 10zm0 0"
          fill="#00808a"/>
    <path d="m450 423.027344c-11.769531 13.660156-24.949219 26.054687-39.328125 36.972656h-80.671875c-5.523438 0-10-4.476562-10-10v-195.667969c0-5.523437 4.476562-10 10-10h110c5.523438 0 10 4.476563 10 10zm0 0"
          fill="#0995a3"/>
    <path d="m435 344.332031c0 33.136719-26.863281 60-60 60s-60-26.863281-60-60 26.863281-60 60-60 60 26.863281 60 60zm0 0"
          fill="#016a74"/>
    <path d="m378.683594 306.625 8.859375 17.949219c.597656 1.214843 1.757812 2.054687 3.09375 2.25l19.8125 2.878906c3.367187.488281 4.714843 4.632813 2.277343 7.007813l-14.335937 13.972656c-.96875.945312-1.410156 2.304687-1.183594 3.636718l3.386719 19.730469c.574219 3.355469-2.949219 5.917969-5.960938 4.332031l-17.722656-9.316406c-1.195312-.628906-2.625-.628906-3.820312 0l-17.722656 9.316406c-3.011719 1.585938-6.535157-.976562-5.960938-4.332031l3.386719-19.730469c.226562-1.332031-.214844-2.691406-1.183594-3.636718l-14.335937-13.972656c-2.4375-2.375-1.089844-6.519532 2.277343-7.007813l19.8125-2.878906c1.335938-.195313 2.496094-1.035157 3.09375-2.25l8.859375-17.949219c1.507813-3.054688 5.859375-3.054688 7.367188 0zm0 0"
          fill="#fdf385"/>
    <path d="m140 159.15625c0 33.136719-26.863281 60-60 60s-60-26.863281-60-60 26.863281-60 60-60 60 26.863281 60 60zm0 0"
          fill="#fd3d96"/>
    <path d="m90 218.308594c-3.253906.546875-6.589844.847656-10 .847656-33.136719 0-60-26.863281-60-60s26.863281-60 60-60c3.410156 0 6.746094.296875 10 .84375-28.375 4.761719-50 29.425781-50 59.15625 0 29.726562 21.625 54.390625 50 59.152344zm0 0"
          fill="#e31e7f"/>
    <path d="m52.347656 117.5c5.292969-3.523438 11.292969-6.0625 17.746094-7.359375 1.242188-.25 2.40625.699219 2.40625 1.964844v16.484375c0 .859375-.542969 1.640625-1.363281 1.894531-1.785157.554687-3.5 1.273437-5.128907 2.132813-.761718.402343-1.699218.238281-2.3125-.371094l-11.65625-11.65625c-.894531-.898438-.746093-2.390625.308594-3.089844zm55.304688 0c-5.292969-3.523438-11.292969-6.0625-17.746094-7.359375-1.242188-.25-2.40625.699219-2.40625 1.964844v16.484375c0 .859375.542969 1.640625 1.363281 1.894531 1.785157.554687 3.5 1.273437 5.128907 2.132813.761718.402343 1.699218.238281 2.3125-.371094l11.65625-11.660156c.894531-.894532.746093-2.386719-.308594-3.085938zm2.910156 34.15625h16.488281c1.265625 0 2.214844-1.164062 1.964844-2.40625-1.296875-6.453125-3.839844-12.453125-7.363281-17.75-.699219-1.050781-2.191406-1.199219-3.085938-.304688l-11.65625 11.65625c-.609375.609376-.777344 1.550782-.375 2.308594.863282 1.628906 1.578125 3.34375 2.132813 5.128906.253906.824219 1.035156 1.367188 1.894531 1.367188zm-57.472656-8.804688-11.65625-11.65625c-.894532-.894531-2.386719-.746093-3.089844.304688-3.519531 5.296875-6.0625 11.296875-7.359375 17.75-.25 1.242188.699219 2.40625 1.964844 2.40625h16.484375c.859375 0 1.644531-.542969 1.898437-1.363281.550781-1.789063 1.269531-3.503907 2.132813-5.128907.402344-.761718.234375-1.703124-.375-2.3125zm-.742188 57.957032c5.292969 3.523437 11.292969 6.066406 17.746094 7.363281 1.242188.25 2.40625-.699219 2.40625-1.96875v-16.484375c0-.859375-.542969-1.640625-1.363281-1.894531-1.785157-.554688-3.5-1.269531-5.128907-2.132813-.761718-.402344-1.699218-.238281-2.3125.375l-11.65625 11.65625c-.894531.894532-.746093 2.386719.308594 3.085938zm-2.914062-34.152344h-16.484375c-1.265625 0-2.214844 1.164062-1.964844 2.402344 1.296875 6.453125 3.839844 12.457031 7.359375 17.75.703125 1.054687 2.195312 1.199218 3.089844.304687l11.65625-11.65625c.609375-.609375.777344-1.546875.375-2.308593-.863282-1.628907-1.582032-3.34375-2.132813-5.128907-.253906-.824219-1.035156-1.363281-1.898437-1.363281zm57.476562 8.800781 11.65625 11.65625c.894532.894531 2.386719.75 3.089844-.304687 3.519531-5.292969 6.0625-11.296875 7.359375-17.75.25-1.242188-.699219-2.402344-1.964844-2.402344h-16.484375c-.859375 0-1.644531.539062-1.898437 1.363281-.550781 1.785157-1.269531 3.5-2.132813 5.128907-.402344.761718-.234375 1.699218.375 2.308593zm-19.410156 14.261719v16.484375c0 1.265625 1.164062 2.21875 2.40625 1.96875 6.453125-1.300781 12.453125-3.839844 17.746094-7.363281 1.054687-.699219 1.203125-2.191406.308594-3.085938l-11.65625-11.660156c-.609376-.609375-1.550782-.777344-2.3125-.371094-1.628907.859375-3.34375 1.578125-5.128907 2.128906-.820312.257813-1.363281 1.039063-1.363281 1.898438zm0 0"
          fill="#fd7ab5"/>
    <path d="m81.792969 140.269531 4.3125 8.738281c.292969.589844.855469 1 1.507812 1.09375l9.644531 1.402344c1.636719.238282 2.292969 2.253906 1.105469 3.410156l-6.976562 6.804688c-.472657.457031-.6875 1.121094-.574219 1.769531l1.644531 9.605469c.28125 1.632812-1.433593 2.878906-2.902343 2.105469l-8.625-4.535157c-.582032-.304687-1.277344-.304687-1.859376 0l-8.628906 4.535157c-1.464844.773437-3.179687-.472657-2.902344-2.105469l1.648438-9.605469c.113281-.648437-.101562-1.3125-.574219-1.769531l-6.976562-6.804688c-1.1875-1.15625-.535157-3.171874 1.105469-3.410156l9.644531-1.402344c.652343-.09375 1.214843-.503906 1.507812-1.09375l4.3125-8.738281c.734375-1.488281 2.851563-1.488281 3.585938 0zm0 0"
          fill="#fdf385"/>
    <path d="m140 219.15625c0 33.136719-26.863281 60-60 60s-60-26.863281-60-60 26.863281-60 60-60 60 26.863281 60 60zm0 0"
          fill="#0995a3"/>
    <path d="m90 278.308594c-3.253906.546875-6.589844.847656-10 .847656-33.136719 0-60-26.863281-60-60s26.863281-60 60-60c3.410156 0 6.746094.296875 10 .84375-28.375 4.761719-50 29.425781-50 59.15625 0 29.726562 21.625 54.390625 50 59.152344zm0 0"
          fill="#00808a"/>
    <path d="m72.5 172.105469v16.484375c0 .859375-.542969 1.640625-1.363281 1.894531-1.785157.554687-3.5 1.273437-5.128907 2.132813-.761718.402343-1.699218.238281-2.3125-.371094l-11.65625-11.660156c-.894531-.894532-.746093-2.386719.308594-3.085938 5.292969-3.523438 11.292969-6.0625 17.746094-7.359375 1.242188-.25 2.40625.699219 2.40625 1.964844zm16.363281 18.378906c1.785157.554687 3.5 1.273437 5.128907 2.132813.761718.402343 1.699218.238281 2.3125-.371094l11.65625-11.660156c.894531-.894532.746093-2.386719-.308594-3.085938-5.292969-3.523438-11.292969-6.0625-17.746094-7.359375-1.242188-.25-2.40625.699219-2.40625 1.964844v16.484375c0 .859375.542969 1.640625 1.363281 1.894531zm17.671875 14.675781c.863282 1.628906 1.582032 3.34375 2.132813 5.128906.253906.824219 1.039062 1.363282 1.898437 1.363282h16.484375c1.265625 0 2.214844-1.164063 1.964844-2.402344-1.296875-6.453125-3.835937-12.457031-7.359375-17.75-.703125-1.054688-2.191406-1.199219-3.089844-.304688l-11.65625 11.65625c-.609375.609376-.777344 1.546876-.375 2.308594zm-73.585937 6.496094h16.484375c.859375 0 1.644531-.542969 1.898437-1.363281.550781-1.789063 1.269531-3.503907 2.132813-5.128907.402344-.761718.234375-1.703124-.375-2.3125l-11.65625-11.65625c-.894532-.894531-2.386719-.746093-3.089844.304688-3.519531 5.296875-6.0625 11.296875-7.359375 17.75-.25 1.242188.699219 2.40625 1.964844 2.40625zm38.1875 36.167969c-1.785157-.554688-3.5-1.273438-5.128907-2.132813-.761718-.402344-1.699218-.238281-2.3125.371094l-11.65625 11.660156c-.894531.894532-.746093 2.386719.308594 3.085938 5.292969 3.523437 11.292969 6.0625 17.746094 7.363281 1.242188.25 2.40625-.703125 2.40625-1.96875v-16.484375c0-.859375-.542969-1.640625-1.363281-1.894531zm-17.671875-14.675781c-.863282-1.628907-1.582032-3.34375-2.132813-5.128907-.253906-.824219-1.039062-1.363281-1.898437-1.363281h-16.484375c-1.265625 0-2.214844 1.164062-1.964844 2.402344 1.296875 6.453125 3.839844 12.457031 7.359375 17.75.703125 1.054687 2.195312 1.199218 3.089844.304687l11.65625-11.65625c.609375-.609375.777344-1.546875.375-2.308593zm73.585937-6.492188h-16.484375c-.859375 0-1.644531.539062-1.898437 1.363281-.550781 1.785157-1.269531 3.5-2.132813 5.128907-.402344.761718-.234375 1.699218.375 2.308593l11.65625 11.65625c.894532.894531 2.386719.75 3.089844-.304687 3.519531-5.292969 6.0625-11.296875 7.359375-17.75.25-1.242188-.699219-2.402344-1.964844-2.402344zm-30.746093 19.40625c-.609376-.609375-1.550782-.773438-2.3125-.371094-1.628907.859375-3.34375 1.578125-5.128907 2.132813-.820312.253906-1.363281 1.035156-1.363281 1.894531v16.484375c0 1.269531 1.164062 2.21875 2.40625 1.96875 6.453125-1.300781 12.453125-3.839844 17.746094-7.363281 1.054687-.699219 1.203125-2.191406.308594-3.085938zm0 0"
          fill="#2abbc7"/>
    <path d="m81.792969 200.269531 4.3125 8.738281c.292969.589844.855469 1 1.507812 1.09375l9.644531 1.402344c1.636719.238282 2.292969 2.253906 1.105469 3.410156l-6.976562 6.804688c-.472657.457031-.6875 1.121094-.574219 1.769531l1.644531 9.605469c.28125 1.632812-1.433593 2.878906-2.902343 2.105469l-8.625-4.535157c-.582032-.304687-1.277344-.304687-1.859376 0l-8.628906 4.535157c-1.464844.773437-3.179687-.472657-2.902344-2.105469l1.648438-9.605469c.113281-.648437-.101562-1.3125-.574219-1.769531l-6.976562-6.804688c-1.1875-1.15625-.535157-3.171874 1.105469-3.410156l9.644531-1.402344c.652343-.09375 1.214843-.503906 1.507812-1.09375l4.3125-8.738281c.734375-1.488281 2.851563-1.488281 3.585938 0zm0 0"
          fill="#fdf385"/>
</svg>
