<svg height="512pt" viewBox="0 0 512 512" width="512pt" xmlns="http://www.w3.org/2000/svg">
    <path d="m0 256c0-141.386719 114.617188-256 256-256 141.042969 0 256 114.960938 256 256 0 68.648438-27.027344 130.976562-71.015625 176.945312-2.691406 2.8125-7.148437 2.882813-9.988281.222657-45.773438-42.894531-107.3125-69.167969-174.996094-69.167969-67.851562 0-129.53125 26.40625-175.34375 69.492188-2.644531 2.488281-6.804688 2.410156-9.320312-.210938-44.175782-46-71.335938-108.464844-71.335938-177.28125zm0 0"
          fill="#2abbc7"/>
    <path d="m375 50v432.699219c-35.554688 18.699219-76.035156 29.300781-119 29.300781-72.742188 0-138.394531-30.34375-185-79.058594v-362.941406c0-11.046875 8.953125-20 20-20zm0 0"
          fill="#e31e7f"/>
    <path d="m441 60v372.941406c-5.332031 5.574219-10.910156 10.90625-16.722656 15.980469-30.550782 26.667969-78.277344 5.101563-78.277344-35.449219v-345.503906c0-9.921875 8.046875-17.96875 17.96875-17.96875h67.03125c5.523438 0 10 4.476562 10 10zm0 0"
          fill="#a11259"/>
    <path d="m290 60h-60v-10c0-11.046875 8.953125-20 20-20h40zm0 0" fill="#d6bf01"/>
    <path d="m425 75v373.273438c-15.6875 13.800781-33.078125 25.710937-51.816406 35.375-51.628906 26.625-113.121094-11.21875-113.136719-69.308594-.03125-124.628906-.046875-324.339844-.046875-324.339844 0-11.046875 8.953125-20 20-20h140c2.761719 0 5 2.238281 5 5zm0 0"
          fill="#fdf7bd"/>
    <path d="m392.5 70h15v392.359375c-4.871094 3.582031-9.875 6.996094-15 10.234375zm0 0" fill="#fdf061"/>
    <path d="m120 50h5v425.964844c-8.679688-5.179688-17.027344-10.855469-25-16.992188v-388.972656c0-11.046875 8.953125-20 20-20zm245 0h-225v434.246094c34.824219 17.738281 74.238281 27.753906 116 27.753906 42.964844 0 83.445312-10.601562 119-29.300781v-422.699219c0-5.523438-4.476562-10-10-10zm0 0"
          fill="#fd3d96"/>
    <path d="m300 285v20c0 2.761719-2.238281 5-5 5h-90c-2.761719 0-5-2.238281-5-5v-20c0-2.761719 2.238281-5 5-5h90c2.761719 0 5 2.238281 5 5zm-25 185h-50c-2.761719 0-5 2.238281-5 5v10c0 2.761719 2.238281 5 5 5h50c2.761719 0 5-2.238281 5-5v-10c0-2.761719-2.238281-5-5-5zm50-240h-150c-2.761719 0-5 2.238281-5 5v20c0 2.761719 2.238281 5 5 5h150c2.761719 0 5-2.238281 5-5v-20c0-2.761719-2.238281-5-5-5zm0 0"
          fill="#c2186c"/>
    <path d="m346 50v80.65625c0 3.992188-4.449219 6.375-7.773438 4.160156l-22.226562-14.816406-22.226562 14.816406c-3.324219 2.214844-7.773438-.164062-7.773438-4.160156v-80.65625c0-11.046875-8.953125-20-20-20h60c11.046875 0 20 8.953125 20 20zm0 0"
          fill="#fded32"/>
</svg>
