<svg height="512pt" viewBox="0 0 512.00038 512" width="512pt" xmlns="http://www.w3.org/2000/svg">
    <path d="m66.863281 428.503906c-41.527343-45.507812-66.863281-106.042968-66.863281-172.503906 0-141.207031 114.328125-255.710938 255.46875-256 139.742188-.285156 256.292969 115.8125 256.53125 255.558594.109375 63.5625-22.957031 121.726562-61.210938 166.539062-11.019531 12.910156-27.101562 20.402344-44.074218 20.402344h-308.023438c-12.101562 0-23.671875-5.058594-31.828125-13.996094zm0 0"
          fill="#fde803"/>
    <path d="m166.324219 0c66.28125 20.289062 108.96875 72.464844 95.441406 116.652344-66.28125-20.292969-108.96875-72.464844-95.441406-116.652344zm0 0"
          fill="#6bae01"/>
    <path d="m344.886719 37.945312c0 8.378907-5.839844 15.632813-14.035157 17.375-27.296874 5.808594-57.625 26.996094-57.625 52.171876h-17.917968c0-41.722657 28.671875-76.871094 67.34375-86.785157 11.261718-2.886719 22.234375 5.609375 22.234375 17.238281zm0 0"
          fill="#5a9001"/>
    <path d="m442.550781 261-31.480469 68.5625c-11.640624 25.359375-29.941406 46.414062-52.328124 61.535156-29.730469 13.242188-62.96875 20.660156-98.058594 20.660156-35.085938 0-68.324219-7.417968-98.054688-20.660156-22.386718-15.125-40.6875-36.175781-52.328125-61.535156l-31.480469-68.5625c-16.285156-35.46875-13.246093-76.632812 8.082032-109.414062 24.011718-36.90625 67.242187-57.199219 111.507812-52.339844l35.039063 3.847656c18.101562 1.988281 36.367187 1.988281 54.46875 0l35.039062-3.847656c44.265625-4.859375 87.5 15.433594 111.507813 52.339844 21.328125 32.78125 24.367187 73.941406 8.085937 109.414062zm0 0"
          fill="#e31e7f"/>
    <path d="m434.46875 151.585938c21.324219 32.78125 24.363281 73.941406 8.082031 109.414062l-31.480469 68.5625c-.0625.136719-.125.273438-.1875.40625-11.285156 24.390625-34.761718 41.210938-61.78125 44.617188-9.449218 1.1875-19.125 1.804687-28.972656 1.804687-106.140625 0-192.183594-71.625-192.183594-159.976563 0-25.636718 7.246094-49.863281 20.125-71.335937 17.5625-29.289063 51.007813-45.675781 85.367188-41.988281h.011719c18.101562 1.988281 36.371093 1.988281 54.46875 0l35.039062-3.84375c44.265625-4.859375 87.5 15.433594 111.511719 52.339844zm0 0"
          fill="#fd3d96"/>
    <path d="m391.742188 156.589844c19.167968 19.167968 25.382812 44.03125 13.882812 55.53125-9.429688 9.429687-27.835938 6.953125-44.722656-4.804688-3.714844-2.585937-9.917969-13.921875-13.375-17.378906-10.15625-10.15625-14.113282-13.609375-16.289063-24.125-1.929687-9.335938-.4375-17.699219 4.96875-23.105469 11.5-11.503906 36.363281-5.289062 55.535157 13.882813zm0 0"
          fill="#a11259"/>
    <path d="m490 53.746094c0 12.367187-10.027344 22.394531-22.394531 22.394531-7.410157 0-13.433594 6.027344-13.433594 13.4375 0 57.164063-39.875 105.1875-93.269531 117.730469-3.714844-2.585938-7.355469-5.613282-10.8125-9.070313-10.15625-10.15625-16.675782-21.910156-18.851563-32.429687-.34375.03125-.683593.070312-1.019531.117187.988281-.132812 1.996094-.210937 3.023438-.210937 41.984374 0 76.140624-34.15625 76.140624-76.136719 0-32.105469 26.121094-58.226563 58.222657-58.226563 12.367187 0 22.394531 10.027344 22.394531 22.394532zm0 0"
          fill="#00808a"/>
    <path d="m473.429688 37.175781c0 12.367188-10.027344 22.390625-22.394532 22.390625-7.410156 0-13.4375 6.03125-13.4375 13.4375 0 57.425782-40.238281 105.628906-94 117.902344-6.457031-8.242188-10.6875-17.03125-12.355468-25.097656-.34375.03125-.6875.070312-1.023438.117187.988281-.136719 1.996094-.210937 3.023438-.210937 41.984374 0 76.140624-34.15625 76.140624-76.140625 0-32.105469 26.121094-58.222657 58.226563-58.222657 1.792969 0 3.535156.214844 5.207031.613282.394532 1.675781.613282 3.417968.613282 5.210937zm0 0"
          fill="#0995a3"/>
    <path d="m472.53125 49.265625c0 3.710937-3.007812 6.71875-6.714844 6.71875-3.710937 0-6.71875-3.007813-6.71875-6.71875 0-3.707031 3.007813-6.714844 6.71875-6.714844 3.707032 0 6.714844 3.007813 6.714844 6.714844zm0 0"
          fill="#01525a"/>
    <path d="m372.667969 467.195312c0 10.585938-6.359375 20.101563-16.089844 24.269532-30.875 13.210937-64.867187 20.535156-100.578125 20.535156-75.507812 0-143.371094-32.695312-190.226562-84.695312 9.25-21.917969 30.941406-37.304688 56.226562-37.304688h319c5.523438 0 10 4.476562 10 10v10c-2.148438 10.195312-11.148438 17.5-21.570312 17.5h-17.070313c-21.921875 0-39.691406 17.773438-39.691406 39.695312zm0 0"
          fill="#015081"/>
    <path d="m86.058594 447.429688c-7.128906-6.328126-13.90625-13.042969-20.285156-20.125 9.25-21.917969 30.941406-37.304688 56.226562-37.304688h37.667969c-25.285157 0-46.976563 15.386719-56.226563 37.304688 7.679688 8.527343 15.9375 16.519531 24.6875 23.945312h-32.023437c-3.703125 0-7.277344-1.363281-10.046875-3.820312zm0 0"
          fill="#012d4e"/>
    <path d="m451 421.847656c-25.773438 30.273438-58.464844 54.480469-95.640625 70.152344h-198.71875c-26.347656-11.105469-50.4375-26.5-71.414063-45.300781 2.148438-20.621094 19.582032-36.699219 40.773438-36.699219h325zm0 0"
          fill="#84deea"/>
    <path d="m451 410v11.847656c-1.625 1.90625-3.277344 3.792969-4.957031 5.652344h-299.496094c-10.660156 0-11.800781-15.636719-1.246094-17.105469 1.863281-.261719 3.765625-.394531 5.699219-.394531zm-294.359375 82h198.71875c11.542969-4.867188 22.65625-10.558594 33.265625-17h-265.222656c10.601562 6.4375 21.699218 12.136719 33.238281 17zm-46.640625-41.085938v.085938c0 .191406 0 .382812.003906.570312.066406 4.683594 3.917969 8.429688 8.601563 8.429688h292.015625c7.207031-5.472656 14.121094-11.308594 20.703125-17.5h-312.730469c-4.675781 0-8.582031 3.738281-8.59375 8.414062zm0 0"
          fill="#d3f1f5"/>
</svg>
