<svg height="512pt" viewBox="0 0 512 512.00023" width="512pt" xmlns="http://www.w3.org/2000/svg">
    <path d="m63.113281 420.910156c-.898437.8125-2.296875.730469-3.074219-.195312-37.460937-44.523438-60.039062-101.980469-60.039062-164.714844 0-141.269531 114.425781-255.8125 255.652344-256 140.207031-.1875 255.101562 113.492188 256.335937 253.691406.5625 63.636719-22.105469 121.957032-60.023437 167.019532-.78125.929687-2.175782 1.011718-3.078125.195312-49.753907-45.101562-117.820313-72.90625-192.886719-72.90625-75.070312 0-143.132812 27.804688-192.886719 72.910156zm0 0"
          fill="#a1e52e"/>
    <path d="m150 144v-110c0-5.523438 4.476562-10 10-10h20c5.523438 0 10 4.476562 10 10v110c0 5.523438-4.476562 10-10 10h-20c-5.523438 0-10-4.476562-10-10zm182 10h20c5.523438 0 10-4.476562 10-10v-110c0-5.523438-4.476562-10-10-10h-20c-5.523438 0-10 4.476562-10 10v110c0 5.523438 4.476562 10 10 10zm-272 26v240.664062c46.960938 55.839844 117.328125 91.335938 196 91.335938s149.039062-35.496094 196-91.335938v-240.664062zm0 0"
          fill="#015081"/>
    <path d="m452 400.664062c-46.960938 55.839844-117.328125 91.335938-196 91.335938-1.320312 0-2.636719-.011719-3.953125-.03125-90.097656-1.363281-162.046875-75.660156-162.046875-165.769531v-166.199219h362zm0 0"
          fill="#056099"/>
    <path d="m456.511719 241.585938-196 45.371093c-2.96875.6875-6.054688.6875-9.023438 0l-196-45.371093c-9.066406-2.101563-15.488281-10.175782-15.488281-19.484376v-104.101562c0-11.046875 8.953125-20 20-20h392c11.046875 0 20 8.953125 20 20v104.101562c0 9.308594-6.421875 17.382813-15.488281 19.484376zm0 0"
          fill="#0571b3"/>
    <path d="m472 118v76.101562c0 9.308594-6.421875 17.386719-15.488281 19.484376l-196 45.371093c-2.96875.6875-6.054688.6875-9.023438 0l-196-45.371093c-9.066406-2.101563-15.488281-10.175782-15.488281-19.484376v-76.101562c0-11.046875 8.953125-20 20-20h392c11.046875 0 20 8.953125 20 20zm0 0"
          fill="#3180c2"/>
    <path d="m362 35c0 2.761719-2.238281 5-5 5h-202c-2.761719 0-5-2.238281-5-5 0-19.328125 15.671875-35 35-35h142c19.332031 0 35 15.671875 35 35zm0 0"
          fill="#056099"/>
    <path d="m362 35c0 2.761719-2.238281 5-5 5h-172c-2.761719 0-5-2.238281-5-5 0-19.328125 15.671875-35 35-35h112c19.332031 0 35 15.671875 35 35zm0 0"
          fill="#0571b3"/>
    <path d="m266 320h-20c-11.046875 0-20-8.953125-20-20v-60c0-11.046875 8.953125-20 20-20h20c11.046875 0 20 8.953125 20 20v60c0 11.046875-8.953125 20-20 20zm0 0"
          fill="#d6bf01"/>
    <path d="m266 300c-11.046875 0-20-8.953125-20-20v-40c0-11.046875 8.953125-20 20-20s20 8.953125 20 20v40c0 11.046875-8.953125 20-20 20zm0 0"
          fill="#fded32"/>
</svg>
