<svg height="512pt" viewBox="0 0 512 512" width="512pt" xmlns="http://www.w3.org/2000/svg">
    <path d="m512 256c0 141.386719-114.613281 256-256 256s-256-114.613281-256-256 114.613281-256 256-256 256 114.613281 256 256zm0 0"
          fill="#7ecd00"/>
    <path d="m256 62c-107.144531 0-194 86.855469-194 194s86.855469 194 194 194 194-86.855469 194-194-86.855469-194-194-194zm0 309.710938c-63.90625 0-115.710938-51.804688-115.710938-115.710938s51.804688-115.710938 115.710938-115.710938 115.710938 51.804688 115.710938 115.710938-51.804688 115.710938-115.710938 115.710938zm0 0"
          fill="#fded32"/>
    <path d="m275 449.074219c-6.253906.605469-12.589844.925781-19 .925781-107.144531 0-194-86.855469-194-194s86.855469-194 194-194c6.410156 0 12.746094.320312 19 .925781-98.226562 9.550781-175 92.34375-175 193.074219s76.773438 183.523438 175 193.074219zm0 0"
          fill="#e8ce00"/>
    <path d="m512 178.5625c0 4.828125-3.453125 8.96875-8.207031 9.835938l-220.792969 40.242187 40.183594-220.425781c.90625-4.980469 5.394531-8.503906 10.445312-8.1953128 90.890625 5.5429688 164.742188 74.1289068 178.371094 162.5976568zm0 0"
          fill="#fd3d96"/>
    <path d="m311.960938 223.363281-28.960938 5.277344 40.183594-220.425781c.90625-4.980469 5.394531-8.503906 10.445312-8.1953128 6.3125.3828128 12.539063 1.0859378 18.671875 2.0624998zm0 0"
          fill="#e31e7f"/>
    <path d="m294.445312 460h-224.445312c-5.523438 0-10-4.476562-10-10v-280c0-5.523438 4.476562-10 10-10h224.445312c5.523438 0 10 4.476562 10 10v280c0 5.523438-4.476562 10-10 10zm0 0"
          fill="#ade8f0"/>
    <path d="m294.445312 460h-194.445312c-5.523438 0-10-4.476562-10-10v-280c0-5.523438 4.476562-10 10-10h194.445312c5.523438 0 10 4.476562 10 10v280c0 5.523438-4.476562 10-10 10zm0 0"
          fill="#d3f1f5"/>
    <path d="m120 270v10c0 5.523438-4.476562 10-10 10h-25c-5.523438 0-10-4.476562-10-10v-10c0-5.523438 4.476562-10 10-10h25c5.523438 0 10 4.476562 10 10zm50-10h-25c-5.523438 0-10 4.476562-10 10v10c0 5.523438 4.476562 10 10 10h25c5.523438 0 10-4.476562 10-10v-10c0-5.523438-4.476562-10-10-10zm60 0h-25c-5.523438 0-10 4.476562-10 10v10c0 5.523438 4.476562 10 10 10h25c5.523438 0 10-4.476562 10-10v-10c0-5.523438-4.476562-10-10-10zm-120 50h-25c-5.523438 0-10 4.476562-10 10v10c0 5.523438 4.476562 10 10 10h25c5.523438 0 10-4.476562 10-10v-10c0-5.523438-4.476562-10-10-10zm60 0h-25c-5.523438 0-10 4.476562-10 10v10c0 5.523438 4.476562 10 10 10h25c5.523438 0 10-4.476562 10-10v-10c0-5.523438-4.476562-10-10-10zm60 0h-25c-5.523438 0-10 4.476562-10 10v10c0 5.523438 4.476562 10 10 10h25c5.523438 0 10-4.476562 10-10v-10c0-5.523438-4.476562-10-10-10zm-120 50h-25c-5.523438 0-10 4.476562-10 10v10c0 5.523438 4.476562 10 10 10h25c5.523438 0 10-4.476562 10-10v-10c0-5.523438-4.476562-10-10-10zm60 0h-25c-5.523438 0-10 4.476562-10 10v10c0 5.523438 4.476562 10 10 10h25c5.523438 0 10-4.476562 10-10v-10c0-5.523438-4.476562-10-10-10zm60 0h-25c-5.523438 0-10 4.476562-10 10v10c0 5.523438 4.476562 10 10 10h25c5.523438 0 10-4.476562 10-10v-10c0-5.523438-4.476562-10-10-10zm-120 50h-25c-5.523438 0-10 4.476562-10 10v10c0 5.523438 4.476562 10 10 10h25c5.523438 0 10-4.476562 10-10v-10c0-5.523438-4.476562-10-10-10zm60 0h-25c-5.523438 0-10 4.476562-10 10v10c0 5.523438 4.476562 10 10 10h25c5.523438 0 10-4.476562 10-10v-10c0-5.523438-4.476562-10-10-10zm60 0h-25c-5.523438 0-10 4.476562-10 10v10c0 5.523438 4.476562 10 10 10h25c5.523438 0 10-4.476562 10-10v-10c0-5.523438-4.476562-10-10-10zm49.445312-150h-10c-5.523437 0-10 4.476562-10 10v10c0 5.523438 4.476563 10 10 10h10c5.523438 0 10-4.476562 10-10v-10c0-5.523438-4.476562-10-10-10zm0 50h-10c-5.523437 0-10 4.476562-10 10v10c0 5.523438 4.476563 10 10 10h10c5.523438 0 10-4.476562 10-10v-10c0-5.523438-4.476562-10-10-10zm0 50h-10c-5.523437 0-10 4.476562-10 10v60c0 5.523438 4.476563 10 10 10h10c5.523438 0 10-4.476562 10-10v-60c0-5.523438-4.476562-10-10-10zm0 0"
          fill="#84deea"/>
    <path d="m279.445312 240h-194.445312c-5.523438 0-10-4.476562-10-10v-40c0-5.523438 4.476562-10 10-10h194.445312c5.523438 0 10 4.476562 10 10v40c0 5.523438-4.476562 10-10 10zm0 0"
          fill="#013f69"/>
    <path d="m279.445312 240h-169.445312c-5.523438 0-10-4.476562-10-10v-40c0-5.523438 4.476562-10 10-10h169.445312c5.523438 0 10 4.476562 10 10v40c0 5.523438-4.476562 10-10 10zm0 0"
          fill="#015081"/>
    <path d="m269.445312 230c-5.523437 0-10-4.476562-10-10v-20c0-5.523438 4.476563-10 10-10 5.523438 0 10 4.476562 10 10v20c0 5.523438-4.476562 10-10 10zm-29.445312 0c-5.523438 0-10-4.476562-10-10v-20c0-5.523438 4.476562-10 10-10s10 4.476562 10 10v20c0 5.523438-4.476562 10-10 10zm-30 0c-5.523438 0-10-4.476562-10-10v-20c0-5.523438 4.476562-10 10-10s10 4.476562 10 10v20c0 5.523438-4.476562 10-10 10zm0 0"
          fill="#0571b3"/>
</svg>
