<svg height="512pt" viewBox="0 0 512 512.00044" width="512pt" xmlns="http://www.w3.org/2000/svg">
    <path d="m80.730469 436.433594c-3.691407.363281-7.339844-.980469-9.898438-3.660156-43.882812-45.953126-70.832031-108.214844-70.832031-176.773438 0-141.222656 114.351562-255.738281 255.515625-256 141.042969-.261719 256.378906 114.761719 256.484375 255.808594.050781 67.441406-25.980469 128.804687-68.558594 174.554687-3.910156 4.203125-9.554687 6.320313-15.265625 5.769531-55.019531-5.304687-112.710937-8.132812-172.175781-8.132812-60.578125 0-119.320312 2.933594-175.269531 8.433594zm0 0"
          fill="#fd3d96"/>
    <path d="m353.488281 422.058594h-276.632812l92.210937-349.011719h92.210938zm0 0" fill="#056099"/>
    <path d="m269.71875 511.640625c-4.542969.238281-9.117188.359375-13.71875.359375-72.964844 0-138.800781-30.527344-185.433594-79.503906.28125-.042969.5625-.089844.847656-.125-2.402343-4.269532-3.777343-9.195313-3.777343-14.441406v-2.425782c0-12.277344 7.492187-22.800781 18.152343-27.253906l61.804688-233.929688c-7.113281-3.066406-12.097656-10.136718-12.097656-18.375v-1.644531c0-1.917969.289062-3.765625.792968-5.523437h-9.089843c-20.121094 0-36.4375-16.316406-36.4375-36.4375 0-1.019532 0-4.042969 0-4.574219v-53.320313c0-5.402343 4.378906-9.777343 9.777343-9.777343h34.585938c5.398438 0 9.773438 4.375 9.773438 9.777343 0 11.847657 9.605468 21.453126 21.457031 21.453126h.292969c11.851562 0 21.457031-9.605469 21.457031-21.453126 0-5.402343 4.375-9.777343 9.777343-9.777343h34.582032c5.398437 0 9.777344 4.375 9.777344 9.777343 0 11.847657 9.605468 21.453126 21.457031 21.453126h.289062c11.851563 0 21.457031-9.605469 21.457031-21.453126 0-5.402343 4.378907-9.777343 9.777344-9.777343h34.585938c5.398437 0 9.777344 4.375 9.777344 9.777343v53.320313 4.574219c0 20.125-16.316407 36.4375-36.441407 36.4375h-9.085937c.503906 1.757812-119.089844 24.144531-119.089844 24.144531-.359375 1.070313-.71875 2.144531-1.0625 3.230469h78.90625c5.613281 0 10.125 4.730468 9.753906 10.425781-.335937 5.195313-4.882812 9.125-10.089844 9.125h-66.507812c-10.210938 0-18.769531 7.691406-19.886719 17.84375-.828125 7.484375-1.253906 15.152344-1.253906 22.96875 0 80.988281 45.957031 146.640625 102.648437 146.640625 23.5 0 45.152344-11.289062 62.453126-30.269531l20.589843 45.808593c27.144531 60.386719-14.683593 129.449219-80.800781 132.945313zm0 0"
          fill="#015081"/>
    <path d="m392.679688 456.402344c0 13.429687-10.886719 24.3125-24.316407 24.3125h-235.078125c-19.03125-10.414063-36.589844-23.179688-52.296875-37.902344 4.371094-6.472656 11.773438-10.730469 20.167969-10.730469h267.207031c13.429688.003907 24.316407 10.890625 24.316407 24.320313zm-283.132813-44.117188h240.011719c7.261718 0 13.152344-5.890625 13.152344-13.152344 0-7.265624-5.890626-13.15625-13.152344-13.15625h-240.011719c-7.265625 0-13.152344 5.890626-13.152344 13.15625 0 7.261719 5.886719 13.152344 13.152344 13.152344zm29.453125-303.0625h113.476562c5.207032 0 9.753907 3.929688 10.089844 9.125.367188 5.695313-4.140625 10.429688-9.753906 10.429688h-78.75c-7.558594 0-13.6875 6.125-13.6875 13.6875 0 7.558594 6.128906 13.6875 13.6875 13.6875h25.523438c.773437 0 1.527343-.082032 2.265624-.203125h72.996094c11.046875 0 20-8.957031 20-20v-1.644531c0-1.921876-.285156-3.769532-.789062-5.527344h9.085937c20.125 0 36.4375-16.3125 36.4375-36.4375 0-1.019532 0-4.042969 0-4.570313v-53.324219c0-5.402343-4.375-9.777343-9.773437-9.777343h-34.585938c-5.398437 0-9.777344 4.375-9.777344 9.777343 0 11.847657-9.605468 21.453126-21.457031 21.453126h-.292969c-11.847656 0-21.457031-9.605469-21.457031-21.453126 0-5.402343-4.375-9.777343-9.773437-9.777343h-34.585938c-5.398437 0-9.773437 4.375-9.773437 9.777343 0 11.847657-9.605469 21.453126-21.457031 21.453126h-.292969c-11.851563 0-21.457031-9.605469-21.457031-21.453126 0-5.402343-4.378907-9.777343-9.777344-9.777343h-9.402344c-5.398438 0-9.773438 4.375-9.773438 9.777343v53.320313c0 .03125.003907.109375.011719.226563.929688 12 11.003907 21.230468 23.042969 21.230468zm0 0"
          fill="#056099"/>
    <path d="m443.972656 429.765625c-43.882812 47.449219-105.492187 78.253906-174.316406 81.871094-12.003906-2.03125-21.152344-12.472657-21.152344-25.054688 0-13.789062 10.984375-25.007812 24.683594-25.398437-3.472656-3.527344-5.617188-8.363282-5.617188-13.707032 0-9.484374 6.757813-17.390624 15.722657-19.171874l37.539062-125.125c-22.558593-13.722657-37.621093-38.535157-37.621093-66.867188 0-37.753906 26.753906-69.257812 62.339843-76.59375-2.308593-3.207031-3.683593-7.132812-3.683593-11.390625 0-10.796875 8.753906-19.550781 19.550781-19.550781 10.800781 0 19.554687 8.753906 19.554687 19.550781 0 4.257813-1.375 8.183594-3.683594 11.390625 35.585938 7.335938 62.339844 38.839844 62.339844 76.59375 0 28.332031-15.066406 53.144531-37.621094 66.867188l37.539063 125.125c1.550781.308593 3.03125.8125 4.425781 1.460937zm0 0"
          fill="#fdf385"/>
    <path d="m402.007812 303.175781 22.183594 73.945313c5.207032 17.355468-7.621094 35.0625-25.742187 35.164062-.125 0-.25 0-.375 0-43.851563 0-75.304688-42.273437-62.703125-84.273437 2.597656-8.664063 10.855468-14.449219 19.871094-13.730469 2.039062.160156 4.097656.242188 6.175781.242188 14.863281 0 28.757812-4.148438 40.589843-11.347657zm-114.398437 172.652344c0 8.097656 6.566406 14.664063 14.664063 14.664063h56.550781c17.9375-7.875 34.808593-17.734376 50.3125-29.328126h-106.863281c-8.097657 0-14.664063 6.566407-14.664063 14.664063zm148.109375-47.902344h-118.78125c-5.398438 0-9.773438 4.375-9.773438 9.777344 0 5.398437 4.375 9.773437 9.773438 9.773437h108.957031c6.316407-5.605468 12.347657-11.515624 18.078125-17.710937-2.507812-1.171875-5.300781-1.839844-8.253906-1.839844zm-47.671875-154.578125c21.460937.179688 40.324219-10.957031 51.019531-27.789062.359375-3.03125.5625-6.113282.5625-9.246094 0-24.433594-11.207031-46.25-28.761718-60.589844-32.59375-26.621094-82.097657-4.28125-82.109376 37.800782 0 .609374.007813 1.21875.027344 1.832031.941406 31.929687 27.320313 57.722656 59.261719 57.992187zm0 0"
          fill="#fdf7bd"/>
</svg>
