<svg height="512pt" viewBox="0 0 512 512" width="512pt" xmlns="http://www.w3.org/2000/svg">
    <path d="m256 0c141.386719 0 256 114.613281 256 256s-114.613281 256-256 256-256-114.613281-256-256 114.613281-256 256-256zm0 0"
          fill="#ade8f0"/>
    <path d="m468.644531 334.515625c-253.917969 27.011719-435.503906-159.941406-428.445312-323.929687.121093-2.816407 2.539062-4.984376 5.351562-4.789063 245.597657 16.851563 454.226563 54.332031 423.09375 328.71875zm0 0"
          fill="#7ecd00"/>
    <path d="m469.089844 330.371094c-.148438 1.378906-.289063 2.753906-.445313 4.144531-253.917969 27.011719-435.503906-159.941406-428.445312-323.929687.121093-2.816407 2.539062-4.984376 5.351562-4.789063 5.066407.347656 10.117188.703125 15.152344 1.070313 28.75 155.015624 181 313.199218 408.386719 323.503906zm0 0"
          fill="#6bae01"/>
    <path d="m471.421875 394.359375c-22.472656-81.398437-77.125-152.253906-153.625-193.753906-5.523437-2.996094-7.570313-9.902344-4.574219-15.421875 2.992188-5.523438 9.894532-7.570313 15.421875-4.574219 56.128907 30.449219 102.375 76.039063 133.730469 131.835937 9.804688 17.453126 17.96875 35.632813 24.476562 54.339844-4.585937 9.535156-9.746093 18.738282-15.429687 27.574219zm0 0"
          fill="#5a9001"/>
    <path d="m236.097656 401.527344v42.953125c7.3125 5.863281 12 14.867187 12 24.972656v42.414063c-22.15625-.671876-43.605468-4.160157-64-10.121094v-32.292969c0-10.105469 4.6875-19.109375 12-24.972656v-40.253907c-86.988281-4.625-156.097656-76.617187-156.097656-164.757812 0-91.128906 73.871094-165 165-165s165 73.871094 165 165c0 80.496094-57.644531 147.511719-133.902344 162.058594zm0 0"
          fill="#012d4e"/>
    <path d="m248.066406 468.039062c.023438.46875.03125.9375.03125 1.410157v42.417969c-13.277344-.402344-26.300781-1.816407-39-4.167969v-38.25c0-.472657.011719-.941407.03125-1.410157 1.058594-24.351562 37.882813-24.351562 38.9375 0zm-19.84375-391.9375c-80.128906 11.289063-141.777344 80.125-141.777344 163.367188 0 81.125 58.546876 148.5625 135.695313 162.390625 4.019531.71875 8.144531.71875 12.164063 0 77.144531-13.828125 135.695312-81.265625 135.695312-162.390625 0-83.242188-61.648438-152.078125-141.777344-163.367188zm0 0"
          fill="#015081"/>
    <path d="m333.332031 239.46875c0 70.875-57.457031 128.332031-128.332031 128.332031s-128.332031-57.457031-128.332031-128.332031c0-70.878906 57.453125-128.332031 128.332031-128.332031s128.332031 57.457031 128.332031 128.332031zm0 0"
          fill="#0995a3"/>
    <path d="m333.332031 239.46875c0 70.875-57.457031 128.332031-128.332031 128.332031-3.933594 0-7.820312-.1875-11.664062-.53125-34.929688-27.300781-58-74.339843-58-127.800781s23.070312-100.5 58-127.800781c3.84375-.347657 7.730468-.53125 11.664062-.53125 70.878906 0 128.332031 57.457031 128.332031 128.332031zm0 0"
          fill="#2abbc7"/>
    <path d="m185 148c6.628906 0 12 5.371094 12 12s-5.371094 12-12 12-12-5.371094-12-12 5.371094-12 12-12zm30 64c6.628906 0 12-5.371094 12-12s-5.371094-12-12-12-12 5.371094-12 12 5.371094 12 12 12zm-21 56c-6.628906 0-12 5.371094-12 12s5.371094 12 12 12 12-5.371094 12-12-5.371094-12-12-12zm21 64.25c6.628906 0 12-5.371094 12-12s-5.371094-12-12-12-12 5.371094-12 12 5.371094 12 12 12zm-10-221.113281c-24.558594 0-47.5 6.898437-67.003906 18.863281h134.007812c-19.503906-11.964844-42.445312-18.863281-67.003906-18.863281zm40.191406 128.332031c11.539063-6.054688 22.113282-14.757812 31.203125-25.867188 13.171875-16.097656 22.113281-35.941406 26.152344-57.515624-5.398437-6.3125-11.402344-12.097657-17.917969-17.257813-.28125 3.785156-.714844 7.519531-1.328125 11.171875h-62.960937c-5.324219 0-9.976563 4.019531-10.320313 9.335938-.375 5.824218 4.238281 10.664062 9.980469 10.664062h58.128906c-2.546875 7.144531-5.742187 13.851562-9.496094 20h-18.289062c-5.328125 0-9.976562 4.019531-10.320312 9.335938-.378907 5.824218 4.234374 10.664062 9.976562 10.664062h2.371094c-13.269532 12.230469-29.65625 19.46875-47.371094 19.46875s-34.101562-7.238281-47.371094-19.46875h22.027344c5.328125 0 9.976562-4.019531 10.320312-9.335938.378907-5.824218-4.234374-10.664062-9.976562-10.664062h-38.632812c-3.753907-6.148438-6.949219-12.855469-9.496094-20h17.785156c5.328125 0 9.976562-4.019531 10.320312-9.335938.378907-5.824218-4.234374-10.664062-9.976562-10.664062h-23.300781c-.613281-3.652344-1.046875-7.386719-1.328125-11.171875-6.515625 5.164063-12.519532 10.945313-17.921875 17.257813 4.039062 21.574218 12.984375 41.417968 26.15625 57.515624 9.089843 11.109376 19.664062 19.8125 31.203125 25.867188-11.539063 6.054688-22.113282 14.757812-31.203125 25.867188-13.171875 16.101562-22.117188 35.941406-26.15625 57.515624 5.398437 6.308594 11.398437 12.085938 17.910156 17.25.253906-3.417968.644531-6.789062 1.167969-10.101562h53.472656c5.523438 0 10-4.476562 10-10s-4.476562-10-10-10h-48.5c2.460938-7.132812 5.566406-13.835938 9.222656-20h19.277344c5.523438 0 10-4.476562 10-10s-4.476562-10-10-10h-3.5c13.464844-12.871094 30.277344-20.53125 48.5-20.53125s35.035156 7.660156 48.5 20.53125h-23.5c-5.523438 0-10 4.476562-10 10s4.476562 10 10 10h39.277344c3.65625 6.164062 6.761718 12.867188 9.222656 20h-28.5c-5.523438 0-10 4.476562-10 10s4.476562 10 10 10h33.472656c.523438 3.3125.910156 6.683594 1.167969 10.101562 6.511719-5.164062 12.507813-10.941406 17.90625-17.25-4.039063-21.574218-12.980469-41.417968-26.152344-57.515624-9.089843-11.109376-19.664062-19.8125-31.203125-25.867188zm-40.191406 128.332031c23.816406 0 46.113281-6.496093 65.230469-17.800781h-130.460938c19.117188 11.304688 41.414063 17.800781 65.230469 17.800781zm0 0"
          fill="#fdf7bd"/>
</svg>
