<svg height="512pt" viewBox="0 0 512 512.00032" width="512pt" xmlns="http://www.w3.org/2000/svg">
    <path d="m67.191406 421.140625c-1.875 2.050781-5.132812 1.96875-6.921875-.15625-37.597656-44.558594-60.269531-102.117187-60.269531-164.984375 0-141.25 114.394531-255.777344 255.589844-256 140.910156-.21875 256.128906 114.566406 256.410156 255.476562.128906 64.976563-23.957031 124.3125-63.730469 169.523438-46.914062-53.332031-115.65625-87-192.269531-87-74.75 0-142.003906 32.046875-188.808594 83.140625zm0 0"
          fill="#fd3d96"/>
    <path d="m451.578125 210-.425781 211.664062c-46.957032 55.261719-116.953125 90.335938-195.152344 90.335938-78.667969 0-149.039062-35.496094-196-91.335938 0 0 .15625-258.027343.421875-259.148437v-67.601563c0-24.253906 19.664063-43.914062 43.914063-43.914062h317.242187c16.566406 0 30 13.429688 30 30zm0 0"
          fill="#a7dde2"/>
    <path d="m103.34375 440.507812c43.230469 41.582032 101.03125 68.109376 164.992188 71.171876-4.085938.203124-8.199219.320312-12.335938.320312-78.667969 0-149.039062-35.496094-196-91.335938 0 0 .15625-258.027343.421875-259.148437v-96.515625c0-8.285156 6.71875-15 15-15 0 0 18.140625 1.171875 15.601563 3.140625-3.539063 2.742187-5.816407 7.035156-5.816407 11.859375v96.515625c-.21875.910156-.363281 171.839844-.40625 235.5625-.011719 16.402344 6.722657 32.058594 18.542969 43.429687zm0 0"
          fill="#75ccd4"/>
    <path d="m130 225v-10c0-2.761719 2.238281-5 5-5h220c2.761719 0 5 2.238281 5 5v10c0 2.761719-2.238281 5-5 5h-220c-2.761719 0-5-2.238281-5-5zm5-35h140c2.761719 0 5-2.238281 5-5v-10c0-2.761719-2.238281-5-5-5h-140c-2.761719 0-5 2.238281-5 5v10c0 2.761719 2.238281 5 5 5zm0-50h50c2.761719 0 5-2.238281 5-5v-10c0-2.761719-2.238281-5-5-5h-50c-2.761719 0-5 2.238281-5 5v10c0 2.761719 2.238281 5 5 5zm180 220h-180c-2.761719 0-5 2.238281-5 5v10c0 2.761719 2.238281 5 5 5h180c2.761719 0 5-2.238281 5-5v-10c0-2.761719-2.238281-5-5-5zm90-80h-270c-2.761719 0-5 2.238281-5 5v10c0 2.761719 2.238281 5 5 5h270c2.761719 0 5-2.238281 5-5v-10c0-2.761719-2.238281-5-5-5zm0 40h-270c-2.761719 0-5 2.238281-5 5v10c0 2.761719 2.238281 5 5 5h270c2.761719 0 5-2.238281 5-5v-10c0-2.761719-2.238281-5-5-5zm0 0"
          fill="#2abbc7"/>
    <path d="m462.609375 120.671875-366.386719-40.710937c-2.664062-.296876-4.679687-2.546876-4.679687-5.226563v-8.960937c.003906-8.710938-7.058594-15.773438-15.769531-15.773438h360.324218c9.691406 0 18.128906 6.625 20.429688 16.039062l11.765625 48.160157c.871093 3.546875-2.054688 6.875-5.683594 6.472656zm0 0"
          fill="#fff5f5"/>
    <path d="m509.070312 382.425781-92.929687 92.929688c-4.878906 4.882812-11.277344 7.324219-17.675781 7.324219-6.398438 0-12.796875-2.441407-17.679688-7.324219l-52.929687-52.929688c-3.902344-3.902343-3.902344-10.234375 0-14.140625l21.214843-21.210937c3.90625-3.90625 10.238282-3.90625 14.140626 0l31.71875 31.714843c1.953124 1.953126 5.117187 1.953126 7.070312 0l71.714844-71.714843c3.90625-3.90625 10.238281-3.90625 14.140625 0l21.214843 21.210937c3.90625 3.90625 3.90625 10.234375 0 14.140625zm0 0"
          fill="#015081"/>
    <path d="m509.070312 368.285156c3.90625 3.902344 3.90625 10.234375 0 14.140625l-92.929687 92.929688c-4.878906 4.878906-11.277344 7.320312-17.675781 7.320312-6.398438 0-12.796875-2.441406-17.679688-7.320312l-52.929687-52.929688c-3.902344-3.90625-3.902344-10.238281 0-14.140625l9.269531-9.269531 43.660156 43.660156c4.882813 4.882813 11.28125 7.324219 17.679688 7.324219 6.398437 0 12.796875-2.441406 17.675781-7.324219l83.664063-83.660156zm0 0"
          fill="#013f69"/>
</svg>
