<svg height="512pt" viewBox="0 0 512 512" width="512pt" xmlns="http://www.w3.org/2000/svg">
    <path d="m512 256c0 141.386719-114.613281 256-256 256-127.539062 0-233.28125-93.269531-252.769531-215.320312 9.792969-9.777344 16.019531-24.414063 16.019531-40.78125 0-16.351563-6.214844-30.972657-15.992188-40.75 19.5625-121.964844 125.265626-215.148438 252.742188-215.148438 141.386719 0 256 114.613281 256 256zm0 0"
          fill="#ade8f0"/>
    <path d="m511.613281 270c.25-4.636719.386719-9.300781.386719-14 0-2.007812-.03125-4.003906-.074219-6h-108.558593l-61.941407-107.285156 95.644531-95.644532-14.140624-14.140624-92.449219 92.445312h-149.894531l-71.953126 124.625h-108.5585932c-.0429688 1.996094-.0742188 3.992188-.0742188 6 0 4.699219.136719 9.363281.386719 14h112.863281l67.335938 116.625h142.789062l-.445312.445312 79.15625 79.160157c5.53125-3.851563 10.910156-7.90625 16.113281-12.171875l-79.703125-79.703125 60.25-104.355469zm-191.746093 96.625h-127.734376l-62.132812-107.617188v-6.015624l62.132812-107.613282h127.734376l63.871093 110.621094zm0 0"
          fill="#2ed0e1"/>
    <path d="m373 133.5c0 24.851562-20.148438 45-45 45s-45-20.148438-45-45 20.148438-45 45-45 45 20.148438 45 45zm-45 198c-24.851562 0-45 20.148438-45 45s20.148438 45 45 45 45-20.148438 45-45-20.148438-45-45-45zm-207-120.601562c-24.851562 0-45 20.148437-45 45 0 24.855468 20.148438 45 45 45s45-20.144532 45-45c0-24.851563-20.148438-45-45-45zm0 0"
          fill="#015081"/>
    <path d="m341.5 176.4375c-4.261719 1.339844-8.796875 2.0625-13.5 2.0625-24.851562 0-45-20.148438-45-45s20.148438-45 45-45c4.703125 0 9.238281.722656 13.5 2.0625-18.257812 5.734375-31.5 22.789062-31.5 42.9375s13.242188 37.203125 31.5 42.9375zm-207 36.527344c-4.261719-1.339844-8.796875-2.066406-13.5-2.066406-24.851562 0-45 20.148437-45 45 0 24.855468 20.148438 45 45 45 4.703125 0 9.238281-.722657 13.5-2.0625-18.257812-5.734376-31.5-22.785157-31.5-42.9375 0-20.148438 13.242188-37.199219 31.5-42.933594zm207 120.597656c-4.261719-1.339844-8.796875-2.0625-13.5-2.0625-24.851562 0-45 20.148438-45 45s20.148438 45 45 45c4.703125 0 9.238281-.722656 13.5-2.0625-18.257812-5.734375-31.5-22.789062-31.5-42.9375s13.242188-37.203125 31.5-42.9375zm0 0"
          fill="#013f69"/>
    <path d="m30 255.898438c0 18.339843-10.976562 34.109374-26.714844 41.117187-2.148437-13.355469-3.285156-27.050781-3.285156-41.015625 0-14.027344 1.144531-27.785156 3.316406-41.203125 15.71875 7.019531 26.683594 22.773437 26.683594 41.101563zm154 75.601562c-24.851562 0-45 20.148438-45 45s20.148438 45 45 45 45-20.148438 45-45-20.148438-45-45-45zm231.75-330.75c-24.851562 0-45 20.148438-45 45s20.148438 45 45 45 45-20.148438 45-45-20.148438-45-45-45zm-24.75 210.148438c-24.851562 0-45 20.148437-45 45 0 24.855468 20.148438 45 45 45s45-20.144532 45-45c0-24.851563-20.148438-45-45-45zm-207-122.398438c-24.851562 0-45 20.148438-45 45s20.148438 45 45 45 45-20.148438 45-45-20.148438-45-45-45zm0 0"
          fill="#fd3d96"/>
    <path d="m429.25 88.6875c-4.261719 1.339844-8.796875 2.0625-13.5 2.0625-24.851562 0-45-20.148438-45-45s20.148438-45 45-45c4.703125 0 9.238281.722656 13.5 2.0625-18.257812 5.734375-31.5 22.789062-31.5 42.9375s13.242188 37.203125 31.5 42.9375zm-231.75 244.875c-4.261719-1.339844-8.796875-2.0625-13.5-2.0625-24.851562 0-45 20.148438-45 45s20.148438 45 45 45c4.703125 0 9.238281-.722656 13.5-2.0625-18.257812-5.734375-31.5-22.789062-31.5-42.9375s13.242188-37.203125 31.5-42.9375zm0-243c-4.261719-1.339844-8.796875-2.0625-13.5-2.0625-24.851562 0-45 20.148438-45 45s20.148438 45 45 45c4.703125 0 9.238281-.722656 13.5-2.0625-18.257812-5.734375-31.5-22.789062-31.5-42.9375s13.242188-37.203125 31.5-42.9375zm207 122.402344c-4.261719-1.339844-8.796875-2.066406-13.5-2.066406-24.851562 0-45 20.148437-45 45 0 24.855468 20.148438 45 45 45 4.703125 0 9.238281-.722657 13.5-2.0625-18.257812-5.734376-31.5-22.785157-31.5-42.9375 0-20.148438 13.242188-37.199219 31.5-42.933594zm0 0"
          fill="#e31e7f"/>
</svg>
