<svg height="512pt" viewBox="0 0 512.00016 512" width="512pt" xmlns="http://www.w3.org/2000/svg">
    <path d="m444.699219 428.980469c-46.296875 50.484375-112.578125 82.335937-186.316407 83.007812-142.609374 1.300781-257.800781-112.3125-258.37890575-254.925781-.35937525-87.667969 43.36328175-165.136719 110.26171875-211.539062 15.726563-10.910157 37.234375.386718 37.234375 19.523437v322.453125c0 2.761719 2.238281 5 5 5h276.160156c18.9375 0 28.84375 22.519531 16.039063 36.480469zm0 0"
          fill="#a1e52e"/>
    <path d="m464.082031 405.113281c-6.257812 8.722657-13.046875 17.035157-20.328125 24.886719h-328.753906c-2.761719 0-5-2.238281-5-5v-379.289062c8-5.566407 16.332031-10.683594 24.960938-15.324219 5.667968-3.046875 12.539062 1.027343 12.539062 7.460937v349.652344c0 2.761719 2.238281 5 5 5h305.066406c6.484375 0 10.296875 7.34375 6.515625 12.613281zm0 0"
          fill="#7ecd00"/>
    <path d="m464.183594 405h-324.183594c-2.761719 0-5-2.238281-5-5v-369.644531c36.03125-19.363281 77.230469-30.355469 121-30.355469 141.386719 0 256 114.613281 256 256 0 55.585938-17.722656 107.027344-47.816406 149zm0 0"
          fill="#d3f1f5"/>
    <path d="m316 270h-120v-60h120zm0 0" fill="#75a5d3"/>
    <path d="m316 270h-120v-30h120zm0 0" fill="#5592ca"/>
    <path d="m90.710938 282.714844c7.808593 7.8125 7.808593 20.476562 0 28.285156l-56.570313 56.570312c-7.808594 7.808594-20.472656 7.808594-28.28125 0-7.8125-7.8125-7.8125-20.476562 0-28.285156l56.566406-56.570312c7.8125-7.808594 20.472657-7.808594 28.285157 0zm358.863281 0c-7.808594-7.808594-20.472657-7.808594-28.285157 0-7.808593 7.8125-7.808593 20.476562 0 28.285156l56.570313 56.570312c1.910156 1.910157 4.113281 3.34375 6.460937 4.320313 6.273438-12.332031 11.570313-25.242187 15.804688-38.625zm0 0"
          fill="#012d4e"/>
    <path d="m511.777344 245.785156c-3.375 51.875-46.71875 92.789063-99.40625 92.789063h-31.730469c-46.21875 0-86.503906-31.457031-97.714844-76.292969l-22.578125-90.3125c-.496094-1.996094-2.289062-3.394531-4.347656-3.394531s-3.851562 1.398437-4.347656 3.394531l-22.578125 90.3125c-11.210938 44.835938-51.496094 76.292969-97.714844 76.292969h-31.730469c-54.699218 0-99.382812-44.101563-99.62499975-98.800781-.00390625-.398438-.00390625-.800782-.00390625-1.199219 0-17.832031 1.75-35.121094 5.039062-51.574219 5.613282-28.121094 30.199219-48.425781 58.878907-48.425781h384.167969c17.601562 0 33.65625 7.660156 44.734374 20.074219 11.125 27.03125 17.75 56.386718 18.957032 87.136718zm0 0"
          fill="#015081"/>
    <path d="m129.628906 338.574219h-30c-54.742187 0-99.40625-44.167969-99.62499975-98.90625-.00390625-.367188-.00390625-.730469-.00390625-1.09375 0-17.832031 1.75-35.121094 5.039062-51.574219 5.613282-28.121094 30.199219-48.425781 58.878907-48.425781h30c-28.679688 0-53.265625 20.304687-58.878907 48.425781-3.289062 16.453125-5.039062 33.738281-5.039062 51.574219 0 .363281 0 .726562.003906 1.09375.21875 54.738281 44.882813 98.90625 99.625 98.90625zm0 0"
          fill="#013f69"/>
    <path d="m30.003906 239.546875-.003906-.972656c0-15.515625 1.5-30.890625 4.457031-45.699219 2.8125-14.082031 15.199219-24.300781 29.460938-24.300781h151.253906c3.253906 0 5.640625 3.058593 4.851563 6.210937l-20.054688 80.21875c-7.882812 31.542969-36.097656 53.570313-68.609375 53.570313h-31.730469c-38.238281 0-69.476562-30.964844-69.625-69.027344zm451.996094 0v-.972656c0-15.515625-1.5-30.894531-4.457031-45.699219-2.8125-14.082031-15.199219-24.300781-29.457031-24.300781h-151.257813c-3.253906 0-5.640625 3.054687-4.851563 6.210937l20.054688 80.21875c7.882812 31.542969 36.097656 53.570313 68.609375 53.570313h31.730469c38.238281 0 69.476562-30.964844 69.628906-69.027344zm0 0"
          fill="#0995a3"/>
    <path d="m63.917969 168.574219h151.253906c3.253906 0 5.640625 3.058593 4.851563 6.210937l-14.324219 57.304688c-14.929688 16.453125-36.414063 26.484375-59.859375 26.484375h-36.265625c-36.316407 0-67.082031-24.449219-76.550781-57.671875.433593-2.691406.902343-5.371094 1.433593-8.027344 2.8125-14.082031 15.199219-24.300781 29.460938-24.300781zm384.167969 0h-151.257813c-3.253906 0-5.640625 3.058593-4.851563 6.210937l14.324219 57.304688c14.929688 16.453125 36.414063 26.484375 59.859375 26.484375h36.265625c36.316407 0 67.082031-24.449219 76.550781-57.671875-.433593-2.691406-.902343-5.371094-1.429687-8.027344-2.8125-14.082031-15.203125-24.300781-29.460937-24.300781zm0 0"
          fill="#2abbc7"/>
</svg>
