<svg height="512pt" viewBox="0 0 512.00029 512" width="512pt" xmlns="http://www.w3.org/2000/svg">
    <path d="m0 256c0-139.800781 112.0625-253.429688 251.261719-255.9570312 142.121093-2.5820308 260.664062 113.6679692 260.738281 255.8164062.042969 78.203125-34.992188 148.21875-90.226562 195.203125-2.585938 2.199219-6.367188 2.289062-9.050782.207031-43.308594-33.582031-97.675781-53.585937-156.722656-53.585937-59.011719 0-113.351562 19.980468-156.648438 53.527344-2.726562 2.113281-6.566406 2.027343-9.195312-.207032-55.15625-46.957031-90.15625-116.890625-90.15625-195.003906zm0 0"
          fill="#fd5ca6"/>
    <path d="m503.214844 398.601562c11.714844 11.714844 11.714844 30.710938 0 42.425782l-26.292969 26.292968c-1.953125 1.953126-5.117187 1.953126-7.070313 0l-26.292968-26.292968c-11.714844-11.714844-11.714844-30.710938 0-42.425782l9.160156-9.160156c-5.074219-5.203125-8.207031-12.3125-8.207031-20.152344 0-12.433593 7.859375-23.027343 18.875-27.09375v-116.546874l-41.386719 26.671874v198.550782c-44.695312 38.109375-102.65625 61.128906-166 61.128906s-121.304688-23.019531-166-61.128906v-198.550782l-85.261719-54.953124c-6.316406-4.074219-6.316406-13.3125 0-17.386719l245.660157-158.332031c3.410156-2.199219 7.792968-2.199219 11.203124 0l245.660157 158.332031c6.316406 4.074219 6.316406 13.316406 0 17.386719l-23.878907 15.390624v129.4375c11.019532 4.066407 18.875 14.660157 18.875 27.09375 0 7.839844-3.132812 14.949219-8.207031 20.152344zm0 0"
          fill="#015081"/>
    <path d="m422 220v230.871094c-33.804688 28.820312-75.1875 49.015625-120.757812 57.140625-59.996094-.003907-114.871094-15.824219-157.097657-42.003907-5.53125-3.429687-8.871093-9.5-8.871093-16.007812v-250.96875c0-8.445312 5.300781-15.972656 13.242187-18.832031 32.371094-11.652344 68.863281-18.214844 107.484375-18.214844 60.007812 0 114.898438 15.824219 157.128906 42.007813 5.53125 3.429687 8.871094 9.5 8.871094 16.007812zm81.214844 178.601562-9.164063-9.160156c-.449219.460938-.914062.90625-1.394531 1.335938-.898438.804687-1.125 2.105468-.542969 3.164062 1.550781 2.828125 2.957031 6.179688 4.066407 9.863282 2.789062 9.261718 2.859374 17.832031.53125 21.71875-4.085938-1.957032-8.753907-9.140626-11.542969-18.402344-.800781-2.660156-1.375-5.253906-1.730469-7.703125-.21875-1.480469-1.675781-2.457031-3.128906-2.097657-.015625.003907-.035156.007813-.050782.011719-1.3125.324219-2.164062 1.5625-1.964843 2.898438.539062 3.582031.84375 7.59375.84375 11.832031 0 11.945312-2.402344 22.101562-5.75 25.871094-3.351563-3.769532-5.75-13.925782-5.75-25.871094 0-4.597656.355469-8.929688.984375-12.734375.136718-.835937-.414063-1.632813-1.246094-1.804687-.007812 0-.015625-.003907-.023438-.003907-.535156-.109375-1.085937.042969-1.472656.425781l-.65625.65625c-11.714844 11.714844-11.714844 30.710938.003906 42.429688l18.992188 18.992188 18.996094-18.996094c11.714844-11.714844 11.714844-30.710938 0-42.425782zm-20.042969-13.941406c7.070313 0 13.453125-2.917968 18.023437-7.609375.6875-2.472656 1.0625-5.074219 1.0625-7.761719 0-15.949218-12.925781-28.875-28.871093-28.875-2.691407 0-5.292969.375-7.761719 1.0625-4.695312 4.570313-7.613281 10.957032-7.613281 18.023438 0 13.894531 11.265625 25.160156 25.160156 25.160156zm0 0"
          fill="#056099"/>
</svg>
