<svg height="512pt" viewBox="0 0 512 512" width="512pt" xmlns="http://www.w3.org/2000/svg">
    <path d="m512 256c0 66.007812-24.980469 126.175781-66.003906 171.574219-10.882813 12.046875-23.023438 15.460937-35.996094 25.257812-14.71875 11.117188-30.550781 28.265625-47.503906 36.03125-32.425782 14.855469-68.492188 23.136719-106.496094 23.136719-141.386719 0-256-114.613281-256-256s114.613281-256 256-256 256 114.613281 256 256zm0 0"
          fill="#ade8f0"/>
    <path d="m492 276v59c0 16.570312-13.429688 30-30 30h-76v-35h66v-49c0-108.246094-87.753906-196-196-196s-196 87.753906-196 196v49h66v35h-76c-16.570312 0-30-13.429688-30-30v-59c0-130.339844 105.660156-236 236-236s236 105.660156 236 236zm0 0"
          fill="#0995a3"/>
    <path d="m58.746094 365h-8.746094c-16.570312 0-30-13.429688-30-30v-59c0-130.339844 105.660156-236 236-236 24.863281 0 48.824219 3.855469 71.328125 10.984375-14.046875-2.605469-28.523437-3.984375-43.328125-3.984375-130.339844 0-236 105.660156-236 236v59c0 9.238281 4.179688 17.496094 10.746094 23zm0 0"
          fill="#00808a"/>
    <path d="m387.769531 84.445312-32.382812 32.378907c-2.878907 2.882812-6.71875 4.394531-10.609375 4.394531-2.3125 0-4.640625-.53125-6.800782-1.632812-1.144531-.582032-2.292968-1.148438-3.445312-1.703126-4.292969-2.066406-9.148438-2.425781-13.804688-1.433593-1.6875.363281-3.433593.550781-5.226562.550781-7.136719 0-13.574219-2.988281-18.128906-7.785156-3.445313-3.628906-7.859375-6.210938-12.800782-6.988282-.207031-.03125-.417968-.0625-.625-.09375-5.066406-.777343-10.277343.273438-14.605468 3.011719-3.859375 2.441407-8.433594 3.855469-13.339844 3.855469s-9.480469-1.414062-13.339844-3.855469c-4.328125-2.738281-9.539062-3.789062-14.605468-3.011719-.207032.03125-.417969.0625-.625.09375-4.941407.773438-9.355469 3.359376-12.800782 6.988282-4.554687 4.796875-10.992187 7.785156-18.128906 7.785156-1.34375 0-2.664062-.105469-3.949219-.3125-6.023437-.960938-12.203125-.277344-17.652343 2.457031-.292969.144531-.585938.292969-.875.441407-5.792969 2.949218-12.820313 1.832031-17.410157-2.761719l-32.382812-32.378907c-2.460938-2.460937-4.144531-5.648437-4.539063-9.109374-.679687-5.976563 2.214844-11.617188 7.175782-14.597657 38.894531-23.382812 83.546874-35.738281 129.132812-35.738281s90.238281 12.355469 129.132812 35.738281c4.964844 2.980469 7.855469 8.621094 7.175782 14.597657-.394532 3.460937-2.078125 6.648437-4.539063 9.109374zm0 0"
          fill="#e31e7f"/>
    <path d="m256 25c31.179688 0 61.921875 5.785156 90.683594 16.921875 16.753906 6.488281 21.410156 27.976563 8.703125 40.683594-2.878907 2.878906-6.722657 4.394531-10.609375 4.394531-2.3125 0-4.640625-.535156-6.800782-1.632812-25.535156-12.996094-53.117187-19.585938-81.976562-19.585938s-56.441406 6.589844-81.976562 19.585938c-5.792969 2.949218-12.820313 1.832031-17.410157-2.761719-12.707031-12.707031-8.050781-34.195313 8.703125-40.683594 28.761719-11.136719 59.503906-16.921875 90.683594-16.921875zm0 0"
          fill="#fd3d96"/>
    <path d="m445.988281 427.585938c-23.230469 25.707031-51.601562 46.65625-83.496093 61.269531-5.4375-1.925781-10.007813-6.175781-12.136719-12.019531l-58.144531-159.75c-3.777344-10.378907 1.574218-21.855469 11.953124-25.632813l9.398438-3.421875c7.023438-2.554688 14.542969-.917969 19.847656 3.617188.761719-.394532 1.539063-.757813 2.367188-1.058594 35.027344-12.75 73.179687.496094 93.328125 29.882812l7.066406-2.574218c7.785156-2.832032 16.390625 1.179687 19.226563 8.964843l13.679687 37.589844c2.832031 7.785156-1.179687 16.390625-8.964844 19.226563l-7.066406 2.570312c1.398437 14.371094-1.175781 28.628906-7.058594 41.335938zm-226.199219-110.5-58.144531 159.75c-3.777343 10.378906-15.253906 15.730468-25.632812 11.953124l-9.398438-3.421874c-7.023437-2.554688-11.734375-8.644532-12.878906-15.527344-.835937-.1875-1.667969-.410156-2.492187-.707032-35.03125-12.75-55.742188-47.421874-52.285157-82.882812l-7.066406-2.570312c-7.785156-2.835938-11.800781-11.441407-8.964844-19.226563l13.679688-37.589844c2.832031-7.785156 11.441406-11.796875 19.226562-8.964843l7.066407 2.574218c20.144531-29.386718 58.300781-42.632812 93.328124-29.882812.824219.300781 1.605469.664062 2.363282 1.058594 5.304687-4.539063 12.824218-6.171876 19.851562-3.617188l9.394532 3.421875c10.378906 3.777344 15.730468 15.253906 11.953124 25.632813zm0 0"
          fill="#c2186c"/>
    <path d="m438.3125 338.402344 10.261719 28.191406c3.59375 9.875 5.121093 19.992188 4.804687 29.886719-29.601562 7.703125-60.773437-8.234375-71.449218-37.554688l-26.5-72.808593c35.464843-3.457032 70.132812 17.257812 82.882812 52.285156zm-259.722656-46.753906c-.761719-.394532-1.539063-.757813-2.367188-1.058594-15.632812-5.691406-31.886718-6.199219-46.886718-2.40625-6 7.050781-10.875 15.265625-14.230469 24.476562l-10.257813 28.191406c-9.28125 25.496094-4.773437 52.628907 9.699219 73.277344 4.632813 6.613282 14.808594 5.234375 17.570313-2.351562l40.6875-111.789063c1.21875-3.355469 3.253906-6.175781 5.785156-8.339843zm201.234375 163.820312c-7.785157 2.832031-16.390625-1.183594-19.226563-8.964844l-53.011718-145.652344c-1.246094-3.429687-1.480469-6.96875-.886719-10.320312l6.863281-2.5c10.378906-3.777344 21.855469 1.574219 25.632812 11.953125l49.59375 136.257813c2.832032 7.785156-1.179687 16.390624-8.964843 19.226562zm-160.035157-138.382812-47.660156 130.945312c-3.34375 6.765625-11.3125 10.078125-18.566406 7.4375-7.785156-2.835938-11.796875-11.441406-8.964844-19.226562l49.59375-136.257813c1.648438-4.523437 4.757813-8.09375 8.605469-10.367187l5.039063 1.835937c10.378906 3.777344 15.730468 15.253906 11.953124 25.632813zm0 0"
          fill="#fd3d96"/>
</svg>
