<svg height="512pt" viewBox="0 0 512 512" width="512pt" xmlns="http://www.w3.org/2000/svg">
    <path d="m512 256c0 141.386719-114.613281 256-256 256s-256-114.613281-256-256 114.613281-256 256-256 256 114.613281 256 256zm0 0"
          fill="#a1e52e"/>
    <path d="m66.117188 177.085938v18.9375c0 2.617187-2.117188 4.738281-4.734376 4.738281h-17.042968v17.042969c0 2.617187-2.121094 4.734374-4.738282 4.734374h-18.9375c-2.617187 0-4.734374-2.117187-4.734374-4.734374v-17.042969h-9.933594c2.128906-9.6875 4.804687-19.171875 7.996094-28.410157h1.933593v-5.410156c2.0625-5.546875 4.296875-11.011718 6.722657-16.371094h16.953124c2.617188 0 4.738282 2.117188 4.738282 4.734376v17.046874h17.042968c2.617188 0 4.734376 2.117188 4.734376 4.734376zm390.875 189.007812c-1.226563-3.078125-4.203126-5.09375-7.515626-5.09375h-27.125c-3.308593 0-6.28125 2.015625-7.511718 5.085938l-48.363282 120.90625c18.078126-8.660157 34.96875-19.386719 50.390626-31.863282-1.265626-.5625-1.976563-2.046875-1.414063-3.449218l17.960937-44.902344c.902344-2.261719 4.101563-2.261719 5.007813 0l8.085937 20.210937c8.34375-9.292969 16.019532-19.199219 22.949219-29.644531zm0 0"
          fill="#7ecd00"/>
    <path d="m302.460938 4.21875c-15.070313-2.765625-30.59375-4.21875-46.460938-4.21875-.167969 0-.335938.0078125-.503906.0078125l-61.253906 153.1367185c-1.3125 3.28125 1.105468 6.855469 4.644531 6.855469h20.691406c4.089844 0 7.769531-2.488281 9.285156-6.285156l13.714844-34.285156c.410156-1.023438 1.402344-1.695313 2.503906-1.695313h66.121094c1.105469 0 2.097656.671875 2.507813 1.695313l13.710937 34.285156c1.519531 3.796875 5.195313 6.285156 9.285156 6.285156h20.515625c3.535156 0 5.953125-3.570312 4.644532-6.851562zm-6.355469 81.160156h-35.921875c-1.910156 0-3.210938-1.929687-2.503906-3.699218l17.960937-44.902344c.902344-2.257813 4.101563-2.257813 5.007813 0l17.960937 44.902344c.707031 1.769531-.597656 3.699218-2.503906 3.699218zm133.894531-17.132812v17.777344c0 2.617187-2.121094 4.738281-4.734375 4.738281h-17.046875v17.042969c0 2.617187-2.121094 4.734374-4.734375 4.734374h-18.941406c-2.613281 0-4.734375-2.117187-4.734375-4.734374v-17.042969h-17.046875c-2.613281 0-4.734375-2.121094-4.734375-4.734375v-18.941406c0-2.613282 2.121094-4.734376 4.734375-4.734376h17.046875v-17.046874c0-2.617188 2.121094-4.734376 4.734375-4.734376h9.800781c4.734375 3.046876 9.359375 6.25 13.875 9.59375v12.1875h15.222656c2.222656 1.921876 4.402344 3.894532 6.558594 5.894532zm0 0"
          fill="#6bae01"/>
    <path d="m266.078125 434.828125v15.734375c0 2.171875-1.757813 3.929688-3.929687 3.929688h-14.160157v14.160156c0 2.171875-1.761719 3.933594-3.933593 3.933594h-15.730469c-2.171875 0-3.933594-1.761719-3.933594-3.933594v-14.160156h-14.160156c-2.171875 0-3.929688-1.757813-3.929688-3.929688v-15.734375c0-2.171875 1.757813-3.933594 3.929688-3.933594h14.160156v-14.15625c0-2.171875 1.761719-3.933593 3.933594-3.933593h15.730469c2.171874 0 3.933593 1.761718 3.933593 3.933593v14.15625h14.160157c2.171874 0 3.929687 1.761719 3.929687 3.933594zm-56.589844 71.484375c.203125.507812.296875 1.023438.296875 1.527344-10.796875-1.96875-21.359375-4.617188-31.640625-7.894532l-8.65625-21.640624c-.339843-.851563-1.164062-1.40625-2.078125-1.40625h-40.875c-12.261718-7.203126-23.875-15.402344-34.71875-24.472657l30.625-76.570312c1.019532-2.550781 3.492188-4.222657 6.238282-4.222657h22.53125c2.75 0 5.222656 1.675782 6.242187 4.230469zm-52.542969-59.363281-14.917968-37.292969c-.75-1.878906-3.40625-1.878906-4.15625 0l-14.917969 37.292969c-.589844 1.472656.492187 3.070312 2.078125 3.070312h29.835938c1.585937 0 2.667968-1.597656 2.078124-3.070312zm0 0"
          fill="#3180c2"/>
    <path d="m512 221.597656v42.542969c0 5.871094-4.761719 10.632813-10.636719 10.632813h-46.289062v44.589843c0 5.875-4.761719 10.636719-10.632813 10.636719h-42.542968c-5.875 0-10.636719-4.761719-10.636719-10.636719v-44.589843h-48.625c-5.875 0-10.636719-4.761719-10.636719-10.632813v-42.542969c0-5.875 4.761719-10.636718 10.636719-10.636718h48.625v-50.324219c0-5.875 4.761719-10.636719 10.636719-10.636719h42.542968c5.871094 0 10.632813 4.761719 10.632813 10.636719v50.324219h46.289062c5.875 0 10.636719 4.761718 10.636719 10.636718zm-157.660156 201.859375c2.617187 6.566407-2.21875 13.703125-9.289063 13.703125h-43.417969c-6.132812 0-11.648437-3.734375-13.925781-9.429687l-40.648437-101.617188c-.324219-.808593-1.105469-1.335937-1.972656-1.335937h-134.722657c-.871093 0-1.652343.527344-1.972656 1.335937l-40.648437 101.617188c-.160157.398437-.339844.785156-.527344 1.160156-17.382813-18.96875-31.9375-40.570313-43.011719-64.136719l111.953125-279.886718c2.421875-6.058594 8.289062-10.027344 14.8125-10.027344h53.5c6.527344 0 12.398438 3.976562 14.816406 10.042968zm-134.507813-165.410156-37.171875-92.929687c-1.78125-4.457032-8.089844-4.457032-9.875 0l-37.171875 92.929687c-.558593 1.394531.472657 2.914063 1.976563 2.914063h80.265625c1.507812 0 2.535156-1.519532 1.976562-2.914063zm0 0"
          fill="#fd3d96"/>
    <path d="m150.96875 74.839844h30c-6.523438 0-12.390625 3.972656-14.8125 10.027344l-124.46875 311.175781c-6.527344-9.96875-12.375-20.417969-17.484375-31.289063l111.953125-279.886718c2.421875-6.054688 8.289062-10.027344 14.8125-10.027344zm255.820312 175.160156h-36.789062c-5.523438 0-10-4.476562-10-10v-29.039062h-17.363281c-5.875 0-10.636719 4.761718-10.636719 10.636718v42.542969c0 5.875 4.761719 10.636719 10.636719 10.636719h48.625v44.585937c0 5.875 4.761719 10.636719 10.636719 10.636719h14.890624v-70c0-5.523438-4.476562-10-10-10zm0 0"
          fill="#e31e7f"/>
</svg>
