<svg height="512pt" viewBox="0 0 512.00021 512" width="512pt" xmlns="http://www.w3.org/2000/svg">
    <path d="m260 502.214844c0 5.453125-4.484375 9.839844-9.9375 9.71875h-.0625c-138.613281-3.191406-250-116.554688-250-255.933594 0-141.289062 114.457031-255.84375 255.710938-256 139.792968-.15625 254.488281 112.882812 256.269531 252.667969 1.023437 80.484375-35.109375 152.554687-92.316407 200.171875-5.59375 4.65625-12.671874 7.160156-19.949218 7.160156h-97.5c-23.316406 0-42.214844 18.898438-42.214844 42.214844zm0 0"
          fill="#e8ce00"/>
    <path d="m60 120c0-60.75 49.25-110 110-110s110 49.25 110 110v110h-110c-60.75 0-110-49.25-110-110zm0 0"
          fill="#d3f1f5"/>
    <path d="m280 200v30h-110c-60.75 0-110-49.25-110-110 0-29.042969 11.261719-55.453125 29.648438-75.113281-6.199219 13.765625-9.648438 29.035156-9.648438 45.113281 0 60.75 49.25 110 110 110zm0 0"
          fill="#ade8f0"/>
    <path d="m200 20v100c0 11.046875-8.953125 20-20 20h-20c-11.046875 0-20-8.953125-20-20v-100c0-11.046875 8.953125-20 20-20h20c11.046875 0 20 8.953125 20 20zm-30 140c-16.570312 0-30 13.433594-30 30s13.429688 30 30 30 30-13.433594 30-30-13.429688-30-30-30zm0 0"
          fill="#fd3d96"/>
    <path d="m180 140h-20c-11.046875 0-20-8.953125-20-20v-100c0-11.046875 8.953125-20 20-20h20c-11.046875 0-20 8.953125-20 20v100c0 11.046875 8.953125 20 20 20zm0 21.714844c-3.128906-1.105469-6.492188-1.714844-10-1.714844-16.570312 0-30 13.433594-30 30s13.429688 30 30 30c3.507812 0 6.871094-.609375 10-1.714844-11.652344-4.117187-20-15.222656-20-28.285156s8.347656-24.167969 20-28.285156zm0 0"
          fill="#e31e7f"/>
    <path d="m420 230.480469v91.492187c0 11.886719-3.558594 23.507813-10.222656 33.359375-6.550782 9.6875-9.777344 21.246094-9.777344 32.941407v71.726562h-130v-71.582031c0-4.8125-1.480469-9.507813-4.242188-13.449219l-73.949218-105.613281c-3.167969-4.523438-2.066406-10.757813 2.457031-13.925781 13.570313-9.503907 32.277344-6.207032 41.78125 7.367187l18.085937 25.828125c.605469.863281 1.589844 1.375 2.640626 1.375 1.78125 0 3.226562-1.441406 3.226562-3.222656v-136.777344c0-11.289062 9.351562-20.390625 20.726562-19.988281 10.839844.386719 19.273438 9.625 19.273438 20.46875v47.792969c0 .953124.773438 1.726562 1.726562 1.726562.597657 0 1.140626-.320312 1.46875-.824219 3.679688-5.707031 10.179688-9.421875 17.535157-9.164062 10.125.363281 18.136719 8.453125 19.144531 18.359375.09375.925781.871094 1.628906 1.800781 1.628906.628907 0 1.203125-.335938 1.546875-.867188 3.6875-5.679687 10.167969-9.378906 17.507813-9.121093 10.125.363281 18.136719 8.453125 19.144531 18.359375.09375.925781.871094 1.628906 1.800781 1.628906.628907 0 1.203125-.335938 1.546875-.867188 3.664063-5.644531 10.085938-9.332031 17.367188-9.125 10.894531.3125 19.410156 9.574219 19.410156 20.472657zm0 0"
          fill="#bb5d4c"/>
    <path d="m260 280v-130c0-11.042969 8.957031-19.972656 20-19.976562v149.976562c0 5.523438-4.476562 10-10 10s-10-4.476562-10-10zm34.277344 108.601562c0-5.730468-1.761719-11.324218-5.050782-16.015624l-80.1875-114.519532c-3.285156-4.695312-9.773437-6.046875-14.515624-2.820312-.03125.023437-.0625.046875-.09375.066406-.054688.039062-.109376.078125-.164063.113281v.003907c-4.527344 3.164062-5.625 9.402343-2.457031 13.925781l73.949218 105.609375c2.761719 3.941406 4.242188 8.640625 4.242188 13.453125v31.582031l30 11.582031v-3.164062l-5.722656-2.210938zm5.722656-178.625v70.023438c0 5.523438 4.476562 10 10 10s10-4.476562 10-10v-90c-11.042969.003906-20 8.933594-20 19.976562zm79.5 20.011719v50.011719c0 5.523438 4.476562 10 10 10s10-4.476562 10-10v-69.988281c-11.042969.003906-20 8.933593-20 19.976562zm-39.5-10.011719v60.023438c0 5.523438 4.476562 10 10 10s10-4.476562 10-10v-80c-11.042969.003906-20 8.933594-20 19.976562zm0 0"
          fill="#a44f3e"/>
    <path d="m410 408v20c0 5.523438-4.476562 10-10 10h-130c-5.523438 0-10-4.476562-10-10v-20c0-5.523438 4.476562-10 10-10h130c5.523438 0 10 4.476562 10 10zm0 0"
          fill="#fdf7bd"/>
    <path d="m420 428v24.5625c-44.421875 37.101562-101.597656 59.4375-164 59.4375-2.007812 0-4.003906-.023438-6-.070312v-83.929688c0-5.523438 4.476562-10 10-10h150c5.523438 0 10 4.476562 10 10zm0 0"
          fill="#00808a"/>
    <path d="m420 428v24.5625c-38.65625 32.289062-86.980469 53.378906-140 58.308594v-82.871094c0-5.523438 4.476562-10 10-10h120c5.523438 0 10 4.476562 10 10zm0 0"
          fill="#0995a3"/>
    <path d="m290 448c0 5.523438-4.476562 10-10 10s-10-4.476562-10-10 4.476562-10 10-10 10 4.476562 10 10zm0 0"
          fill="#01525a"/>
</svg>
