<svg height="512pt" viewBox="0 0 512 512" width="512pt" xmlns="http://www.w3.org/2000/svg">
    <path d="m512 256c0 141.386719-114.613281 256-256 256s-256-114.613281-256-256 114.613281-256 256-256 256 114.613281 256 256zm0 0"
          fill="#e8ce00"/>
    <path d="m345 335.179688c-23.585938 15.675781-37.773438 42.097656-37.773438 70.417968v9.460938h-102.453124v-9.457032c0-28.160156-13.902344-54.652343-37.398438-70.171874-44.148438-29.164063-73.085938-79.488282-72.363281-136.527344 1.125-88.347656 72.632812-158.902344 160.988281-158.902344 88.917969 0 161 72.082031 161 161 0 56.011719-28.601562 105.339844-72 134.179688zm0 0"
          fill="#fdf385"/>
    <path d="m417 201c0 21.085938-4.058594 41.222656-11.425781 59.675781-27.515625 33.21875-69.070313 54.382813-115.574219 54.382813-82.84375 0-150-67.160156-150-150 0-43.605469 18.609375-82.855469 48.3125-110.261719 20.570312-9.496094 43.492188-14.796875 67.6875-14.796875 88.917969 0 161 72.082031 161 161zm0 0"
          fill="#fdf7bd"/>
    <path d="m366 220c0 5.523438-4.476562 10-10 10h-5c-16.945312 0-34.238281 17.039062-47.445312 46.753906-14.542969 32.726563-22.554688 76.496094-22.554688 123.246094h-20c0-49.488281 8.621094-96.144531 24.28125-131.371094 7.125-16.03125 15.429688-28.996094 24.578125-38.628906h-107.71875c9.148437 9.632812 17.453125 22.597656 24.578125 38.628906 15.660156 35.226563 24.28125 81.882813 24.28125 131.371094h-20c0-46.75-8.011719-90.519531-22.554688-123.246094-13.207031-29.714844-30.5-46.753906-47.445312-46.753906h-5c-5.523438 0-10-4.476562-10-10s4.476562-10 10-10h200c5.523438 0 10 4.476562 10 10zm-110-50c5.523438 0 10-4.476562 10-10v-50c0-5.523438-4.476562-10-10-10s-10 4.476562-10 10v50c0 5.523438 4.476562 10 10 10zm-52.070312 17.070312c3.90625 3.90625 10.234374 3.90625 14.140624 0s3.90625-10.234374 0-14.140624l-35.355468-35.355469c-3.902344-3.90625-10.234375-3.90625-14.140625 0s-3.90625 10.238281 0 14.140625zm104.140624 0 35.355469-35.355468c3.90625-3.902344 3.90625-10.234375 0-14.140625s-10.238281-3.90625-14.140625 0l-35.355468 35.355469c-3.90625 3.90625-3.90625 10.234374 0 14.140624s10.234374 3.90625 14.140624 0zm0 0"
          fill="#d6bf01"/>
    <path d="m317 395.058594v60c0 5.519531-4.476562 10-10 10h-3.359375c-2.429687 16.957031-17.007813 30-34.640625 30h-26c-17.632812 0-32.210938-13.042969-34.640625-30h-3.359375c-5.523438 0-10-4.480469-10-10v-60c0-5.523438 4.476562-10 10-10h102c5.523438 0 10 4.476562 10 10zm0 0"
          fill="#015081"/>
    <path d="m317 395.058594v20h-77c-8.285156 0-15-6.71875-15-15 0-8.285156 6.714844-15 15-15h67c5.523438 0 10 4.476562 10 10zm-92 55c0 8.28125 6.714844 15 15 15h67c5.523438 0 10-4.480469 10-10v-20h-77c-8.285156 0-15 6.714844-15 15zm0 0"
          fill="#056099"/>
    <path d="m470 35h-30v-30c0-2.761719-2.238281-5-5-5h-20c-2.761719 0-5 2.238281-5 5v30h-30c-2.761719 0-5 2.238281-5 5v20c0 2.761719 2.238281 5 5 5h30v30c0 2.761719 2.238281 5 5 5h20c2.761719 0 5-2.238281 5-5v-30h30c2.761719 0 5-2.238281 5-5v-20c0-2.761719-2.238281-5-5-5zm0 0"
          fill="#fd3d96"/>
    <path d="m440 82.5v12.5c0 2.761719-2.238281 5-5 5h-20c-2.761719 0-5-2.238281-5-5v-30h-30c-2.761719 0-5-2.238281-5-5v-20c0-2.761719 2.238281-5 5-5h12.5v7.5c0 2.761719 2.238281 5 5 5h25c2.761719 0 5 2.238281 5 5v25c0 2.761719 2.238281 5 5 5zm0 0"
          fill="#e31e7f"/>
</svg>
