<svg height="512pt" viewBox="0 0 512 512.00078" width="512pt" xmlns="http://www.w3.org/2000/svg">
    <path d="m415.964844 455.878906c-44.394532 35.574219-100.894532 56.667969-162.339844 56.109375-141.535156-1.285156-254.492188-116.0625-253.62109375-257.597656.46484375-75.332031 33.47265575-142.9375 85.66796875-189.484375 15.660156-13.964844 40.441406-3.003906 40.441406 17.976562v321.980469c3.445313 3.105469 6.976563 6.109375 10.589844 9.023438h264.542969c22.285156 0 32.109375 28.054687 14.71875 41.992187zm0 0"
          fill="#fd3d96"/>
    <path d="m443.730469 430.007812c-8.390625 9.054688-17.429688 17.503907-27.042969 25.269532h-321.375c-3.609375-2.914063-7.144531-5.921875-10.589844-9.023438v-380.507812c8-7.203125 16.460938-13.914063 25.324219-20.078125 6.78125-4.714844 16.066406.136719 16.066406 8.390625v350.804687c3.441407 3.105469 6.976563 6.109375 10.589844 9.023438h300.050781c8.378906 0 12.671875 9.972656 6.976563 16.121093zm0 0"
          fill="#e31e7f"/>
    <path d="m511.984375 259.003906c-.761719 66.011719-26.515625 126.007813-68.230469 170.996094h-328.753906c-2.761719 0-5-2.238281-5-5v-379.289062c42.402344-29.496094 94.136719-46.511719 149.894531-45.6835942 141.335938 2.1054682 253.714844 117.6367182 252.089844 258.9765622zm0 0"
          fill="#d3f1f5"/>
    <path d="m160 285v-10c0-2.761719 2.238281-5 5-5h160c2.761719 0 5 2.238281 5 5v10c0 2.761719-2.238281 5-5 5h-160c-2.761719 0-5-2.238281-5-5zm270 65c-5.523438 0-10 4.476562-10 10s4.476562 10 10 10 10-4.476562 10-10-4.476562-10-10-10zm-30 0c-5.523438 0-10 4.476562-10 10s4.476562 10 10 10 10-4.476562 10-10-4.476562-10-10-10zm-235-140h220c2.761719 0 5-2.238281 5-5v-10c0-2.761719-2.238281-5-5-5h-220c-2.761719 0-5 2.238281-5 5v10c0 2.761719 2.238281 5 5 5zm0-120h220c2.761719 0 5-2.238281 5-5v-10c0-2.761719-2.238281-5-5-5h-220c-2.761719 0-5 2.238281-5 5v10c0 2.761719 2.238281 5 5 5zm300 140h-300c-2.761719 0-5 2.238281-5 5v10c0 2.761719 2.238281 5 5 5h300c2.761719 0 5-2.238281 5-5v-10c0-2.761719-2.238281-5-5-5zm0 40h-110c-2.761719 0-5 2.238281-5 5v10c0 2.761719 2.238281 5 5 5h110c2.761719 0 5-2.238281 5-5v-10c0-2.761719-2.238281-5-5-5zm-5 80c-5.523438 0-10 4.476562-10 10s4.476562 10 10 10 10-4.476562 10-10-4.476562-10-10-10zm5-200h-300c-2.761719 0-5 2.238281-5 5v10c0 2.761719 2.238281 5 5 5h300c2.761719 0 5-2.238281 5-5v-10c0-2.761719-2.238281-5-5-5zm0 160h-300c-2.761719 0-5 2.238281-5 5v10c0 2.761719 2.238281 5 5 5h300c2.761719 0 5-2.238281 5-5v-10c0-2.761719-2.238281-5-5-5zm0 0"
          fill="#84deea"/>
    <path d="m410.460938 308.15625c-47.914063 47.914062-122.882813 52.277344-175.734376 13.097656l-25.996093 25.996094c1.027343 9.316406-2.027344 18.996094-9.171875 26.140625l-96.164063 96.167969c-12.5 12.496094-32.757812 12.496094-45.257812 0-12.496094-12.496094-12.496094-32.757813 0-45.253906l96.167969-96.167969c7.144531-7.144531 16.824218-10.195313 26.144531-9.171875l25.996093-25.996094c-39.179687-52.847656-34.820312-127.816406 13.097657-175.730469 52.71875-52.722656 138.195312-52.722656 190.917969 0 52.71875 52.71875 52.71875 138.195313 0 190.917969zm0 0"
          fill="#013f69"/>
    <path d="m199.558594 373.390625-96.167969 96.167969c-9.359375 9.359375-23.074219 11.707031-34.621094 7.046875-4.664062-11.546875-2.316406-25.261719 7.046875-34.625l96.164063-96.164063c.335937-.335937.675781-.660156 1.019531-.976562 17.96875-16.472656 44.007812 9.566406 27.535156 27.53125-.316406.347656-.640625.6875-.976562 1.019531zm223.390625-241.773437c-52.890625-39.828126-128.378907-35.671876-176.539063 12.488281-48.160156 48.160156-52.316406 123.648437-12.488281 176.539062 52.890625 39.828125 128.378906 35.667969 176.539063-12.488281 48.160156-48.160156 52.316406-123.648438 12.488281-176.539062zm0 0"
          fill="#015081"/>
    <path d="m389.246094 286.941406c-41.003906 41.003906-107.488282 41.003906-148.492188 0s-41.003906-107.488281 0-148.492187c41.003906-41.003907 107.488282-41.003907 148.492188 0 41.003906 41.003906 41.003906 107.488281 0 148.492187zm0 0"
          fill="#0995a3"/>
    <path d="m419.832031 218.53125c.128907-2.308594.179688-4.621094.15625-6.933594.023438 2.3125-.027343 4.625-.15625 6.933594zm-.1875-14.425781c.089844 1.121093.167969 2.242187.226563 3.367187-.058594-1.125-.136719-2.246094-.226563-3.367187zm-.058593-.671875c-.097657-1.144532-.214844-2.289063-.351563-3.429688.136719 1.140625.253906 2.285156.351563 3.429688zm.285156 4.074218c.058594 1.152344.089844 2.3125.109375 3.46875-.019531-1.15625-.050781-2.316406-.109375-3.46875zm-.726563 18.546876c.296875-2.316407.515625-4.640626.65625-6.96875-.140625 2.328124-.359375 4.652343-.65625 6.96875zm-184.832031 53.824218c0 .003906 0 .003906.003906.007813.015625.019531.03125.039062.050782.058593-.019532-.023437-.035157-.042968-.054688-.066406zm184.257812-49.878906h-73.570312c-2.761719 0-5-2.238281-5-5v-20c0-2.761719 2.238281-5 5-5h74.234375c-2.726563-22.496094-12.71875-44.28125-29.988281-61.550781-2.273438-2.273438-4.632813-4.417969-7.054688-6.4375-23.386718-2.871094-48.695312 1.980469-72.035156 14.207031-1.855469.96875-1.164062 3.78125.929688 3.78125h63.914062c2.761719 0 5 2.238281 5 5v20c0 2.761719-2.238281 5-5 5h-104.621094c-1.753906 0-3.4375.761719-4.570312 2.105469-4.003906 4.773437-7.644532 9.71875-10.914063 14.796875-.859375 1.335937.09375 3.097656 1.683594 3.097656h58.421875c2.761719 0 5 2.238281 5 5v20c0 2.761719-2.238281 5-5 5h-72.730469c-1.765625 0-3.339843 1.148438-3.832031 2.839844-1.429688 4.9375-2.550781 9.898437-3.359375 14.851562-.195313 1.210938.753906 2.308594 1.980469 2.308594h137.941406c2.761719 0 5 2.238281 5 5v20c0 2.761719-2.238281 5-5 5h-140.585938c1.996094 2.382812 4.101563 4.703125 6.339844 6.941406 41.003906 41.003906 107.488282 41.003906 148.492188 0 16.96875-16.96875 26.910156-38.304687 29.832031-60.390625-.152344 1.152344-.316406 2.300781-.507813 3.449219zm0 0"
          fill="#2abbc7"/>
</svg>
