<svg height="512pt" viewBox="0 0 512 512.00002" width="512pt" xmlns="http://www.w3.org/2000/svg">
    <path d="m133.808594 480.992188c-79.707032-43.378907-133.808594-127.859376-133.808594-224.992188 0-141.347656 114.554688-255.9375 255.886719-256 141.054687-.0625 256.113281 114.945312 256.113281 256 0 98.167969-55.261719 183.414062-136.363281 226.363281-13.398438 7.09375-28.394531 10.636719-43.554688 10.636719h-150.738281c-16.597656 0-32.957031-4.078125-47.535156-12.007812zm0 0"
          fill="#7ecd00"/>
    <path d="m379.996094 480c-36.738282 20.378906-79.007813 32-123.996094 32s-87.257812-11.621094-123.996094-32h77.996094v-50c0-5.523438 4.476562-10 10-10h72c5.523438 0 10 4.476562 10 10v50zm0 0"
          fill="#056099"/>
    <path d="m289.980469 489.335938c.375 5.824218-4.238281 10.664062-9.980469 10.664062h-28.496094c-6.355468 0-11.503906 5.148438-11.503906 11.503906-39.007812-2.410156-75.648438-13.558594-107.996094-31.503906h77.996094v-50c0-5.523438 4.476562-10 10-10h20v48.496094c0 6.355468 5.148438 11.503906 11.503906 11.503906h28.152344c5.328125 0 9.980469 4.019531 10.324219 9.335938zm0 0"
          fill="#015081"/>
    <path d="m178.179688 253.871094-3.472657 19.695312c-.960937 5.441406-6.148437 9.074219-11.585937 8.113282l-88.632813-15.628907c-5.4375-.957031-9.070312-6.144531-8.113281-11.582031l3.472656-19.695312c.960938-5.441407 6.148438-9.074219 11.585938-8.113282l88.632812 15.628906c5.441406.957032 9.070313 6.144532 8.113282 11.582032zm31.828124-238.089844-88.632812-15.628906c-5.441406-.957032-10.628906 2.675781-11.585938 8.113281l-3.472656 19.695313c-.960937 5.441406 2.671875 10.625 8.113282 11.585937l88.632812 15.628906c5.4375.957031 10.625-2.675781 11.582031-8.113281l3.472657-19.695312c.960937-5.4375-2.671876-10.625-8.109376-11.585938zm0 0"
          fill="#015081"/>
    <path d="m178.179688 253.871094-3.472657 19.695312c-.960937 5.441406-6.148437 9.074219-11.585937 8.113282l-68.9375-12.15625c-5.4375-.957032-9.070313-6.144532-8.113282-11.582032l3.476563-19.699218c.957031-5.4375 6.144531-9.070313 11.582031-8.109376l68.9375 12.152344c5.441406.960938 9.070313 6.148438 8.113282 11.585938zm31.828124-238.089844-68.9375-12.152344c-5.4375-.960937-10.625 2.671875-11.585937 8.109375l-3.472656 19.695313c-.957031 5.441406 2.671875 10.625 8.113281 11.585937l68.9375 12.15625c5.4375.957031 10.625-2.671875 11.582031-8.113281l3.472657-19.695312c.960937-5.4375-2.671876-10.625-8.109376-11.585938zm0 0"
          fill="#056099"/>
    <path d="m186.289062 265.457031-128.023437-22.574219c-5.441406-.957031-9.070313-6.144531-8.113281-11.585937l36.46875-206.808594c.957031-5.4375 6.144531-9.070312 11.582031-8.109375l128.027344 22.570313c5.4375.960937 9.070312 6.148437 8.113281 11.585937l-36.46875 206.8125c-.960938 5.4375-6.144531 9.070313-11.585938 8.109375zm0 0"
          fill="#d3f1f5"/>
    <path d="m142.257812 227.230469c-32.632812-5.753907-54.421874-36.875-48.667968-69.507813l22.574218-128.023437c.957032-5.441407 6.144532-9.070313 11.582032-8.113281l98.484375 17.363281c5.4375.960937 9.070312 6.148437 8.109375 11.585937l-22.574219 128.027344c-5.753906 32.632812-36.871094 54.421875-69.507813 48.667969zm0 0"
          fill="#fff5f5"/>
    <path d="m332 436.71875v13.28125c0 5.523438-4.476562 10-10 10h-132c-5.523438 0-10-4.476562-10-10v-13.28125c-47.789062-20.125-85.925781-58.65625-105.53125-106.71875h67.421875c24.246094 37.316406 66.292969 62 114.109375 62 75.109375 0 136-60.890625 136-136 0-73.773438-58.738281-133.820312-132-135.9375v-60.011719c106.398438 2.132813 192 89.039063 192 195.949219 0 81.296875-49.496094 151.03125-120 180.71875zm0 0"
          fill="#fff5f5"/>
    <path d="m302.527344 86.332031c75.476562 20.933594 131.117187 91.441407 129.4375 173.28125-1.960938 95.34375-80.460938 172.3125-175.828125 172.386719-44.414063.035156-85.816407-16.367188-117.394531-44.59375-6.828126-6.105469-2.570313-17.40625 6.59375-17.40625h.285156c2.421875 0 4.765625.875 6.574218 2.488281 29.113282 26.007813 67.257813 40.417969 107.546876 39.46875 85.300781-2.007812 153.574218-73.136719 152.238281-158.449219-.625-39.945312-16.253907-77.609374-44.175781-106.296874-19.664063-20.207032-43.941407-34.441407-70.507813-41.691407-4.3125-1.175781-7.296875-5.109375-7.296875-9.578125 0-6.546875 6.222656-11.359375 12.527344-9.609375zm0 0"
          fill="#d3f1f5"/>
    <path d="m200 320v20c0 5.523438-4.476562 10-10 10h-150c-5.523438 0-10-4.476562-10-10v-20c0-5.523438 4.476562-10 10-10h150c5.523438 0 10 4.476562 10 10zm0 0"
          fill="#015081"/>
    <path d="m200 320c0 5.523438-4.476562 10-10 10h-130c-5.523438 0-10-4.476562-10-10s4.476562-10 10-10h130c5.523438 0 10 4.476562 10 10zm0 0"
          fill="#056099"/>
    <path d="m280 100c0 38.660156-31.339844 70-70 70s-70-31.339844-70-70 31.339844-70 70-70 70 31.339844 70 70zm0 0"
          fill="#0995a3"/>
    <path d="m230 167.085938c-6.339844 1.886718-13.046875 2.914062-20 2.914062-38.660156 0-70-31.339844-70-70s31.339844-70 70-70c6.953125 0 13.660156 1.027344 20 2.914062-28.910156 8.609376-50 35.378907-50 67.085938s21.089844 58.476562 50 67.085938zm0 0"
          fill="#00808a"/>
    <path d="m250 100c0 22.089844-17.910156 40-40 40s-40-17.910156-40-40 17.910156-40 40-40 40 17.910156 40 40zm0 0"
          fill="#016a74"/>
    <path d="m230 100c0 11.046875-8.953125 20-20 20s-20-8.953125-20-20 8.953125-20 20-20 20 8.953125 20 20zm0 0"
          fill="#0995a3"/>
</svg>
