<svg height="512pt" viewBox="0 0 512.00001 512" width="512pt" xmlns="http://www.w3.org/2000/svg">
    <path d="m512 256c0 141.386719-114.613281 256-256 256s-256-114.613281-256-256 114.613281-256 256-256 256 114.613281 256 256zm0 0"
          fill="#e8ce00"/>
    <path d="m135.902344 29.859375c9.765625-5.195313 19.902344-9.777344 30.367187-13.691406v341.796875h-30.367187zm-114.785156 328.105469h.851562v-205.875c-14.125 31.757812-21.96875 66.914062-21.96875 103.910156 0 36.242188 7.53125 70.71875 21.117188 101.964844zm256.980468 0h30.367188v-352.582032c-9.925782-2.070312-20.058594-3.558593-30.367188-4.441406zm103.304688-325.199219c-11.453125-6.449219-23.441406-12.035156-35.902344-16.683594l90.921875 339.34375 29.328125-7.859375zm0 0"
          fill="#012d4e"/>
    <path d="m358.074219 342.78125c0 36.335938-29.457031 65.789062-65.789063 65.789062-36.335937 0-65.789062-29.453124-65.789062-65.789062 0-36.332031 29.453125-65.789062 65.789062-65.789062 36.332032 0 65.789063 29.457031 65.789063 65.789062zm-207.984375-65.789062c-36.332032 0-65.789063 29.457031-65.789063 65.789062 0 36.335938 29.457031 65.789062 65.789063 65.789062 36.335937 0 65.789062-29.453124 65.789062-65.789062 0-36.332031-29.453125-65.789062-65.789062-65.789062zm-144.300782 0c-1.652343 0-3.316406.09375-4.9375.210937 3.621094 44.183594 18.492188 85.175781 41.699219 120.148437 17.511719-11.820312 29.027344-31.851562 29.027344-54.570312 0-36.332031-29.457031-65.789062-65.789063-65.789062zm423.378907-3.445313c-35.097657 9.402344-55.925781 45.476563-46.519531 80.570313 9.402343 35.097656 45.476562 55.925781 80.574218 46.523437 35.09375-9.40625 55.921875-45.480469 46.519532-80.574219-9.402344-35.097656-45.476563-55.925781-80.574219-46.519531zm0 0"
          fill="#056099"/>
    <path d="m311.992188 405.5625c-6.230469 1.957031-12.859376 3.015625-19.734376 3.015625-36.335937 0-65.789062-29.453125-65.789062-65.789063 0-36.332031 29.453125-65.789062 65.789062-65.789062 6.875 0 13.503907 1.058594 19.734376 3.015625-26.6875 8.386719-46.050782 33.316406-46.050782 62.773437 0 29.457032 19.363282 54.390626 46.050782 62.773438zm-188.246094-62.773438c0-29.453124 19.363281-54.386718 46.054687-62.769531-6.234375-1.957031-12.863281-3.015625-19.738281-3.015625-36.335938 0-65.789062 29.453125-65.789062 65.789063 0 36.332031 29.453124 65.789062 65.789062 65.789062 6.875 0 13.503906-1.058593 19.738281-3.015625-26.691406-8.386718-46.054687-33.320312-46.054687-62.777344zm-122.894532-65.585937c.425782 5.210937 1.015626 10.375 1.75 15.496094 6.628907-5.648438 14.386719-10.007813 22.894532-12.679688-6.230469-1.957031-12.859375-3.015625-19.734375-3.015625-1.65625 0-3.289063.082032-4.910157.199219zm419.894532 66.707031c-7.621094-28.453125 4.625-57.546875 28.238281-72.550781-6.523437-.28125-13.203125.414063-19.84375 2.195313-35.097656 9.402343-55.925781 45.476562-46.523437 80.574218 9.40625 35.09375 45.480468 55.921875 80.574218 46.519532 6.644532-1.78125 12.773438-4.519532 18.285156-8.023438-27.949218-1.191406-53.105468-20.261719-60.730468-48.714844zm0 0"
          fill="#015081"/>
    <path d="m185.515625 317.480469c0 11.179687-9.0625 20.242187-20.242187 20.242187-11.179688 0-20.246094-9.0625-20.246094-20.242187 0-11.179688 9.066406-20.246094 20.246094-20.246094 11.179687 0 20.242187 9.066406 20.242187 20.246094zm-164.542969-20.242188c-6.632812 0-12.503906 3.203125-16.195312 8.132813 2.039062 10.441406 4.710937 20.652344 7.980468 30.597656 2.511719 1.121094 5.289063 1.753906 8.214844 1.753906 11.179688 0 20.242188-9.0625 20.242188-20.242187 0-11.179688-9.066406-20.242188-20.242188-20.242188zm452.890625 6.242188c-2.894531-10.796875-13.992187-17.207031-24.792969-14.3125-10.796874 2.894531-17.207031 13.992187-14.3125 24.792969 2.894532 10.800781 13.992188 17.207031 24.792969 14.3125 10.796875-2.890626 17.207031-13.992188 14.3125-24.792969zm-166.398437-6.242188c-11.179688 0-20.242188 9.0625-20.242188 20.242188 0 11.179687 9.0625 20.242187 20.242188 20.242187 11.179687 0 20.246094-9.0625 20.246094-20.242187 0-11.179688-9.066407-20.242188-20.246094-20.242188zm0 0"
          fill="#3180c2"/>
</svg>
