<svg height="512pt" viewBox="0 0 512.00014 512" width="512pt" xmlns="http://www.w3.org/2000/svg">
    <path d="m71.371094 433.308594c-43.746094-45.539063-70.820313-107.214844-71.3632815-175.222656-1.1250005-141.117188 114.8710935-258.085938 255.9921875-258.085938 141.386719 0 256 114.617188 256 256 0 68.820312-27.167969 131.289062-71.351562 177.292969-1.160157 1.207031-2.855469 1.730469-4.496094 1.414062-55.96875-10.792969-116.695313-16.707031-180.152344-16.707031-63.46875 0-124.199219 5.917969-180.175781 16.710938-1.628907.3125-3.304688-.207032-4.453125-1.402344zm0 0"
          fill="#84deea"/>
    <path d="m375 50v432.699219c-35.554688 18.699219-76.035156 29.300781-119 29.300781-72.742188 0-138.394531-30.34375-185-79.058594v-362.941406c0-11.046875 8.953125-20 20-20zm0 0"
          fill="#00808a"/>
    <path d="m441 60v372.941406c-5.453125 5.703125-11.167969 11.148438-17.125 16.328125-28.859375 25.078125-73.875 4.234375-73.875-33.996093v-351.605469c0-7.550781 6.121094-13.667969 13.667969-13.667969h67.332031c5.523438 0 10 4.476562 10 10zm0 0"
          fill="#01525a"/>
    <path d="m425 75v373.273438c-44.132812 38.820312-101.738281 62.683593-164.902344 63.675781-.0625-.640625-.097656-1.292969-.097656-1.949219v-420c0-11.046875 8.953125-20 20-20h140c2.761719 0 5 2.238281 5 5zm0 0"
          fill="#fdf7bd"/>
    <path d="m392.5 70h15v392.359375c-4.871094 3.582031-9.875 6.996094-15 10.234375zm0 0" fill="#fdf061"/>
    <path d="m390 170h-40v-70h40c11.046875 0 20 8.953125 20 20v30c0 11.046875-8.953125 20-20 20zm0 0" fill="#6bae01"/>
    <path d="m390 150h-40v-50h40c11.046875 0 20 8.953125 20 20v10c0 11.046875-8.953125 20-20 20zm0 0" fill="#7ecd00"/>
    <path d="m390 410h-40v-70h40c11.046875 0 20 8.953125 20 20v30c0 11.046875-8.953125 20-20 20zm0 0" fill="#d6bf01"/>
    <path d="m390 390h-40v-50h40c11.046875 0 20 8.953125 20 20v10c0 11.046875-8.953125 20-20 20zm0 0" fill="#e8ce00"/>
    <path d="m390 250h-70v-70h70c11.046875 0 20 8.953125 20 20v30c0 11.046875-8.953125 20-20 20zm0 0" fill="#03bdd6"/>
    <path d="m390 230h-70v-50h70c11.046875 0 20 8.953125 20 20v10c0 11.046875-8.953125 20-20 20zm0 0" fill="#2ed0e1"/>
    <path d="m440 330h-70v-70h70c11.046875 0 20 8.953125 20 20v30c0 11.046875-8.953125 20-20 20zm0 0" fill="#e31e7f"/>
    <path d="m440 310h-70v-50h70c11.046875 0 20 8.953125 20 20v10c0 11.046875-8.953125 20-20 20zm0 0" fill="#fd3d96"/>
    <path d="m422.824219 277.976562 4.3125 8.738282c.289062.589844.851562 1 1.503906 1.09375l9.644531 1.402344c1.640625.234374 2.296875 2.253906 1.109375 3.410156l-6.976562 6.800781c-.472657.460937-.6875 1.121094-.578125 1.769531l1.648437 9.605469c.28125 1.632813-1.433593 2.878906-2.902343 2.109375l-8.625-4.535156c-.582032-.308594-1.28125-.308594-1.863282 0l-8.625 4.535156c-1.464844.769531-3.179687-.476562-2.902344-2.109375l1.648438-9.605469c.109375-.648437-.105469-1.308594-.574219-1.769531l-6.980469-6.800781c-1.1875-1.15625-.53125-3.175782 1.109376-3.410156l9.644531-1.402344c.648437-.09375 1.214843-.503906 1.503906-1.09375l4.3125-8.738282c.734375-1.488281 2.855469-1.488281 3.589844 0zm0 0"
          fill="#fdf7bd"/>
    <path d="m120 50h245c5.523438 0 10 4.476562 10 10v422.699219c-35.554688 18.699219-76.035156 29.300781-119 29.300781-58.71875 0-112.808594-19.78125-156-53.027344v-388.972656c0-11.046875 8.953125-20 20-20zm0 0"
          fill="#0995a3"/>
    <path d="m320 50h24.375v446.332031c-7.949219 2.921875-16.078125 5.46875-24.375 7.601563zm0 0" fill="#016a74"/>
</svg>
