<svg height="512pt" viewBox="0 0 512.00017 512" width="512pt" xmlns="http://www.w3.org/2000/svg">
    <path d="m422.820312 430h-333.777343c-13.835938 0-26.957031-6.320312-35.4375-17.253906-33.597657-43.3125-53.605469-97.6875-53.605469-156.746094 0-141.386719 114.613281-256 256-256 141.320312 0 257.308594 117.128906 255.988281 258.441406-.539062 57.886719-20.304687 111.171875-53.203125 153.800782-8.613281 11.160156-21.867187 17.757812-35.964844 17.757812zm0 0"
          fill="#fd3d96"/>
    <path d="m332 430h-152c-5.523438 0-10-4.476562-10-10v-90c0-5.523438 4.476562-10 10-10h152c5.523438 0 10 4.476562 10 10v90c0 5.523438-4.476562 10-10 10zm0 0"
          fill="#84deea"/>
    <path d="m442 370h-372c-5.523438 0-10-4.476562-10-10v-300c0-5.523438 4.476562-10 10-10h372c5.523438 0 10 4.476562 10 10v300c0 5.523438-4.476562 10-10 10zm0 0"
          fill="#ade8f0"/>
    <path d="m442 50h-352c-5.523438 0-10 4.476562-10 10v300c0 5.523438 4.476562 10 10 10h352c5.523438 0 10-4.476562 10-10v-300c0-5.523438-4.476562-10-10-10zm-158.5 307h-55c-4.140625 0-7.5-3.359375-7.5-7.5s3.359375-7.5 7.5-7.5h55c4.140625 0 7.5 3.359375 7.5 7.5s-3.359375 7.5-7.5 7.5zm0 0"
          fill="#d3f1f5"/>
    <path d="m419.699219 440c5.125 0 7.511719 6.375 3.632812 9.726562-44.875 38.796876-103.359375 62.273438-167.332031 62.273438-63.8125 0-122.164062-23.355469-166.992188-61.976562-4-3.449219-1.535156-10.023438 3.746094-10.023438zm0 0"
          fill="#015081"/>
    <path d="m256 512c-51.898438 0-100.179688-15.457031-140.519531-42h281.035156c-40.335937 26.542969-88.617187 42-140.515625 42zm0 0"
          fill="#013f69"/>
    <path d="m402 329.675781h-292c-5.523438 0-10-4.476562-10-10v-219.351562c0-5.523438 4.476562-10 10-10h292c5.523438 0 10 4.476562 10 10v219.351562c0 5.523438-4.476562 10-10 10zm0 0"
          fill="#013f69"/>
    <path d="m402 329.675781h-272c-5.523438 0-10-4.476562-10-10v-219.351562c0-5.523438 4.476562-10 10-10h272c5.523438 0 10 4.476562 10 10v219.351562c0 5.523438-4.476562 10-10 10zm0 0"
          fill="#015081"/>
    <path d="m190 205v10c0 2.761719-2.238281 5-5 5h-40c-2.761719 0-5-2.238281-5-5v-10c0-2.761719 2.238281-5 5-5h40c2.761719 0 5 2.238281 5 5zm-5 35h-40c-2.761719 0-5 2.238281-5 5v10c0 2.761719 2.238281 5 5 5h40c2.761719 0 5-2.238281 5-5v-10c0-2.761719-2.238281-5-5-5zm0 0"
          fill="#fded32"/>
    <path d="m370 125v10c0 2.761719-2.238281 5-5 5h-220c-2.761719 0-5-2.238281-5-5v-10c0-2.761719 2.238281-5 5-5h220c2.761719 0 5 2.238281 5 5zm-225 55h70c2.761719 0 5-2.238281 5-5v-10c0-2.761719-2.238281-5-5-5h-70c-2.761719 0-5 2.238281-5 5v10c0 2.761719 2.238281 5 5 5zm65 25v10c0 2.761719 2.238281 5 5 5h80c2.761719 0 5-2.238281 5-5v-10c0-2.761719-2.238281-5-5-5h-80c-2.761719 0-5 2.238281-5 5zm-25 75h-40c-2.761719 0-5 2.238281-5 5v10c0 2.761719 2.238281 5 5 5h40c2.761719 0 5-2.238281 5-5v-10c0-2.761719-2.238281-5-5-5zm35 0c-5.523438 0-10 4.476562-10 10s4.476562 10 10 10 10-4.476562 10-10-4.476562-10-10-10zm30 0c-5.523438 0-10 4.476562-10 10s4.476562 10 10 10 10-4.476562 10-10-4.476562-10-10-10zm30 0c-5.523438 0-10 4.476562-10 10s4.476562 10 10 10 10-4.476562 10-10-4.476562-10-10-10zm-25-40h-40c-2.761719 0-5 2.238281-5 5v10c0 2.761719 2.238281 5 5 5h40c2.761719 0 5-2.238281 5-5v-10c0-2.761719-2.238281-5-5-5zm80 0h-60c-2.761719 0-5 2.238281-5 5v10c0 2.761719 2.238281 5 5 5h60c2.761719 0 5-2.238281 5-5v-10c0-2.761719-2.238281-5-5-5zm0 0"
          fill="#2abbc7"/>
    <path d="m458.59375 412.492188c-10.574219 13.667968-22.488281 26.238281-35.566406 37.507812h-334.054688c-13.078125-11.269531-24.992187-23.839844-35.566406-37.507812 1.761719-1.546876 4.066406-2.492188 6.59375-2.492188h392c2.527344 0 4.832031.945312 6.59375 2.492188zm0 0"
          fill="#ade8f0"/>
    <path d="m458.59375 412.492188c-4.6875 6.058593-9.640625 11.898437-14.839844 17.507812h-375.507812c-5.199219-5.609375-10.152344-11.449219-14.839844-17.507812 1.761719-1.546876 4.066406-2.492188 6.59375-2.492188 0-5.523438 4.476562-10 10-10h20c5.523438 0 10 4.476562 10 10h10c0-5.523438 4.476562-10 10-10h150c5.523438 0 10 4.476562 10 10h18c0-5.523438 4.476562-10 10-10h30c5.523438 0 10 4.476562 10 10h10c0-5.523438 4.476562-10 10-10h22c5.523438 0 10 4.476562 10 10h10c0-5.523438 4.476562-10 10-10h22c5.523438 0 10 4.476562 10 10 2.527344 0 4.832031.945312 6.59375 2.492188zm0 0"
          fill="#d3f1f5"/>
</svg>
