<svg height="512pt" viewBox="0 0 512 512" width="512pt" xmlns="http://www.w3.org/2000/svg">
    <path d="m512 256c0 141.386719-114.613281 256-256 256-53.476562 0-103.113281-16.410156-144.179688-44.453125-1.160156-.792969-2.15625-1.800781-2.964843-2.953125-17.121094-24.398438-38.394531-45.664062-62.792969-62.789062-.625-.441407-1.171875-.988282-1.605469-1.621094-28.042969-41.066406-44.457031-90.703125-44.457031-144.183594 0-141.382812 114.613281-256 255.996094-256 141.042968 0 256.003906 114.960938 256.003906 256zm0 0"
          fill="#015081"/>
    <path d="m366.246094 274c-13.761719 15.902344-28.632813 31.90625-44.484375 47.761719-75.5625 75.558593-154.503907 128.824219-209.878907 145.835937-26.488281-18.078125-49.402343-40.992187-67.480468-67.480468 10.734375-34.921876 35.878906-79.210938 71.941406-126.117188 21.125-27.476562 45.984375-55.851562 73.894531-83.761719 114.425781-114.421875 236.625-177.738281 272.945313-141.421875 31.285156 31.289063-11.371094 126.304688-96.9375 225.183594zm0 0"
          fill="#02c6dc"/>
    <path d="m62.203125 423.242188c-6.355469-7.355469-12.304687-15.074219-17.800781-23.125 10.734375-34.921876 35.878906-79.210938 71.941406-126.117188 21.125-27.476562 45.984375-55.851562 73.894531-83.761719 114.425781-114.421875 236.625-177.738281 272.945313-141.421875 3.414062 3.417969 5.949218 7.59375 7.640625 12.449219-50.363281-11.058594-159.027344 51.375-261.589844 153.9375-28.5625 28.5625-54 57.59375-75.617187 85.710937-34.625 45.035157-59.414063 87.71875-71.414063 122.328126zm0 0"
          fill="#0db2cc"/>
    <path d="m428.171875 256c0 95.085938-77.082031 172.171875-172.171875 172.171875s-172.171875-77.085937-172.171875-172.171875 77.085937-172.171875 172.171875-172.171875 172.171875 77.085937 172.171875 172.171875zm0 0"
          fill="#e8ce00"/>
    <path d="m290.710938 87.328125c-41.609376 8.519531-77.746094 32.050781-102.511719 64.683594-2.488281 3.277343-.105469 7.988281 4.007812 7.988281h82.367188c8.078125 0 15.027343 6.207031 15.410156 14.273438.40625 8.617187-6.460937 15.726562-14.984375 15.726562h-94.65625c-5.328125 0-9.976562 4.019531-10.320312 9.335938-.378907 5.820312 4.234374 10.664062 9.976562 10.664062h214.578125c8.074219 0 15.027344 6.207031 15.40625 14.273438.40625 8.617187-6.460937 15.726562-14.984375 15.726562h-214.65625c-5.328125 0-9.976562 4.019531-10.320312 9.335938-.378907 5.820312 4.234374 10.664062 9.976562 10.664062h44.578125c8.074219 0 15.027344 6.207031 15.40625 14.273438.40625 8.617187-6.460937 15.726562-14.984375 15.726562h-44.65625c-5.328125 0-9.976562 4.019531-10.324219 9.332031-.375 5.824219 4.234375 10.664063 9.976563 10.667969h94.578125c8.078125 0 15.027343 6.207031 15.410156 14.273438.40625 8.617187-6.460937 15.726562-14.984375 15.726562h-91.105469c-3.917969 0-6.339843 4.320312-4.25 7.636719 24.578125 39.015625 64.375 67.476562 111.066407 77.035156 78.449218-16.058594 137.460937-85.472656 137.460937-168.671875s-59.011719-152.613281-137.460937-168.671875zm14.289062 52.671875h-20c-8.285156 0-15-6.714844-15-15s6.714844-15 15-15h20c8.285156 0 15 6.714844 15 15s-6.714844 15-15 15zm30 250h-20c-8.285156 0-15-6.714844-15-15s6.714844-15 15-15h20c8.285156 0 15 6.714844 15 15s-6.714844 15-15 15zm50-100h-40c-8.285156 0-15-6.714844-15-15s6.714844-15 15-15h40c8.285156 0 15 6.714844 15 15s-6.714844 15-15 15zm0 0"
          fill="#fded32"/>
    <path d="m378.09375 260c-16.953125 20.476562-35.816406 41.242188-56.332031 61.761719-75.5625 75.558593-154.503907 128.824219-209.878907 145.835937-18.496093-12.625-35.257812-27.605468-49.84375-44.519531.007813-.003906.015626-.003906.019532-.007813.046875.058594.09375.117188.144531.175782.027344-.082032.058594-.160156.085937-.242188 55.523438-15.65625 136.40625-69.625 213.746094-146.96875 5.332032-5.332031 10.546875-10.679687 15.652344-16.035156 67.007812-70.304688 114.042969-141.882812 130.015625-193.308594 19.46875-6.253906 36.203125-8.253906 49.109375-5.425781 13.09375 37.519531-24.019531 115.742187-92.71875 198.734375zm0 0"
          fill="#02c6dc"/>
</svg>
