<svg height="512pt" viewBox="0 0 512.00006 512" width="512pt" xmlns="http://www.w3.org/2000/svg">
    <path d="m0 256c0-141.382812 114.613281-256 256-256 141.105469 0 256.09375 115.070312 256 256.175781-.058594 87.65625-44.183594 164.992188-111.410156 211.089844-2.945313 2.019531-6.53125 2.847656-10.066406 2.332031-42.769532-6.25-87.890626-9.597656-134.523438-9.597656-46.722656 0-91.925781 3.359375-134.769531 9.632812-3.363281.492188-6.78125-.289062-9.585938-2.207031-67.402343-46.109375-111.644531-123.597656-111.644531-211.425781zm0 0"
          fill="#ade8f0"/>
    <path d="m236.988281 235.671875c-112.628906 19.707031-199.953125-56.183594-205.46875-129.8125-.296875-3.960937 2.824219-7.351563 6.796875-7.335937 110.671875.449218 204.367188 12.605468 198.671875 137.148437zm238.800781-199.253906c-.253906-3.945313-3.761718-6.878907-7.679687-6.359375-127.285156 16.867187-233.578125 44.390625-208.5625 186.714844 132.621094 5.972656 221.707031-94.890626 216.242187-180.355469zm0 0"
          fill="#7ecd00"/>
    <path d="m259.546875 216.773438c-.050781-.289063-.101563-.578126-.152344-.867188-3.3125-19.210938 10.539063-36.980469 29.929688-38.972656 97.125-9.980469 164.707031-78.421875 178.308593-146.8125.140626-.015625.285157-.035156.425782-.054688 3.90625-.519531 7.476562 2.390625 7.726562 6.320313 5.484375 85.472656-83.601562 186.359375-216.238281 180.386719zm-56.597656-16.796876c-80.457031.753907-143.234375-47.007812-164.179688-101.453124-.152343 0-.300781 0-.453125 0-3.988281-.015626-7.09375 3.425781-6.792968 7.402343 5.566406 73.609375 92.871093 149.449219 205.464843 129.746094.003907-.144531.011719-.285156.019531-.429687.847657-19.304688-14.734374-35.445313-34.058593-35.265626zm0 0"
          fill="#6bae01"/>
    <path d="m349.425781 138.757812c-52.964843 24.277344-87.1875 77.636719-87.1875 135.945313v217.40625c0 7.503906-6.082031 13.589844-13.589843 13.589844-7.503907 0-13.585938-6.085938-13.585938-13.589844v-186.347656c0-49.222657-28.890625-94.269531-73.601562-114.761719-6.820313-3.125-9.816407-11.191406-6.691407-18.015625 3.128907-6.816406 11.191407-9.816406 18.015625-6.6875 29.210938 13.390625 52.851563 35.40625 68.484375 62.195313 13.570313-49.84375 48.621094-92.339844 96.835938-114.4375 6.820312-3.125 14.886719-.128907 18.011719 6.6875 3.125 6.824218.128906 14.890624-6.691407 18.015624zm0 0"
          fill="#5a9001"/>
    <path d="m370 440c0 16.566406-13.429688 30-30 30-13.839844 0-25.480469-9.371094-28.945312-22.113281-3.421876 1.359375-7.148438 2.113281-11.054688 2.113281-5.351562 0-10.371094-1.40625-14.71875-3.859375-5.328125 8.332031-14.65625 13.859375-25.28125 13.859375-10.632812 0-19.964844-5.535156-25.292969-13.875-4.347656 2.457031-9.355469 3.875-14.707031 3.875-3.90625 0-7.632812-.753906-11.054688-2.113281-3.464843 12.742187-15.105468 22.113281-28.945312 22.113281-16.570312 0-30-13.433594-30-30s13.429688-30 30-30c3.90625 0 7.632812.753906 11.054688 2.113281 3.464843-12.742187 15.105468-22.113281 28.945312-22.113281.570312 0 1.136719.019531 1.695312.050781 4.105469-11.675781 15.226563-20.050781 28.304688-20.050781 15.804688 0 28.742188 12.222656 29.90625 27.726562 5.316406-4.800781 12.363281-7.726562 20.09375-7.726562 13.839844 0 25.480469 9.371094 28.945312 22.113281 3.421876-1.359375 7.148438-2.113281 11.054688-2.113281 16.570312 0 30 13.433594 30 30zm0 0"
          fill="#e8ce00"/>
    <path d="m247.613281 404.5625c-.214843 3.75-3.335937 6.855469-7.089843 7.050781-3.988282.207031-7.332032-2.707031-7.828126-6.515625-10.660156.8125-19.757812 7.1875-24.398437 16.234375-1.558594 3.03125-4.875 4.671875-8.234375 4.097657-2.253906-.386719-4.59375-.519532-6.988281-.367188-14.734375.929688-26.792969 12.761719-27.976563 27.480469-.425781 5.300781.542969 10.339843 2.558594 14.796875-11.035156-4.988282-18.515625-16.449219-17.578125-29.542969 1.058594-14.792969 13.113281-26.753906 27.910156-27.730469 4.636719-.308594 9.0625.457032 13.066407 2.042969 3.464843-12.738281 15.105468-22.109375 28.945312-22.109375.570312 0 1.136719.019531 1.695312.050781 4.105469-11.675781 15.226563-20.050781 28.304688-20.050781 12.160156 0 22.621094 7.242188 27.328125 17.648438-3.761719-1.699219-7.933594-2.648438-12.328125-2.648438-9.683594 0-18.28125 4.597656-23.765625 11.714844 3.753906.558594 6.601563 3.890625 6.378906 7.847656zm21.261719 2.644531c-4.140625 0-7.5 3.359375-7.5 7.5 0 4.144531 3.359375 7.5 7.5 7.5s7.5-3.355469 7.5-7.5c0-4.140625-3.359375-7.5-7.5-7.5zm-41.917969 12.792969c-4.140625 0-7.5 3.359375-7.5 7.5s3.359375 7.5 7.5 7.5c4.144531 0 7.5-3.359375 7.5-7.5s-3.355469-7.5-7.5-7.5zm0 0"
          fill="#d6bf01"/>
    <path d="m401 466.984375c-41.222656 28.382813-91.164062 45.015625-145 45.015625s-103.777344-16.632812-145-45.015625v-14.984375c0-11.046875 8.953125-20 20-20h250c11.046875 0 20 8.953125 20 20zm0 0"
          fill="#015081"/>
    <path d="m401 466.984375c-41.222656 28.382813-91.164062 45.015625-145 45.015625-37.808594 0-73.699219-8.203125-106-22.914062v-37.085938c0-11.046875 8.953125-20 20-20h211c11.046875 0 20 8.953125 20 20zm0 0"
          fill="#056099"/>
</svg>
