<svg height="512pt" viewBox="0 0 512.00043 512" width="512pt" xmlns="http://www.w3.org/2000/svg">
    <path d="m512 255.132812c.46875 141.628907-115.027344 257.222657-256.65625 256.867188-104.542969-.261719-194.347656-63.195312-233.855469-153.210938-5.886719-13.417968 4.035157-28.460937 18.691407-28.460937h210.148437v-302.273437c0-15.878907 13.617187-28.378907 29.433594-26.964844.082031.003906.164062.011718.242187.019531 129.84375 12.074219 231.554688 121.125 231.996094 254.023437zm0 0"
          fill="#e8ce00"/>
    <path d="m280 360h-257.976562c-14.148438-31.78125-22.023438-66.96875-22.023438-104 0-141.386719 114.613281-256 256-256 8.09375 0 16.097656.394531 24 1.128906zm0 0"
          fill="#d3f1f5"/>
    <path d="m220 135v10c0 2.761719-2.238281 5-5 5h-192.085938c3.113282-6.832031 6.523438-13.503906 10.207032-20h181.878906c2.761719 0 5 2.238281 5 5zm-80 50v-10c0-2.761719-2.238281-5-5-5h-120.179688c-2.332031 6.546875-4.410156 13.21875-6.214843 20h126.394531c2.761719 0 5-2.238281 5-5zm75 25h-210.871094c-1.195312 6.582031-2.140625 13.253906-2.824218 20h213.695312c2.761719 0 5-2.238281 5-5v-10c0-2.761719-2.238281-5-5-5zm30-190h-40c-2.761719 0-5 2.238281-5 5v10c0 2.761719 2.238281 5 5 5h40c2.761719 0 5-2.238281 5-5v-10c0-2.761719-2.238281-5-5-5zm0 40h-80c-2.761719 0-5 2.238281-5 5v10c0 2.761719 2.238281 5 5 5h80c2.761719 0 5-2.238281 5-5v-10c0-2.761719-2.238281-5-5-5zm0 0"
          fill="#84deea"/>
    <path d="m210 120v40c0 11.046875-8.953125 20-20 20l-63.921875-36.527344c-2.6875-1.535156-2.6875-5.410156 0-6.945312l63.921875-36.527344c11.046875 0 20 8.953125 20 20zm0 0"
          fill="#e8ce00"/>
    <path d="m500.527344 180h-310.527344v-80h268.972656c18.261719 23.726562 32.46875 50.734375 41.554688 80zm0 0"
          fill="#e31e7f"/>
    <path d="m487.214844 146h-244.214844c-12.703125 0-23-10.296875-23-23s10.296875-23 23-23h215.972656c10.949219 14.226562 20.441406 29.632812 28.242188 46zm0 0"
          fill="#fd3d96"/>
    <path d="m126.078125 136.527344 23.921875-13.671875v34.289062l-23.921875-13.671875c-2.6875-1.535156-2.6875-5.410156 0-6.945312zm0 0"
          fill="#012d4e"/>
    <path d="m137.355469 364.894531c5.859375 5.859375 5.859375 15.355469 0 21.214844l-49.496094 49.496094c-5.859375 5.859375-15.355469 5.859375-21.214844 0-5.859375-5.855469-5.859375-15.355469 0-21.210938l49.496094-49.5c5.859375-5.855469 15.355469-5.855469 21.214844 0zm360 49.5-49.5-49.5c-5.855469-5.855469-15.351563-5.855469-21.210938 0-5.859375 5.859375-5.859375 15.355469 0 21.214844l49.496094 49.496094c5.859375 5.859375 15.355469 5.859375 21.214844 0 5.859375-5.855469 5.859375-15.355469 0-21.210938zm0 0"
          fill="#012d4e"/>
    <path d="m376 340.503906v30h-200v-30zm0 0" fill="#75a5d3"/>
    <path d="m512 326.503906c0 57.988282-47.011719 105-105 105s-105-47.011718-105-105c0-4.652344.304688-9.234375.894531-13.726562-4.472656-6.789063-12.15625-11.273438-20.894531-11.273438s-16.421875 4.484375-20.894531 11.273438c.589843 4.492187.894531 9.074218.894531 13.726562 0 57.988282-47.011719 105-105 105s-105-47.011718-105-105c0-57.992187 47.011719-105 105-105 43.378906 0 80.613281 26.308594 96.621094 63.839844 8.0625-5.570312 17.839844-8.839844 28.378906-8.839844s20.316406 3.269532 28.378906 8.839844c16.007813-37.53125 53.238282-63.839844 96.621094-63.839844 57.988281 0 105 47.007813 105 105zm0 0"
          fill="#015081"/>
    <path d="m176 429.785156c-6.164062 1.125-12.511719 1.71875-19 1.71875-57.988281 0-105-47.011718-105-105 0-57.992187 47.011719-105 105-105 6.480469 0 12.820312.597656 18.976562 1.722656-48.90625 8.949219-85.976562 51.78125-85.976562 103.277344 0 51.5 37.082031 94.339844 86 103.28125zm0 0"
          fill="#013f69"/>
    <path d="m237 326.503906c0 44.179688-35.816406 80-80 80s-80-35.820312-80-80c0-44.183594 35.816406-80 80-80s80 35.816406 80 80zm170-80c-44.183594 0-80 35.816406-80 80 0 44.179688 35.816406 80 80 80s80-35.820312 80-80c0-44.183594-35.816406-80-80-80zm0 0"
          fill="#0995a3"/>
    <path d="m232.25 299.300781c-11.132812 30.792969-40.617188 52.800781-75.25 52.800781s-64.117188-22.007812-75.25-52.800781c11.132812-30.789062 40.617188-52.796875 75.25-52.796875s64.117188 22.007813 75.25 52.796875zm174.75-52.796875c-34.632812 0-64.117188 22.007813-75.25 52.796875 11.132812 30.792969 40.617188 52.800781 75.25 52.800781s64.117188-22.007812 75.25-52.800781c-11.132812-30.789062-40.617188-52.796875-75.25-52.796875zm0 0"
          fill="#2abbc7"/>
</svg>
