<svg height="512pt" viewBox="0 0 512 512.00063" width="512pt" xmlns="http://www.w3.org/2000/svg">
    <path d="m512 254.902344c.59375 142.050781-113.410156 256.804687-255.460938 257.097656-108.589843.222656-201.453124-67.171875-238.878906-162.429688-2.75-7 2.421875-14.570312 9.9375-14.570312h361.011719c3.53125 0 6.390625-2.367188 6.390625-5.285156v-271.167969c0-7.570313 8.644531-11.828125 14.699219-7.277344 61.847656 46.503907 101.949219 120.375 102.300781 203.632813zm0 0"
          fill="#7ecd00"/>
    <path d="m410 51.496094v293.21875c0 2.917968-2.859375 5.285156-6.390625 5.285156h-385.796875c-3.851562-9.75-7.117188-19.792969-9.757812-30.085938-3.226563-12.585937 6.195312-24.855468 19.1875-24.855468h321.425781c3.53125 0 6.390625-2.367188 6.390625-5.285156v-242.898438c0-12.832031 13.777344-21.066406 24.996094-14.84375 10.453124 5.796875 20.457031 12.308594 29.945312 19.464844zm0 0"
          fill="#015081"/>
    <path d="m380 31.996094v282.71875c0 2.917968-2.859375 5.285156-6.390625 5.285156h-365.527344c-5.265625-20.457031-8.082031-41.898438-8.082031-64 0-141.386719 114.617188-256 256-256 44.992188 0 87.261719 11.613281 124 31.996094zm0 0"
          fill="#d3f1f5"/>
    <path d="m295 90h-233.871094c5.972656-7 12.304688-13.679688 18.988282-20h214.882812c2.761719 0 5 2.238281 5 5v10c0 2.761719-2.238281 5-5 5zm-190 20c-2.761719 0-5 2.238281-5 5v10c0 2.761719 2.238281 5 5 5h140c2.761719 0 5-2.238281 5-5v-10c0-2.761719-2.238281-5-5-5zm200 60h-260c-2.761719 0-5 2.238281-5 5v10c0 2.761719 2.238281 5 5 5h260c2.761719 0 5-2.238281 5-5v-10c0-2.761719-2.238281-5-5-5zm0 80h-260c-2.761719 0-5 2.238281-5 5v10c0 2.761719 2.238281 5 5 5h260c2.761719 0 5-2.238281 5-5v-10c0-2.761719-2.238281-5-5-5zm-20-20c2.761719 0 5-2.238281 5-5v-10c0-2.761719-2.238281-5-5-5h-220c-2.761719 0-5 2.238281-5 5v10c0 2.761719 2.238281 5 5 5zm0 0"
          fill="#84deea"/>
    <path d="m445.644531 492.542969-37.277343-12.609375-25.976563 29.558594c-3.886719 4.417968-11.125 2.726562-12.648437-2.957032l-34.742188-129.652344-34.742188 129.652344c-1.523437 5.683594-8.761718 7.375-12.648437 2.957032l-25.976563-29.558594-37.277343 12.609375c-5.574219 1.886719-11-3.199219-9.476563-8.882813l38.382813-143.234375 81.738281 21.902344 81.742188-21.902344 38.378906 143.234375c1.523437 5.683594-3.902344 10.769532-9.476563 8.882813zm0 0"
          fill="#c2186c"/>
    <path d="m445.644531 492.542969-37.277343-12.609375-14.402344 16.386718-12.90625-48.15625c-4.457032-16.632812 5.414062-33.726562 22.042968-38.183593 16.632813-4.453125 33.726563 5.414062 38.183594 22.046875l13.835938 51.628906c1.523437 5.6875-3.902344 10.773438-9.476563 8.886719zm-191.9375-57.621094-14.050781 52.445313 21.976562-7.433594 25.976563 29.558594c3.886719 4.417968 11.125 2.726562 12.648437-2.957032l14.789063-55.179687c4.535156-16.9375-5.515625-34.347657-22.453125-38.886719s-34.347656 5.511719-38.886719 22.453125zm0 0"
          fill="#e31e7f"/>
    <path d="m457.257812 298.855469c4.601563 6.734375 5.820313 15.585937 2.464844 23.683593-3.355468 8.097657-10.472656 13.492188-18.488281 15.003907-2.777344.523437-4.570313 3.203125-3.988281 5.96875 1.671875 7.984375-.585938 16.625-6.785156 22.824219-6.199219 6.199218-14.84375 8.460937-22.828126 6.785156-2.765624-.578125-5.445312 1.210937-5.96875 3.988281-1.507812 8.019531-6.902343 15.136719-15.003906 18.492187-8.097656 3.355469-16.945312 2.136719-23.683594-2.464843-2.332031-1.597657-5.492187-.964844-7.039062 1.398437-4.464844 6.828125-12.171875 11.34375-20.9375 11.34375-8.769531 0-16.476562-4.515625-20.941406-11.34375-1.546875-2.367187-4.703125-2.996094-7.039063-1.398437-6.734375 4.601562-15.585937 5.820312-23.683593 2.464843-8.101563-3.355468-13.496094-10.472656-15.003907-18.492187-.523437-2.777344-3.203125-4.566406-5.96875-3.988281-7.984375 1.675781-16.628906-.585938-22.824219-6.785156-6.199218-6.199219-8.460937-14.839844-6.789062-22.824219.582031-2.765625-1.207031-5.445313-3.988281-5.96875-8.015625-1.507813-15.132813-6.90625-18.488281-15.003907-3.355469-8.097656-2.136719-16.949218 2.464843-23.683593 1.59375-2.335938.964844-5.496094-1.402343-7.042969-6.824219-4.460938-11.335938-12.167969-11.335938-20.933594 0-8.769531 4.511719-16.476562 11.339844-20.941406 2.367187-1.546875 2.996094-4.703125 1.402344-7.039062-4.601563-6.738282-5.820313-15.585938-2.464844-23.683594 3.355468-8.101563 10.472656-13.496094 18.488281-15.003906 2.78125-.523438 4.570313-3.203126 3.988281-5.96875-1.671875-7.984376.589844-16.628907 6.789063-22.828126 6.195312-6.195312 14.839843-8.457031 22.824219-6.785156 2.765624.582032 5.445312-1.207031 5.96875-3.988281 1.507812-8.015625 6.90625-15.132813 15.003906-18.488281 8.097656-3.355469 16.949218-2.136719 23.683594 2.464844 2.332031 1.59375 5.492187.964843 7.039062-1.402344 4.464844-6.828125 12.171875-11.339844 20.941406-11.339844 8.765625 0 16.472656 4.511719 20.9375 11.339844 1.546875 2.367187 4.703125 2.996094 7.039063 1.402344 6.738281-4.601563 15.585937-5.820313 23.683593-2.464844 8.101563 3.355468 13.496094 10.472656 15.003907 18.488281.523437 2.78125 3.203125 4.570313 5.96875 3.988281 7.984375-1.671875 16.628906.589844 22.828125 6.785156 6.195312 6.199219 8.457031 14.84375 6.785156 22.828126-.582031 2.765624 1.210938 5.445312 3.988281 5.96875 8.015625 1.507812 15.136719 6.902343 18.488281 15.003906 3.355469 8.097656 2.136719 16.945312-2.464843 23.683594-1.59375 2.332031-.964844 5.492187 1.402343 7.039062 6.828126 4.464844 11.339844 12.171875 11.339844 20.941406 0 8.765625-4.511718 16.472656-11.339844 20.9375-2.371093 1.542969-3 4.703125-1.40625 7.039063zm0 0"
          fill="#fd3d96"/>
    <path d="m435 270.878906c0 55.226563-44.773438 100-100 100s-100-44.773437-100-100c0-55.230468 44.773438-100 100-100s100 44.769532 100 100zm0 0"
          fill="#e8ce00"/>
    <path d="m335 330.878906c-33.136719 0-60-26.863281-60-60 0-33.140625 26.863281-60 60-60s60 26.859375 60 60c0 33.136719-26.863281 60-60 60zm17.5-158.472656c-11.800781 2.082031-22.882812 6.238281-32.863281 12.078125-3.789063 2.21875-1.714844 8.105469 2.621093 7.40625 4.386719-.707031 8.890626-1.054687 13.488282-1.011719 42.976562.394532 78.332031 35.304688 79.234375 78.273438.949219 44.972656-35.222657 81.722656-79.980469 81.722656-4.332031 0-8.582031-.34375-12.730469-1.011719-4.347656-.699219-6.441406 5.175781-2.640625 7.398438 9.980469 5.84375 21.066406 10.003906 32.871094 12.085937 46.882812-8.277344 82.5-49.214844 82.5-98.472656s-35.617188-90.195312-82.5-98.46875zm0 0"
          fill="#fde803"/>
    <path d="m338.996094 227.40625 9.785156 19.824219c.648438 1.316406 1.902344 2.226562 3.355469 2.4375l21.875 3.179687c3.65625.53125 5.113281 5.023438 2.46875 7.601563l-15.828125 15.429687c-1.050782 1.023438-1.527344 2.5-1.28125 3.945313l3.734375 21.789062c.625 3.640625-3.195313 6.414063-6.464844 4.695313l-19.566406-10.285156c-1.296875-.683594-2.847657-.683594-4.144531 0l-19.570313 10.285156c-3.265625 1.71875-7.089844-1.054688-6.464844-4.695313l3.738281-21.789062c.25-1.445313-.230468-2.921875-1.28125-3.945313l-15.832031-15.429687c-2.644531-2.578125-1.183593-7.070313 2.472657-7.601563l21.875-3.179687c1.453124-.210938 2.707031-1.121094 3.355468-2.4375l9.785156-19.824219c1.632813-3.3125 6.351563-3.3125 7.988282 0zm0 0"
          fill="#d6bf01"/>
    <path d="m376.0625 209.8125 4.574219 8.359375c.273437.503906.6875.917969 1.191406 1.191406l8.359375 4.574219c2.082031 1.136719 2.082031 4.125 0 5.261719l-8.359375 4.574219c-.5.273437-.914063.6875-1.191406 1.191406l-4.574219 8.359375c-1.136719 2.082031-4.125 2.082031-5.261719 0l-4.574219-8.359375c-.273437-.5-.6875-.914063-1.191406-1.191406l-8.359375-4.574219c-2.082031-1.136719-2.082031-4.125 0-5.261719l8.359375-4.574219c.503906-.273437.917969-.6875 1.191406-1.191406l4.574219-8.359375c1.136719-2.082031 4.125-2.082031 5.261719 0zm0 0"
          fill="#fff5f5"/>
</svg>
