<svg height="512pt" viewBox="0 0 512 512" width="512pt" xmlns="http://www.w3.org/2000/svg">
    <path d="m512 256c0 141.386719-114.613281 256-256 256s-256-114.613281-256-256 114.613281-256 256-256 256 114.613281 256 256zm0 0"
          fill="#015081"/>
    <path d="m268.113281 474.789062c10.128907 10.128907 17.003907 22.269532 20.660157 35.132813-10.734376 1.367187-21.671876 2.078125-32.773438 2.078125-33.871094 0-66.207031-6.578125-95.796875-18.53125-28.054687-11.332031-78.363281-52.246094-79.640625-54.667969-2.453125-1.160156-44.449219-48.402343-56.828125-75.027343-15.230469-32.753907-23.734375-69.269532-23.734375-107.773438 0-5.910156.199219-11.769531.59375-17.582031 16.332031 2.589843 32.042969 10.160156 44.632812 22.746093 24.335938 24.339844 29.972657 60.273438 16.953126 90.007813 8.71875 3.925781 16.894531 9.457031 24.058593 16.617187 12 12.003907 19.445313 26.828126 22.355469 42.335938 19.25 1.066406 38.191406 8.949219 52.894531 23.65625 7.164063 7.164062 12.695313 15.335938 16.621094 24.058594 29.730469-13.023438 65.667969-7.386719 90.003906 16.949218zm0 0"
          fill="#0571b3"/>
    <path d="m138.726562 461.144531-77.78125-77.78125 49.496094-49.496093 77.78125 77.78125zm0 0" fill="#5592ca"/>
    <path d="m106.980469 297.242188-62.398438-62.398438c-6.265625-6.265625-6.265625-16.425781 0-22.691406l117.570313-117.570313c4.410156-4.40625 10.96875-5.863281 16.828125-3.730469l91.515625 33.277344c11.035156 4.011719 14.164062 18.125 5.863281 26.421875l-146.6875 146.691407c-6.265625 6.265624-16.425781 6.265624-22.691406 0zm0 0"
          fill="#d6bf01"/>
    <path d="m417.414062 349.847656-117.566406 117.570313c-6.269531 6.265625-16.425781 6.265625-22.691406 0l-62.398438-62.398438c-6.265624-6.265625-6.265624-16.425781 0-22.691406l146.691407-146.6875c8.296875-8.300781 22.410156-5.167969 26.421875 5.863281l33.277344 91.515625c2.132812 5.859375.675781 12.417969-3.734376 16.828125zm-146.917968-225.71875-68.671875-24.972656-8.925781 8.925781c-3.902344 3.90625-3.902344 10.238281 0 14.144531l43.984374 43.980469-17.019531 17.015625-43.980469-43.980468c-3.90625-3.902344-10.238281-3.902344-14.144531 0l-14.21875 14.222656c-3.90625 3.902344-3.90625 10.234375 0 14.140625l43.984375 43.980469-17.019531 17.019531-43.980469-43.984375c-3.90625-3.902344-10.238281-3.902344-14.144531 0l-14.21875 14.222656c-3.90625 3.902344-3.90625 10.234375 0 14.140625l43.980469 43.980469-17.015625 17.019531-43.984375-43.980469c-3.902344-3.90625-10.234375-3.90625-14.140625 0l-2.378907 2.375c-7.3125 7.3125-7.3125 19.171875 0 26.484375l38.378907 38.378907c6.265625 6.265624 16.425781 6.265624 22.691406 0l146.6875-146.691407c8.300781-8.296875 5.171875-22.410156-5.863281-26.421875zm0 0"
          fill="#fde803"/>
    <path d="m356.570312 285.894531-17.015624 17.019531 62.394531 62.398438 17.019531-17.019531zm-62.394531 62.398438 62.394531 62.398437 17.019532-17.015625-62.398438-62.398437zm-45.382812 45.382812 62.398437 62.394531 17.019532-17.015624-62.398438-62.398438zm0 0"
          fill="#d6bf01"/>
    <path d="m224.507812 400.945312-113.453124-113.453124c-6.265626-6.265626-6.265626-16.421876 0-22.6875l176.871093-176.871094c28.519531-28.519532 66.734375-45.253906 107.039063-46.863282l61.765625-2.472656c9.359375-.375 17.046875 7.3125 16.671875 16.671875l-2.472656 61.765625c-1.609376 40.304688-18.34375 78.519532-46.863282 107.039063l-176.871094 176.871093c-6.265624 6.265626-16.421874 6.265626-22.6875 0zm0 0"
          fill="#84deea"/>
    <path d="m470.929688 117.035156c-1.609376 40.300782-18.34375 78.519532-46.863282 107.039063l-176.871094 176.871093c-6.265624 6.265626-16.421874 6.265626-22.6875 0l-95.566406-95.566406c.199219-3.824218 1.738282-7.589844 4.660156-10.511718l176.871094-176.871094c28.519532-28.519532 66.734375-45.25 107.035156-46.863282l55.347657-2.214843zm0 0"
          fill="#ade8f0"/>
    <path d="m149.726562 450.144531c11.71875 11.71875 15.203126 28.542969 10.480469 43.3125-60.285156-24.34375-109.171875-70.972656-136.464843-129.683593 15.8125-7.308594 35.167968-4.445313 48.203124 8.589843 3.773438 3.773438 6.6875 8.082031 8.753907 12.675781 15.667969-6.859374 34.601562-3.890624 47.421875 8.929688 12.820312 12.824219 15.789062 31.757812 8.929687 47.421875 4.59375 2.066406 8.902344 4.980469 12.675781 8.753906zm0 0"
          fill="#ade8f0"/>
    <path d="m406.738281 207.367188c-28.195312 28.195312-73.910156 28.195312-102.105469 0-28.195312-28.195313-28.195312-73.910157 0-102.105469 28.195313-28.195313 73.910157-28.195313 102.105469 0 28.195313 28.195312 28.195313 73.910156 0 102.105469zm0 0"
          fill="#00808a"/>
    <path d="m128.785156 247.074219 136.140625 136.140625-42.582031 42.582031c-7.8125 7.808594-20.476562 7.808594-28.285156 0l-107.855469-107.855469c-7.808594-7.808594-7.808594-20.472656 0-28.285156zm260.9375-124.796875c-18.796875-18.796875-49.273437-18.796875-68.070312 0s-18.796875 49.273437 0 68.070312 49.273437 18.796875 68.070312 0 18.796875-49.273437 0-68.070312zm0 0"
          fill="#0db2cc"/>
    <path d="m159.417969 277.703125 105.507812 105.511719-22.6875 22.6875-105.511719-105.507813c-6.265624-6.265625-6.265624-16.421875 0-22.691406 6.265626-6.265625 16.425782-6.265625 22.691407 0zm-56.726563 34.035156c-6.265625 6.269531-6.265625 16.425781 0 22.691407l91.367188 91.367187c7.8125 7.808594 20.476562 7.808594 28.285156 0l8.546875-8.546875-105.507813-105.511719c-6.265624-6.265625-16.425781-6.265625-22.691406 0zm295.277344-178.421875c-18.257812-9.941406-41.585938-7.199218-57.03125 8.25-15.445312 15.445313-18.1875 38.773438-8.25 57.03125 18.257812 9.9375 41.585938 7.199219 57.035156-8.25 15.445313-15.445312 18.1875-38.773437 8.246094-57.03125zm0 0"
          fill="#2ed0e1"/>
</svg>
