<svg height="512pt" viewBox="0 0 512 512" width="512pt" xmlns="http://www.w3.org/2000/svg">
    <path d="m19.832031 243.9375c-10.761719 0-19.15625-9.414062-17.820312-20.089844 15.816406-126.207031 123.496093-223.847656 253.988281-223.847656 130.898438 0 238.839844 98.246094 254.132812 225.019531 1.214844 10.058594-6.648437 18.917969-16.78125 18.917969zm0 0"
          fill="#fd3d96"/>
    <path d="m512 256c0 141.386719-114.613281 256-256 256s-256-114.613281-256-256c0-10.96875.691406-21.773438 2.03125-32.375l79.96875-38.996094 174-106.628906 174 106.628906 79.96875 38.996094c1.339844 10.601562 2.03125 21.40625 2.03125 32.375zm0 0"
          fill="#ade8f0"/>
    <path d="m231 178h50v332.78125c-8.226562.796875-16.5625 1.21875-25 1.21875s-16.773438-.421875-25-1.21875zm0 0"
          fill="#84deea"/>
    <path d="m429.746094 184.628906-83.988282 76.871094-86-76.128906h-7.75l-86 76.128906-83.992187-76.871094h-.015625l14.335938-39.101562.058593-.15625 28.402344-77.464844c.722656-1.96875 2.597656-3.277344 4.695313-3.277344h253.015624c2.097657 0 3.972657 1.308594 4.695313 3.277344l28.414063 77.5.140624-.035156 5.414063 15.183594 8.828125 24.074218zm0 0"
          fill="#d3f1f5"/>
    <path d="m126.742188 65.464844c.796874-.527344 1.746093-.835938 2.75-.835938h253.015624c1.003907 0 1.949219.308594 2.75.835938l-106.105468 119.164062h-46.304688zm0 0"
          fill="#84deea"/>
    <path d="m270 485c0 8.285156-6.714844 15-15 15s-15-6.714844-15-15 6.714844-15 15-15 15 6.714844 15 15zm-15-175c8.285156 0 15-6.714844 15-15s-6.714844-15-15-15-15 6.714844-15 15 6.714844 15 15 15zm0 96.667969c-8.285156 0-15 6.714843-15 15 0 8.285156 6.714844 15 15 15s15-6.714844 15-15c0-8.285157-6.714844-15-15-15zm0-63.335938c-8.285156 0-15 6.714844-15 15 0 8.285157 6.714844 15 15 15s15-6.714843 15-15c0-8.28125-6.714844-15-15-15zm0 0"
          fill="#0db2cc"/>
    <path d="m251 358.332031c0 6.339844 3.941406 11.75 9.5 13.945313-1.703125.671875-3.554688 1.054687-5.5 1.054687-8.285156 0-15-6.714843-15-15 0-8.285156 6.714844-15 15-15 1.945312 0 3.796875.382813 5.5 1.054688-5.558594 2.195312-9.5 7.605469-9.5 13.945312zm0-63.332031c0-6.339844 3.941406-11.75 9.5-13.945312-1.703125-.671876-3.554688-1.054688-5.5-1.054688-8.285156 0-15 6.714844-15 15s6.714844 15 15 15c1.945312 0 3.796875-.382812 5.5-1.054688-5.558594-2.195312-9.5-7.605468-9.5-13.945312zm9.5 112.722656c-1.703125-.675781-3.554688-1.058594-5.5-1.058594-8.285156 0-15 6.71875-15 15 0 8.285157 6.714844 15 15 15 1.945312 0 3.796875-.378906 5.5-1.054687-5.558594-2.195313-9.5-7.601563-9.5-13.945313 0-6.339843 3.941406-11.746093 9.5-13.941406zm0 63.332032c-1.703125-.671876-3.554688-1.054688-5.5-1.054688-8.285156 0-15 6.714844-15 15s6.714844 15 15 15c1.945312 0 3.796875-.382812 5.5-1.054688-5.558594-2.195312-9.5-7.605468-9.5-13.945312s3.941406-11.75 9.5-13.945312zm0 0"
          fill="#0198b0"/>
    <path d="m471 204.621094v190.378906c-11.363281 17.539062-24.8125 33.59375-40 47.824219v-257.707031zm-430 190.378906c11.363281 17.539062 24.8125 33.59375 40 47.824219v-257.707031l-40 19.503906zm0 0"
          fill="#015081"/>
    <path d="m81 340h-40c-5.523438 0-10 4.476562-10 10v40c0 5.523438 4.476562 10 10 10h40c5.523438 0 10-4.476562 10-10v-40c0-5.523438-4.476562-10-10-10zm-1 44c0 2.761719-2.238281 5-5 5h-28c-2.761719 0-5-2.238281-5-5v-28c0-2.761719 2.238281-5 5-5h28c2.761719 0 5 2.238281 5 5zm391-44h-40c-5.523438 0-10 4.476562-10 10v40c0 5.523438 4.476562 10 10 10h40c5.523438 0 10-4.476562 10-10v-40c0-5.523438-4.476562-10-10-10zm-1 44c0 2.761719-2.238281 5-5 5h-28c-2.761719 0-5-2.238281-5-5v-28c0-2.761719 2.238281-5 5-5h28c2.761719 0 5 2.238281 5 5zm0 0"
          fill="#d6bf01"/>
    <path d="m481 350v34.195312c-3.167969.953126-6.523438 1.472657-10 1.472657-.433594 0-.863281-.019531-1.296875-.035157.179687-.515624.296875-1.058593.296875-1.632812v-28c0-2.761719-2.238281-5-5-5h-28c-.226562 0-.445312.039062-.664062.066406 0-.019531-.003907-.042968-.003907-.066406 0-3.847656.636719-7.542969 1.792969-11h32.875c5.523438 0 10 4.476562 10 10zm-400-10h-28.207031c-1.15625 3.457031-1.792969 7.152344-1.792969 11h24c2.761719 0 5 2.238281 5 5v28c0 .40625-.0625.792969-.152344 1.171875 1.894532.320313 3.835938.496094 5.820313.496094 1.8125 0 3.59375-.140625 5.332031-.410157v-35.257812c0-5.523438-4.476562-10-10-10zm0 0"
          fill="#e8ce00"/>
    <path d="m349.320312 169.171875-9.320312 50.828125 8.910156 40.496094c.871094 3.976562-3.113281 7.273437-6.855468 5.671875l-52.722657-22.597657c-1.4375 3.757813-5.070312 6.429688-9.332031 6.429688h-50c-3.984375 0-7.414062-2.335938-9.019531-5.707031l-51.738281 22.171875c-3.597657 1.542968-7.492188-1.460938-6.914063-5.335938l7.671875-51.128906-7.355469-40.859375c-.703125-3.917969 3.230469-7.050781 6.890625-5.480469l51.445313 22.046875c1.609375-3.371093 5.035156-5.707031 9.019531-5.707031h50c4.265625 0 7.894531 2.671875 9.332031 6.429688l53.101563-22.757813c3.664062-1.570313 7.605468 1.574219 6.886718 5.5zm0 0"
          fill="#00808a"/>
    <path d="m344.761719 241.636719-11.785157-5.046875c-13.9375-5.976563-22.976562-19.683594-22.976562-34.847656 0-12.625 6.277344-24.222657 16.414062-31.207032l16.015626-6.863281c3.667968-1.570313 7.609374 1.574219 6.890624 5.5l-9.320312 50.828125zm-124.761719-51.636719c0-1.539062.359375-2.992188.980469-4.292969l-30.648438-13.136719 2.605469 14.492188-7.667969 51.128906c-.582031 3.871094 3.316407 6.878906 6.914063 5.335938l27.816406-11.921875zm71 30v-30c0-5.523438-4.476562-10-10-10h-30c-5.523438 0-10 4.476562-10 10v30c0 5.523438 4.476562 10 10 10h30c5.523438 0 10-4.476562 10-10zm0 0"
          fill="#0995a3"/>
</svg>
