<svg height="512pt" viewBox="0 0 512 512" width="512pt" xmlns="http://www.w3.org/2000/svg">
    <path d="m0 256c0-141.371094 114.59375-255.9765625 255.957031-256 141.046875-.0234375 256.042969 114.953125 256.042969 256 0 82.851562-39.359375 156.507812-100.398438 203.296875-4.40625 3.375-10.46875 3.667969-15.101562.617187-40.335938-26.53125-88.613281-41.96875-140.5-41.96875-51.941406 0-100.269531 15.472657-140.628906 42.054688-4.558594 3.003906-10.519532 2.703125-14.851563-.613281-61.109375-46.785157-100.519531-120.480469-100.519531-203.386719zm0 0"
          fill="#fde803"/>
    <path d="m412 52v406.972656c-43.191406 33.246094-97.28125 53.027344-156 53.027344s-112.808594-19.78125-156-53.027344v-406.972656c0-11.046875 8.953125-20 20-20h272c11.046875 0 20 8.953125 20 20zm0 0"
          fill="#015081"/>
    <path d="m286 490c0 5.523438-4.476562 10-10 10h-40c-5.523438 0-10-4.476562-10-10s4.476562-10 10-10h40c5.523438 0 10 4.476562 10 10zm-186-438v406.972656c12.863281 9.898438 26.699219 18.597656 41.332031 25.941406v-432.914062c0-11.046875 8.953125-20 20-20h-41.332031c-11.046875 0-20 8.953125-20 20zm156 7.167969c4.140625 0 7.5-3.359375 7.5-7.5 0-4.144531-3.359375-7.5-7.5-7.5s-7.5 3.355469-7.5 7.5c0 4.140625 3.359375 7.5 7.5 7.5zm-20-7.5c0-4.144531-3.359375-7.5-7.5-7.5s-7.5 3.355469-7.5 7.5c0 4.140625 3.359375 7.5 7.5 7.5s7.5-3.359375 7.5-7.5zm47.5-7.5c-4.140625 0-7.5 3.355469-7.5 7.5 0 4.140625 3.359375 7.5 7.5 7.5s7.5-3.359375 7.5-7.5c0-4.144531-3.359375-7.5-7.5-7.5zm0 0"
          fill="#012d4e"/>
    <path d="m172.332031 460h-32.332031c-5.523438 0-10-4.476562-10-10v-380c0-5.523438 4.476562-10 10-10h32.332031c5.523438 0 10 4.476562 10 10v380c0 5.523438-4.476562 10-10 10zm0 0"
          fill="#2abbc7"/>
    <path d="m382 70v380c0 5.523438-4.476562 10-10 10h-202c-5.523438 0-10-4.476562-10-10v-380c0-5.523438 4.476562-10 10-10h35.859375c2.082031 0 4.003906 1.269531 4.675781 3.234375 1.34375 3.9375 5.074219 6.765625 9.464844 6.765625h72c4.390625 0 8.121094-2.828125 9.464844-6.765625.671875-1.964844 2.59375-3.234375 4.675781-3.234375h65.859375c5.523438 0 10 4.476562 10 10zm0 0"
          fill="#75ccd4"/>
    <path d="m360 115v10c0 2.761719-2.238281 5-5 5h-130c-2.761719 0-5-2.238281-5-5v-10c0-2.761719 2.238281-5 5-5h130c2.761719 0 5 2.238281 5 5zm-135 55h100c2.761719 0 5-2.238281 5-5v-10c0-2.761719-2.238281-5-5-5h-100c-2.761719 0-5 2.238281-5 5v10c0 2.761719 2.238281 5 5 5zm130 40h-130c-2.761719 0-5 2.238281-5 5v10c0 2.761719 2.238281 5 5 5h130c2.761719 0 5-2.238281 5-5v-10c0-2.761719-2.238281-5-5-5zm-130 60h100c2.761719 0 5-2.238281 5-5v-10c0-2.761719-2.238281-5-5-5h-100c-2.761719 0-5 2.238281-5 5v10c0 2.761719 2.238281 5 5 5zm130 40h-130c-2.761719 0-5 2.238281-5 5v10c0 2.761719 2.238281 5 5 5h130c2.761719 0 5-2.238281 5-5v-10c0-2.761719-2.238281-5-5-5zm-30 40h-100c-2.761719 0-5 2.238281-5 5v10c0 2.761719 2.238281 5 5 5h100c2.761719 0 5-2.238281 5-5v-10c0-2.761719-2.238281-5-5-5zm-69 70c-5.523438 0-10 4.476562-10 10s4.476562 10 10 10 10-4.476562 10-10-4.476562-10-10-10zm-35 0c-5.523438 0-10 4.476562-10 10s4.476562 10 10 10 10-4.476562 10-10-4.476562-10-10-10zm70 0c-5.523438 0-10 4.476562-10 10s4.476562 10 10 10 10-4.476562 10-10-4.476562-10-10-10zm0 0"
          fill="#2abbc7"/>
    <path d="m190 145v20c0 2.761719-2.238281 5-5 5 0 5.523438-4.476562 10-10 10s-10-4.476562-10-10c-2.761719 0-5-2.238281-5-5v-20c0-2.761719 2.238281-5 5-5h20c2.761719 0 5 2.238281 5 5zm-5 95h-20c-2.761719 0-5 2.238281-5 5v20c0 2.761719 2.238281 5 5 5 0 5.523438 4.476562 10 10 10s10-4.476562 10-10c2.761719 0 5-2.238281 5-5v-20c0-2.761719-2.238281-5-5-5zm0 100h-20c-2.761719 0-5 2.238281-5 5v20c0 2.761719 2.238281 5 5 5 0 5.523438 4.476562 10 10 10s10-4.476562 10-10c2.761719 0 5-2.238281 5-5v-20c0-2.761719-2.238281-5-5-5zm0 0"
          fill="#056099"/>
    <path d="m145 130c0-16.570312 13.429688-30 30-30s30 13.429688 30 30-13.429688 30-30 30-30-13.429688-30-30zm30 170c-16.570312 0-30 13.429688-30 30s13.429688 30 30 30 30-13.429688 30-30-13.429688-30-30-30zm0-100c-16.570312 0-30 13.429688-30 30s13.429688 30 30 30 30-13.429688 30-30-13.429688-30-30-30zm0 0"
          fill="#fdf7bd"/>
    <path d="m145 130c0-12.84375 8.074219-23.800781 19.425781-28.078125-1.242187 3.292969-1.925781 6.855469-1.925781 10.578125 0 16.570312 13.429688 30 30 30 3.722656 0 7.285156-.683594 10.578125-1.921875-4.277344 11.347656-15.234375 19.421875-28.078125 19.421875-16.570312 0-30-13.429688-30-30zm47.5 212.5c-16.566406 0-30-13.429688-30-30 0-3.722656.683594-7.285156 1.925781-10.578125-11.351562 4.277344-19.425781 15.234375-19.425781 28.078125 0 16.570312 13.429688 30 30 30 12.84375 0 23.800781-8.074219 28.078125-19.421875-3.292969 1.238281-6.855469 1.921875-10.578125 1.921875zm0-100c-16.566406 0-30-13.429688-30-30 0-3.722656.683594-7.285156 1.925781-10.578125-11.351562 4.277344-19.425781 15.234375-19.425781 28.078125 0 16.570312 13.429688 30 30 30 12.84375 0 23.800781-8.074219 28.078125-19.421875-3.292969 1.238281-6.855469 1.921875-10.578125 1.921875zm0 0"
          fill="#fdf385"/>
</svg>
