<svg height="512pt" viewBox="0 0 512.001 512" width="512pt" xmlns="http://www.w3.org/2000/svg">
    <path d="m512 256h-512c0-141.382812 114.613281-256 256-256s256 114.617188 256 256zm0 0" fill="#fded32"/>
    <path d="m430.042969 433.285156c0 6.765625-2.929688 13.222656-8.082031 17.617188-44.691407 38.09375-102.636719 61.097656-165.960938 61.097656-141.386719 0-256-114.613281-256-256 0-12.21875.875-24.234375 2.53125-36h506.9375c1.65625 11.765625 2.53125 23.78125 2.53125 36 0 51.378906-15.148438 99.210938-41.203125 139.300781-.800781 1.238281-2.183594 1.976563-3.660156 1.976563h-1.085938c-19.886719 0-36.007812 16.121094-36.007812 36.007812zm0 0"
          fill="#e8ce00"/>
    <path d="m371 301c53.300781 0 96.855469 41.699219 99.832031 94.253906-5.839843 8.988282-12.226562 17.585938-19.117187 25.746094h-101.046875c-6.953125-8.238281 1.679687-16.917969-4.203125-26v-94zm0 0"
          fill="#fdf7bd"/>
    <path d="m470.824219 395.265625c-1.042969 1.601563-2.097657 3.191406-3.171875 4.769531-4.128906.621094-8.347656.964844-12.652344.964844-46.945312 0-85-38.054688-85-85 0-5.121094.476562-10.125 1.347656-14.996094 53.144532.179688 96.507813 41.820313 99.476563 94.261719zm0 0"
          fill="#fff5f5"/>
    <path d="m360 301v120h-319v-350c0-5.523438 4.476562-10 10-10 17.316406 0 32.695312 11.082031 38.171875 27.511719l.828125 2.488281h115.132812c5.023438 0 9.265626 3.726562 9.917969 8.707031l20.773438 159.285157c2.4375 18.679687 17.574219 33.125 36.34375 34.691406zm0 0"
          fill="#00808a"/>
    <path d="m360 301v120h-219c-38.660156 0-70-31.339844-70-70v-280c0-1.476562.328125-2.878906.90625-4.140625 7.949219 4.835937 14.179688 12.394531 17.265625 21.652344.492187 1.488281 1.886719 2.488281 3.449219 2.488281h112.511718c5.023438 0 9.265626 3.726562 9.917969 8.707031l20.773438 159.285157c2.4375 18.679687 17.574219 33.125 36.34375 34.691406zm0 0"
          fill="#0995a3"/>
    <path d="m185 191c-8.285156 0-15-6.714844-15-15s6.714844-15 15-15h50c8.285156 0 15 6.714844 15 15s-6.714844 15-15 15zm60 50c8.285156 0 15-6.714844 15-15s-6.714844-15-15-15h-50c-8.285156 0-15 6.714844-15 15s6.714844 15 15 15zm86.464844 40c-8.285156 0-15 6.714844-15 15v25.605469c0 8.285156 6.714844 15 15 15 8.28125 0 15-6.714844 15-15v-25.605469c0-8.285156-6.714844-15-15-15zm-38.578125-3.359375c-7.507813-3.5-16.433594-.25-19.933594 7.257813l-11.546875 24.757812c-3.5 7.507812-.25 16.433594 7.257812 19.933594 7.507813 3.503906 16.433594.253906 19.933594-7.253906l11.546875-24.757813c3.5-7.507813.25-16.433594-7.257812-19.9375zm-24.25-11.992187c-2.144531-8.003907-10.367188-12.75-18.371094-10.609376l-48.296875 12.941407c-8 2.144531-12.75 10.371093-10.605469 18.371093 2.144531 8.003907 10.371094 12.75 18.371094 10.609376l48.296875-12.941407c8-2.144531 12.75-10.371093 10.605469-18.371093zm0 0"
          fill="#84deea"/>
    <path d="m235 191h-30.847656c-8.285156 0-15-6.714844-15-15s6.714844-15 15-15h30.847656c8.285156 0 15 6.714844 15 15s-6.714844 15-15 15zm25 35c0-8.285156-6.714844-15-15-15h-32c-8.285156 0-15 6.714844-15 15s6.714844 15 15 15h32c8.285156 0 15-6.714844 15-15zm71.464844 55c-8.285156 0-15 6.714844-15 15v9.828125c0 8.285156 6.714844 15 15 15 8.28125 0 15-6.714844 15-15v-9.828125c0-8.285156-6.714844-15-15-15zm-38.578125-3.359375c-7.023438-3.273437-15.285157-.640625-19.1875 5.863281l-6.875 14.738282c-3.5 7.507812-.25 16.429687 7.257812 19.933593 7.023438 3.273438 15.285157.640625 19.1875-5.859375l6.875-14.738281c3.5-7.507813.25-16.433594-7.257812-19.9375zm-24.25-11.992187c-2.144531-8.003907-10.367188-12.75-18.371094-10.609376l-32.050781 8.589844c-7.816406 2.273438-12.417969 10.375-10.304688 18.273438 2.144532 8 10.371094 12.75 18.371094 10.605468l32.054688-8.585937c7.8125-2.273437 12.417968-10.375 10.300781-18.273437zm0 0"
          fill="#ade8f0"/>
    <path d="m180 441c0 5.523438-4.476562 10-10 10h-119c-5.523438 0-10-4.476562-10-10v-30h139zm0 0" fill="#84deea"/>
    <path d="m459.738281 411c-11.167969 14.65625-23.878906 28.070312-37.890625 40h-331.695312c-.25-.214844-.503906-.417969-.753906-.613281-12.007813-9.347657-19.398438-23.40625-19.398438-38.621094v-.765625zm0 0"
          fill="#ade8f0"/>
    <path d="m451.714844 421c-2.878906 3.410156-5.84375 6.746094-8.894532 10h-401.820312v-10zm0 0" fill="#00808a"/>
    <path d="m200 126c0 8.285156-6.714844 15-15 15s-15-6.714844-15-15 6.714844-15 15-15 15 6.714844 15 15zm-15 244c-8.285156 0-15 6.714844-15 15s6.714844 15 15 15 15-6.714844 15-15-6.714844-15-15-15zm60 0c-8.285156 0-15 6.714844-15 15s6.714844 15 15 15 15-6.714844 15-15-6.714844-15-15-15zm0 0"
          fill="#fff5f5"/>
    <path d="m192.5 385c0 4.140625-3.359375 7.5-7.5 7.5s-7.5-3.359375-7.5-7.5 3.359375-7.5 7.5-7.5 7.5 3.359375 7.5 7.5zm52.5-7.5c-4.140625 0-7.5 3.359375-7.5 7.5s3.359375 7.5 7.5 7.5 7.5-3.359375 7.5-7.5-3.359375-7.5-7.5-7.5zm-60-259c-4.140625 0-7.5 3.359375-7.5 7.5s3.359375 7.5 7.5 7.5 7.5-3.359375 7.5-7.5-3.359375-7.5-7.5-7.5zm0 0"
          fill="#01525a"/>
    <path d="m150 196c0 24.851562-20.148438 45-45 45s-45-20.148438-45-45 20.148438-45 45-45 45 20.148438 45 45zm0 0"
          fill="#fff5f5"/>
    <path d="m115 239.871094c-3.21875.730468-6.5625 1.128906-10 1.128906-24.851562 0-45-20.148438-45-45s20.148438-45 45-45c3.4375 0 6.78125.398438 10 1.128906-20.035156 4.550782-35 22.457032-35 43.871094s14.964844 39.324219 35 43.871094zm0 0"
          fill="#fcf498"/>
    <path d="m101.464844 220.75-21.214844-21.214844c-1.953125-1.953125-1.953125-5.117187 0-7.070312l21.214844-21.210938c1.953125-1.953125 5.117187-1.953125 7.070312 0l21.210938 21.210938c1.953125 1.953125 1.953125 5.117187 0 7.070312l-21.210938 21.214844c-1.953125 1.953125-5.117187 1.953125-7.070312 0zm0 0"
          fill="#fdf061"/>
</svg>
