<svg height="512pt" viewBox="0 0 512 512" width="512pt" xmlns="http://www.w3.org/2000/svg">
    <path d="m512 256c0 141.386719-114.613281 256-256 256s-256-114.613281-256-256 114.613281-256 256-256 256 114.613281 256 256zm0 0"
          fill="#7ecd00"/>
    <path d="m415.035156 350.523438-288.347656-309.972657c-1.890625-2.035156-4.542969-3.1875-7.320312-3.1875h-49.367188c-5.523438 0-10 4.476563-10 10v358.710938c0 5.523437 4.476562 10 10 10h337.714844c5.523437 0 10-4.476563 10-10v-48.738281c0-2.527344-.957032-4.960938-2.679688-6.8125zm-134.183594-14.449219h-135.851562c-2.761719 0-5-2.238281-5-5v-146.042969c0-4.539062 5.566406-6.730469 8.660156-3.402344l135.851563 146.039063c2.976562 3.199219.707031 8.40625-3.660157 8.40625zm0 0"
          fill="#fdf7bd"/>
    <path d="m102.285156 416.074219h-32.285156c-5.523438 0-10-4.476563-10-10v-358.710938c0-5.523437 4.476562-10 10-10h32.285156c-5.523437 0-10 4.476563-10 10v358.710938c0 5.523437 4.476563 10 10 10zm0 0"
          fill="#fdf385"/>
    <path d="m90 118h-30v-20h30c2.761719 0 5 2.238281 5 5v10c0 2.761719-2.238281 5-5 5zm5-53v-10c0-2.761719-2.238281-5-5-5h-30v20h30c2.761719 0 5-2.238281 5-5zm-5 315h-30v20h30c2.761719 0 5-2.238281 5-5v-10c0-2.761719-2.238281-5-5-5zm5-171v-10c0-2.761719-2.238281-5-5-5h-30v20h30c2.761719 0 5-2.238281 5-5zm0 48v-10c0-2.761719-2.238281-5-5-5h-30v20h30c2.761719 0 5-2.238281 5-5zm-5 81h-30v20h30c2.761719 0 5-2.238281 5-5v-10c0-2.761719-2.238281-5-5-5zm10-192h-40v20h40c2.761719 0 5-2.238281 5-5v-10c0-2.761719-2.238281-5-5-5zm0 144h-40v20h40c2.761719 0 5-2.238281 5-5v-10c0-2.761719-2.238281-5-5-5zm279 91.074219h-10c-2.761719 0-5 2.238281-5 5v30h20v-30c0-2.761719-2.238281-5-5-5zm-186 0h-10c-2.761719 0-5 2.238281-5 5v30h20v-30c0-2.761719-2.238281-5-5-5zm48 0h-10c-2.761719 0-5 2.238281-5 5v30h20v-30c0-2.761719-2.238281-5-5-5zm96 0h-10c-2.761719 0-5 2.238281-5 5v30h20v-30c0-2.761719-2.238281-5-5-5zm-192-10h-10c-2.761719 0-5 2.238281-5 5v40h20v-40c0-2.761719-2.238281-5-5-5zm144 0h-10c-2.761719 0-5 2.238281-5 5v40h20v-40c0-2.761719-2.238281-5-5-5zm0 0"
          fill="#e8ce00"/>
    <path d="m429.140625 480.636719c-1.785156 3.085937-6.40625 2.476562-7.328125-.964844l-18.207031-67.945313 28.976562-7.765624 4.460938 16.644531c5.429687 20.265625 2.585937 41.859375-7.902344 60.03125zm-196.183594-60.03125c-5.429687 20.265625-2.589843 41.859375 7.902344 60.03125 1.78125 3.085937 6.40625 2.476562 7.328125-.964844l18.207031-67.945313-28.980469-7.765624zm0 0"
          fill="#012d4e"/>
    <path d="m435.171875 413.621094-28.980469 7.765625-71.191406-265.699219-71.195312 265.699219-28.976563-7.765625c-10.667969-2.859375-17-13.828125-14.140625-24.496094l69.878906-260.800781 44.433594 11.90625 44.433594-11.90625 69.878906 260.800781c2.859375 10.671875-3.472656 21.636719-14.140625 24.496094zm0 0"
          fill="#056099"/>
    <path d="m431.46875 414.613281-25.273438 6.773438-75.058593-280.121094 25.273437-6.773437zm-210.78125-25.488281c-2.859375 10.671875 3.472656 21.636719 14.140625 24.496094l5.957031 1.597656 75.058594-280.121094-25.273438-6.773437zm0 0"
          fill="#015081"/>
    <path d="m345 120h-20c-11.046875 0-20-8.953125-20-20v-50c0-11.046875 8.953125-20 20-20h20c11.046875 0 20 8.953125 20 20v50c0 11.046875-8.953125 20-20 20zm0 0"
          fill="#012d4e"/>
    <path d="m365 50v50c0 10-7.347656 18.261719-16.933594 19.742188-9.582031-1.480469-16.929687-9.742188-16.929687-19.742188v-50c0-10 7.34375-18.261719 16.929687-19.742188 9.585938 1.480469 16.933594 9.742188 16.933594 19.742188zm0 0"
          fill="#013f69"/>
    <path d="m412.78125 229.835938c-21.445312 21.441406-49.613281 32.164062-77.78125 32.164062s-56.335938-10.722656-77.78125-32.164062c-3.90625-3.90625-3.90625-10.238282 0-14.144532s10.234375-3.90625 14.140625 0c35.089844 35.089844 92.191406 35.089844 127.28125 0 3.90625-3.90625 10.238281-3.902344 14.140625 0 3.90625 3.90625 3.90625 10.238282 0 14.144532zm0 0"
          fill="#012d4e"/>
    <path d="m390 125c0 30.375-24.625 55-55 55s-55-24.625-55-55 24.625-55 55-55 55 24.625 55 55zm0 0" fill="#fded32"/>
    <path d="m370 125c0 19.328125-15.671875 35-35 35s-35-15.671875-35-35 15.671875-35 35-35 35 15.671875 35 35zm0 0"
          fill="#d6bf01"/>
</svg>
