<svg height="512pt" viewBox="0 0 512 512" width="512pt" xmlns="http://www.w3.org/2000/svg">
    <path d="m464.171875 405.011719c-46.449219 64.777343-122.378906 106.988281-208.171875 106.988281-141.386719 0-256-114.613281-256-256 0-85.792969 42.210938-161.722656 106.988281-208.171875-18.101562 35.929687-28.316406 76.519531-28.316406 119.5 0 146.90625 119.09375 266 266 266 42.980469 0 83.570313-10.210937 119.5-28.316406zm0 0"
          fill="#84deea"/>
    <path d="m512 256c0 59.011719-19.976562 113.347656-53.523438 156.644531-36.902343 19.375-78.902343 30.355469-123.476562 30.355469-146.90625 0-266-119.09375-266-266 0-44.574219 10.980469-86.574219 30.355469-123.476562 43.296875-33.546876 97.632812-53.523438 156.644531-53.523438 141.386719 0 256 114.613281 256 256zm0 0"
          fill="#a1e52e"/>
    <path d="m379.304688 439.316406c-14.410157 2.421875-29.207032 3.683594-44.304688 3.683594-146.90625 0-266-119.09375-266-266 0-44.574219 10.980469-86.574219 30.355469-123.476562 18.117187-14.035157 38.167969-25.683594 59.679687-34.5-18.59375 38.730468-29.035156 82.117187-29.035156 127.953124 0 147.589844 108.015625 269.9375 249.304688 292.339844zm0 0"
          fill="#7ecd00"/>
    <path d="m436.878906 306.011719c23.277344 1.386719 46.308594 3.261719 69.046875 5.597656 1.4375-6.492187 2.625-13.078125 3.5625-19.746094-22.523437-2.335937-45.34375-4.214843-68.390625-5.628906 5.914063-30.90625 9.273438-64.488281 9.816406-99.234375h51.667969c-1.894531-6.785156-4.0625-13.453125-6.488281-20h-45.179688c-.460937-29.550781-2.964843-58.257812-7.339843-85.191406-14.042969-15.117188-29.886719-28.527344-47.199219-39.902344-20.324219.722656-40.796875 1.09375-61.375 1.09375-26.722656 0-53.269531-.617188-79.550781-1.832031 3.898437-14.578125 8.449219-28.265625 13.625-40.839844-4.332031-.214844-8.6875-.328125-13.074219-.328125-2.796875 0-5.578125.0625-8.355469.148438-4.75 12.464843-8.957031 25.832031-12.574219 39.953124-33.273437-1.945312-66.070312-4.863281-98.195312-8.742187.820312-1.113281 1.660156-2.210937 2.496094-3.308594-14.210938 7.285157-27.644532 15.871094-40.160156 25.582031-19.734376 37.609376-30.210938 79.683594-30.210938 123.367188 0 71.050781 27.667969 137.851562 77.910156 188.089844 50.238282 50.242187 117.039063 77.910156 188.089844 77.910156 43.683594 0 85.757812-10.476562 123.367188-30.210938 9.710937-12.515624 18.296874-25.949218 25.582031-40.160156-28.609375 21.835938-62.125 37.5625-98.589844 45.179688 12.617187-13.550782 24.0625-32.363282 33.832031-55.964844 6.996094-16.894531 12.917969-35.667969 17.6875-55.832031zm-186.199218-245.042969c27.84375 1.347656 55.988281 2.03125 84.320312 2.03125s56.476562-.683594 84.320312-2.03125c7.007813 32.457031 10.992188 68.488281 11.59375 106.03125h-191.828124c.601562-37.542969 4.585937-73.574219 11.59375-106.03125zm180.234374 126.03125c-.554687 34.511719-3.960937 67.75-9.953124 98.109375-28.371094-1.398437-57.0625-2.109375-85.960938-2.109375s-57.589844.707031-85.960938 2.109375c-5.992187-30.359375-9.398437-63.597656-9.949218-98.109375zm-306.5-137.039062c34.636719 4.417968 70.074219 7.726562 106.0625 9.898437-6.898437 33.042969-10.800781 69.410156-11.390624 107.140625h-129.867188c1.71875-42.6875 14.347656-82.609375 35.195312-117.039062zm-35.195312 137.039062h129.867188c.542968 34.746094 3.902343 68.328125 9.816406 99.234375-36.949219 2.265625-73.300782 5.726563-108.804688 10.359375-18.265625-32.6875-29.285156-69.945312-30.878906-109.59375zm42.429688 128.277344c33.160156-4.125 67.054687-7.214844 101.472656-9.261719 4.769531 20.164063 10.691406 38.933594 17.6875 55.832031 9.769531 23.597656 21.214844 42.414063 33.832031 55.960938-63.292969-13.21875-117.730469-50.835938-152.992187-102.53125zm269.066406 38.917968c-18.105469 43.726563-42.058594 68.804688-65.714844 68.804688s-47.609375-25.078125-65.714844-68.808594c-6.191406-14.957031-11.5-31.507812-15.867187-49.269531 26.9375-1.273437 54.160156-1.921875 81.582031-1.921875 27.417969 0 54.644531.648438 81.582031 1.925781-4.367187 17.757813-9.675781 34.308594-15.867187 49.269531zm0 0"
          fill="#6bae01"/>
    <path d="m463.671875 281.671875c-56.917969 56.917969-145.066406 63.546875-209.277344 19.914063l-30.367187 30.367187c1.023437 9.320313-2.03125 19-9.171875 26.144531l-96.167969 96.167969c-12.496094 12.496094-32.757812 12.496094-45.253906 0-12.5-12.496094-12.5-32.757813 0-45.253906l96.164062-96.167969c7.144532-7.144531 16.828125-10.195312 26.144532-9.171875l28.460937-28.460937c-58.238281-64.78125-56.199219-164.558594 6.125-226.882813 64.4375-64.4375 168.910156-64.4375 233.34375 0 64.4375 64.4375 64.4375 168.910156 0 233.34375zm0 0"
          fill="#012d4e"/>
    <path d="m215.828125 357.078125c-.316406.34375-.640625.683594-.976563 1.019531l-96.164062 96.167969c-9.363281 9.359375-23.078125 11.707031-34.625 7.046875-4.664062-11.546875-2.316406-25.265625 7.046875-34.625l96.164063-96.167969c.335937-.332031.675781-.660156 1.019531-.976562 17.96875-16.472657 44.007812 9.566406 27.535156 27.535156zm263.109375-291.175781c-64.640625-48.675782-156.90625-43.59375-215.769531 15.265625-56.863281 56.867187-63.535157 144.910156-20.027344 209.101562 3.046875 4.5 6.929687 8.382813 11.429687 11.433594 64.195313 43.507813 152.238282 36.835937 209.101563-20.03125 58.863281-58.859375 63.941406-151.125 15.265625-215.769531zm0 0"
          fill="#015081"/>
    <path d="m437.746094 255.746094c-50.117188 50.117187-131.375 50.117187-181.492188 0-50.117187-50.117188-50.117187-131.375 0-181.492188 50.117188-50.117187 131.375-50.117187 181.492188 0 50.117187 50.117188 50.117187 131.375 0 181.492188zm0 0"
          fill="#0995a3"/>
    <path d="m437.746094 255.746094c-50.117188 50.117187-131.375 50.117187-181.492188 0-2.78125-2.78125-5.398437-5.660156-7.867187-8.625-5.398438-44.003906 11.550781-93.578125 49.351562-131.382813 37.804688-37.800781 87.378907-54.75 131.382813-49.351562 2.964844 2.46875 5.84375 5.089843 8.625 7.867187 50.117187 50.117188 50.117187 131.375 0 181.492188zm0 0"
          fill="#2abbc7"/>
    <path d="m393.109375 214.148438c0 8.613281-6.078125 16.03125-14.527344 17.71875l-28.082031 5.617187c-1.972656 8.042969-5.03125 15.660156-9.007812 22.691406l16.128906 22.96875c2.011718 2.863281 3.070312 6.136719 3.242187 9.433594-37.296875 4.027344-76.019531-8.242187-104.609375-36.832031-32.507812-32.507813-43.917968-78.109375-34.261718-119.824219 5.492187-2.828125 11.308593-5.117187 17.386718-6.773437l5.113282-29.230469c1.515624-8.648438 9.023437-14.957031 17.800781-14.957031 8.617187 0 16.03125 6.082031 17.722656 14.527343l5.875 29.390625c7.496094 1.953125 14.597656 4.859375 21.195313 8.5625l24.207031-16.992187c7.183593-5.046875 16.953125-4.195313 23.164062 2.011719 6.089844 6.089843 7.035157 15.636718 2.257813 22.800781l-16.351563 24.523437c4 6.679688 7.140625 13.921875 9.3125 21.574219l28.476563 4.984375c8.648437 1.515625 14.957031 9.023438 14.957031 17.804688zm44.636719-139.894532c-13.988282-13.988281-30.40625-24.066406-47.894532-30.246094-1.640624 3.726563-3.007812 7.605469-4.070312 11.609376l-18.144531 3.628906c-8.445313 1.6875-14.527344 9.105468-14.527344 17.722656 0 8.777344 6.308594 16.285156 14.957031 17.800781l18.070313 3.160157c1.832031 6.496093 4.464843 12.652343 7.785156 18.363281l-10.273437 15.414062c-4.78125 7.164063-3.835938 16.710938 2.257812 22.800781 6.207031 6.210938 15.980469 7.058594 23.164062 2.011719l15.011719-10.539062c5.765625 3.226562 11.964844 5.765625 18.492188 7.496093l3.628906 18.144532c1.691406 8.449218 9.109375 14.527344 17.722656 14.527344 3.730469 0 7.226563-1.144532 10.136719-3.121094 5.441406-38.558594-6.660156-79.117188-36.316406-108.773438zm0 0"
          fill="#f5f0eb"/>
    <path d="m313.109375 215.964844c0 26.128906-20.046875 47.5625-45.59375 49.792968-3.898437-3.082031-7.660156-6.414062-11.261719-10.011718-18.894531-18.898438-30.664062-42.222656-35.308594-66.636719 8.875-13.914063 24.4375-23.144531 42.167969-23.144531 27.613281 0 49.996094 22.382812 49.996094 50zm124.636719-141.710938c-6.503906-6.5-13.53125-12.148437-20.941406-16.964844-2.375 5.824219-3.695313 12.1875-3.695313 18.859376 0 27.617187 22.386719 50 50 50 2.070313 0 4.101563-.136719 6.105469-.382813-6.03125-18.839844-16.519532-36.5625-31.46875-51.511719zm0 0"
          fill="#ade8f0"/>
    <path d="m280.890625 215.960938c0 9.820312-7.960937 17.777343-17.78125 17.777343-9.816406 0-17.777344-7.957031-17.777344-17.777343 0-9.816407 7.960938-17.777344 17.777344-17.777344 9.820313 0 17.78125 7.960937 17.78125 17.777344zm156.855469-141.707032c-1.335938-1.332031-2.695313-2.625-4.074219-3.886718-.363281 1.871093-.5625 3.804687-.5625 5.78125 0 15.871093 12.324219 28.855468 27.921875 29.921874-5.921875-11.457031-13.679688-22.210937-23.285156-31.816406zm0 0"
          fill="#2abbc7"/>
</svg>
