<svg height="512pt" viewBox="0 0 512 512" width="512pt" xmlns="http://www.w3.org/2000/svg">
    <path d="m113.960938 206.5c-59.722657 0-92.207032-69.835938-53.699219-115.484375 46.957031-55.660156 117.214843-91.015625 195.738281-91.015625 124.449219 0 228.140625 88.808594 251.199219 206.5zm0 0"
          fill="#e8ce00"/>
    <path d="m389.746094 144.847656h-99.746094v-50.511718c0-22.09375 17.910156-40 40-40h59.746094zm0 0" fill="#a11259"/>
    <path d="m512 256c0 141.386719-114.613281 256-256 256s-256-114.613281-256-256c0-63.34375 23.019531-121.304688 61.128906-166h81.433594c46.082031 0 83.4375 37.355469 83.4375 83.4375 0-46.082031 37.355469-83.4375 83.4375-83.4375h141.433594c38.109375 44.695312 61.128906 102.65625 61.128906 166zm0 0"
          fill="#d3f1f5"/>
    <path d="m309.4375 90h47.28125c-46.082031 0-83.4375 37.355469-83.4375 83.4375v337.96875c-5.714844.382812-11.472656.59375-17.28125.59375-10.152344 0-20.15625-.609375-30-1.757812v-336.804688c0-46.082031 37.355469-83.4375 83.4375-83.4375zm0 0"
          fill="#ade8f0"/>
    <path d="m190 325v10c0 2.761719-2.238281 5-5 5h-170.882812c-2.273438-6.550781-4.304688-13.21875-6.050782-20h176.933594c2.761719 0 5 2.238281 5 5zm-30 50v-10c0-2.761719-2.238281-5-5-5h-132.976562c3.039062 6.832031 6.371093 13.5 9.980468 20h122.996094c2.761719 0 5-2.238281 5-5zm25-95h-183.871094c.628906 6.746094 1.511719 13.417969 2.652344 20h181.21875c2.761719 0 5-2.238281 5-5v-10c0-2.761719-2.238281-5-5-5zm-25-25v-10c0-2.761719-2.238281-5-5-5h-154.488281c-.324219 5.292969-.511719 10.625-.511719 16 0 1.335938.03125 2.667969.0507812 4h154.9492188c2.761719 0 5-2.238281 5-5zm25-55h-178.839844c-1.46875 6.574219-2.679687 13.246094-3.628906 20h182.46875c2.761719 0 5-2.238281 5-5v-10c0-2.761719-2.238281-5-5-5zm0 200h-140.675781c4.714843 6.917969 9.761719 13.589844 15.113281 20h125.5625c2.761719 0 5-2.238281 5-5v-10c0-2.761719-2.238281-5-5-5zm300-200h-220c-2.761719 0-5 2.238281-5 5v10c0 2.761719 2.238281 5 5 5h220c2.761719 0 5-2.238281 5-5v-10c0-2.761719-2.238281-5-5-5zm0 80h-220c-2.761719 0-5 2.238281-5 5v10c0 2.761719 2.238281 5 5 5h220c2.761719 0 5-2.238281 5-5v-10c0-2.761719-2.238281-5-5-5zm-120 120h-100c-2.761719 0-5 2.238281-5 5v10c0 2.761719 2.238281 5 5 5h100c2.761719 0 5-2.238281 5-5v-10c0-2.761719-2.238281-5-5-5zm-95 50c-5.523438 0-10 4.476562-10 10s4.476562 10 10 10 10-4.476562 10-10-4.476562-10-10-10zm30 0c-5.523438 0-10 4.476562-10 10s4.476562 10 10 10 10-4.476562 10-10-4.476562-10-10-10zm30 0c-5.523438 0-10 4.476562-10 10s4.476562 10 10 10 10-4.476562 10-10-4.476562-10-10-10zm-65-190h190c2.761719 0 5-2.238281 5-5v-10c0-2.761719-2.238281-5-5-5h-190c-2.761719 0-5 2.238281-5 5v10c0 2.761719 2.238281 5 5 5zm220 60h-220c-2.761719 0-5 2.238281-5 5v10c0 2.761719 2.238281 5 5 5h220c2.761719 0 5-2.238281 5-5v-10c0-2.761719-2.238281-5-5-5zm-30 40h-190c-2.761719 0-5 2.238281-5 5v10c0 2.761719 2.238281 5 5 5h190c2.761719 0 5-2.238281 5-5v-10c0-2.761719-2.238281-5-5-5zm0 0"
          fill="#2ed0e1"/>
    <path d="m80 135v10c0 2.761719-2.238281 5-5 5h-52.085938c3.113282-6.835938 6.523438-13.503906 10.207032-20h41.878906c2.761719 0 5 2.238281 5 5zm235-5h-50c-2.761719 0-5 2.238281-5 5v10c0 2.761719 2.238281 5 5 5h50c2.761719 0 5-2.238281 5-5v-10c0-2.761719-2.238281-5-5-5zm0 0"
          fill="#0198b0"/>
    <path d="m472.996094 87.585938v134.089843c0 6.636719-7.398438 10.597657-12.921875 6.914063l-36.953125-24.632813-36.949219 24.632813c-5.523437 3.683594-12.921875-.277344-12.921875-6.914063v-134.089843c0-18.363282-14.886719-33.25-33.25-33.25h99.746094c18.363281 0 33.25 14.882812 33.25 33.25zm0 0"
          fill="#fd3d96"/>
    <path d="m400.402344 219.101562-14.230469 9.488282c-5.523437 3.683594-12.921875-.277344-12.921875-6.914063v-134.09375c0-18.363281-14.886719-33.246093-33.25-33.246093h27.152344c18.363281 0 33.25 14.882812 33.25 33.246093zm0 0"
          fill="#e31e7f"/>
</svg>
