<svg height="512pt" viewBox="0 0 512.00004 512" width="512pt" xmlns="http://www.w3.org/2000/svg">
    <path d="m511.972656 252.125c2.089844 141.039062-111.417968 257.960938-252.460937 259.851562-58.761719.789063-113.050781-18.230468-156.625-50.796874-.265625-.199219-.488281-.449219-.667969-.730469-16.660156-26.5-38.03125-49.738281-62.957031-68.519531-.265625-.199219-.488281-.445313-.664063-.722657-24.890625-39.941406-39.101562-87.226562-38.5859372-137.875 1.4375002-140.769531 115.2109372-253.332031 255.9882812-253.332031 140.09375 0 253.902344 112.527344 255.972656 252.125zm0 0"
          fill="#015081"/>
    <path d="m422.664062 338h-61.171874c-7.277344 0-13.429688 5.183594-14.902344 12.308594-8.460938 40.925781-44.699219 71.691406-88.128906 71.691406h-65.09375c-5.058594 0-9.777344 2.527344-12.597657 6.730469-13.457031 20.0625-36.335937 33.269531-62.308593 33.269531h-5c-3.554688 0-7.046876-.265625-10.472657-.742188-25.585937-19.105468-47.46875-42.894531-64.40625-70.078124-.078125-1.382813-.121093-2.777344-.121093-4.179688 0-1.855469 0-55 0-55h.089843c.015625-.496094.039063-.988281.058594-1.484375-12.140625-8.0625-20.148437-21.847656-20.148437-37.515625 0-20.054688 13.121093-37.035156 31.25-42.847656 2.667968-.855469 4.007812-3.824219 2.964843-6.425782-2.074219-5.171874-3.214843-10.816406-3.214843-16.726562 0-24.851562 20.144531-45 45-45h.050781c2.734375.003906 4.949219-2.214844 4.949219-4.945312v-.054688c0-24.851562 20.144531-45 45-45 7.035156 0 13.691406 1.621094 19.625 4.503906 2.332031 1.132813 5.097656.261719 6.394531-1.984375 7.777343-13.457031 22.316406-22.519531 38.980469-22.519531 12.332031 0 23.503906 4.96875 31.628906 13.003906 1.855468 1.835938 4.882812 1.835938 6.738281 0 8.125-8.035156 19.296875-13.003906 31.632813-13.003906 16.660156 0 31.199218 9.0625 38.976562 22.519531 1.296875 2.246094 4.0625 3.117188 6.398438 1.984375 5.929687-2.882812 12.585937-4.503906 19.625-4.503906 24.851562 0 45 20.148438 45 45v.054688c-.003907 2.730468 2.210937 4.949218 4.945312 4.945312h.054688c24.851562 0 45 20.148438 45 45 0 6.144531-1.238282 11.992188-3.46875 17.328125-1.058594 2.527344.222656 5.433594 2.800781 6.367187 17.207031 6.234376 29.53125 22.660157 29.664062 41.988282.171875 24.925781-20.867187 45.316406-45.792969 45.316406zm0 0"
          fill="#fd5ca6"/>
    <path d="m460.875 318c-8.070312 12.058594-21.8125 20-37.414062 20-.785157 0-32.992188 0-55 0-30.328126 0-55-24.671875-55-55 0-5.523438 4.476562-10 10-10 5.523437 0 10 4.476562 10 10 0 19.300781 15.699218 35 35 35h52.472656c-2.855469-16.449219-17.222656-29-34.472656-29-5.523438 0-10-4.476562-10-10s4.476562-10 10-10c28.296874 0 51.664062 21.484375 54.664062 49zm-156.242188 21.667969c-8.71875.050781-16.953124 2.152343-24.269531 5.828125-6.550781-23.054688-27.777343-39.996094-52.902343-39.996094-5.523438 0-10 4.476562-10 10 0 .085938.007812.167969.011718.25-.003906.085938-.011718.167969-.011718.25 0 17.996094-13.65625 32.859375-31.148438 34.78125-9.15625-17.671875-27.613281-29.78125-48.851562-29.78125h-7.605469c7.753906-9.375 12.460937-21.351562 12.601562-34.40625.058594-5.472656-3.984375-10.285156-9.449219-10.578125-5.769531-.308594-10.546874 4.28125-10.546874 9.984375 0 19.300781-15.703126 35-35 35h-18.207032c-1.300781 0-2.519531-.632812-3.285156-1.6875-5.347656-7.398438-8.507812-16.484375-8.507812-26.3125 0-18.886719 11.640624-35.039062 28.132812-41.710938.484375-.195312 1-.289062 1.519531-.289062h75.347657c19.230468 0 34.890624 15.59375 35 34.800781.023437 4.542969 2.878906 8.675781 7.269531 9.839844 6.699219 1.769531 12.730469-3.230469 12.730469-9.640625 0-30.328125-24.671876-55-55-55h-3.539063c4.316406-14.441406 17.714844-25 33.539063-25h79.65625c5.328124 0 9.976562-4.019531 10.320312-9.332031.378906-5.824219-4.234375-10.667969-9.976562-10.667969h-25.929688c-4.683594-25.382812-26.839844-44.722656-53.492188-44.996094-5.472656-.058594-10.292968 4.019532-10.566406 9.484375-.285156 5.757813 4.296875 10.511719 9.988282 10.511719 15.824218 0 29.222656 10.558594 33.535156 25h-33.535156c-26.914063 0-49.355469 19.433594-54.074219 45h-45.902344c-2.195313 0-4.023437-1.761719-4.023437-3.960938 0-.011718 0-.027343 0-.039062 0-24.851562 20.144531-45 45-45h.058593c2.730469 0 4.941407-2.214844 4.941407-4.945312v-.054688c0-17.859375 10.40625-33.289062 25.484374-40.558594-5.898437-2.84375-12.503906-4.441406-19.484374-4.441406-24.855469 0-45 20.148438-45 45v.054688c0 2.730468-2.210938 4.945312-4.941407 4.945312h-.058593c-24.855469 0-45 20.148438-45 45 0 5.910156 1.140624 11.554688 3.214843 16.722656 1.042969 2.601563-.296875 5.574219-2.964843 6.429688-18.128907 5.808594-31.25 22.792968-31.25 42.847656 0 15.664062 8.007812 29.453125 20.148437 37.511719-.019531.496093-.042969.992187-.058594 1.488281h-.089843v55c0 1.402344.042968 2.796875.121093 4.179688 16.9375 27.183593 38.820313 50.96875 64.40625 70.078124 3.425781.476563 6.917969.742188 10.472657.742188h5c5.855468 0 11.550781-.683594 17.023437-1.953125-16.558594-3.835937-31.011719-13.148437-41.355469-25.929687-1.753906-2.167969-.792968-5.390626 1.832032-6.332032 21.09375-7.554687 36.273437-27.648437 36.496093-51.253906.050781-5.457031-4.039062-10.25-9.488281-10.519531-5.753906-.285157-10.507812 4.296875-10.507812 9.988281 0 16.710938-11.773438 30.71875-27.460938 34.175781-2.0625.453125-4.152344-.777343-4.726562-2.8125-1.828126-6.476562-2.8125-13.304687-2.8125-20.363281 0-1.375 0-30.761719 0-46h60c19.230468 0 34.890624 15.589844 34.996093 34.796875.027344 4.542969 2.882813 8.679687 7.273438 9.839844 6.699219 1.773437 12.730469-3.226563 12.730469-9.636719 0-1.980469-.113282-3.933594-.316407-5.855469 22.25-3.972656 39.902344-21.367187 44.269531-43.480469 14.761719 3.910157 25.722657 17.246094 26.03125 33.148438-7.796874 9.496094-12.484374 21.636719-12.484374 34.851562v27.335938h8.5c3.894531 0 7.730468-.257812 11.5-.738281v-26.59375c0-19.300781 15.699218-35 35-35 5.691406 0 10.273437-4.757813 9.984374-10.511719-.265624-5.367188-4.9375-9.519531-10.3125-9.488281zm66.828126-121.167969c5.523437 0 10-4.476562 10-10 0-10.621094 4.761718-20.144531 12.253906-26.570312-2.402344-.335938-4.257813-2.378907-4.253906-4.875v-.054688c0-5.210938-.898438-10.210938-2.527344-14.867188-15.300782 9.777344-25.472656 26.902344-25.472656 46.367188 0 5.523438 4.476562 10 10 10zm-109 27.5c0 5.523438 4.476562 10 10 10 17.535156 0 33.164062-8.257812 43.246093-21.078125 9.707031 15.636719 27.03125 26.078125 46.753907 26.078125 5.519531 0 10-4.476562 10-10s-4.480469-10-10-10c-19.300782 0-35-15.699219-35-35 0-.507812-.050782-1.003906-.125-1.492188.074218-1.164062.125-2.328124.125-3.507812v-65.660156c-.890626.363281-1.765626.746094-2.625 1.164062-2.335938 1.132813-5.101563.261719-6.398438-1.984375-2.832031-4.90625-6.574219-9.214843-10.976562-12.726562v79.207031c0 19.300781-15.703126 35-35 35-5.523438 0-10 4.476562-10 10zm0 0"
          fill="#fd3d96"/>
    <path d="m485 95v26.472656c0 33.136719-26.863281 60-60 60h-109.964844c-7.902344 19.519532-27.027344 33.292969-49.375 33.292969-3.679687 0-6.660156-2.984375-6.660156-6.660156v-113.105469c0-33.136719 26.863281-60 60-60h106c33.136719 0 60 26.863281 60 60zm0 0"
          fill="#d3f1f5"/>
    <path d="m286.464844 210.535156c-6.390625 2.71875-13.421875 4.226563-20.804688 4.226563-3.679687 0-6.660156-2.980469-6.660156-6.65625v-113.105469c0-33.136719 26.863281-60 60-60h27c-33.136719 0-60 26.863281-60 60v113.105469c0 .859375.167969 1.675781.464844 2.429687zm0 0"
          fill="#ade8f0"/>
    <path d="m310 75v-10c0-2.761719 2.238281-5 5-5h50c2.761719 0 5 2.238281 5 5v10c0 2.761719-2.238281 5-5 5h-50c-2.761719 0-5-2.238281-5-5zm10 65c-5.523438 0-10 4.476562-10 10s4.476562 10 10 10 10-4.476562 10-10-4.476562-10-10-10zm30 0c-5.523438 0-10 4.476562-10 10s4.476562 10 10 10 10-4.476562 10-10-4.476562-10-10-10zm45-40h-80c-2.761719 0-5 2.238281-5 5v10c0 2.761719 2.238281 5 5 5h80c2.761719 0 5-2.238281 5-5v-10c0-2.761719-2.238281-5-5-5zm-15 40c-5.523438 0-10 4.476562-10 10s4.476562 10 10 10 10-4.476562 10-10-4.476562-10-10-10zm0 0"
          fill="#2abbc7"/>
    <path d="m493.714844 60v20c0 2.761719-2.238282 5-5 5h-30v30c0 2.761719-2.238282 5-5 5h-20c-2.761719 0-5-2.238281-5-5v-30h-30c-2.761719 0-5-2.238281-5-5v-20c0-2.761719 2.238281-5 5-5h30v-30c0-2.761719 2.238281-5 5-5h20c2.761718 0 5 2.238281 5 5v30h30c2.761718 0 5 2.238281 5 5zm0 0"
          fill="#fd3d96"/>
    <path d="m458.714844 104v11c0 2.761719-2.238282 5-5 5h-20c-2.761719 0-5-2.238281-5-5v-30h-30c-2.761719 0-5-2.238281-5-5v-20c0-2.761719 2.238281-5 5-5h11v9c0 2.761719 2.238281 5 5 5h25c2.761718 0 5 2.238281 5 5v25c0 2.761719 2.238281 5 5 5zm0 0"
          fill="#e31e7f"/>
</svg>
