<svg height="512pt" viewBox="0 0 512 512.00032" width="512pt" xmlns="http://www.w3.org/2000/svg">
    <path d="m72.375 415.648438c-4.804688 4.945312-12.84375 4.605468-17.125-.800782-34.585938-43.648437-55.25-98.832031-55.25-158.847656 0-141.246094 114.394531-255.777344 255.589844-256 140.910156-.21875 256.125 114.566406 256.410156 255.476562.121094 60.3125-20.625 115.769532-55.414062 159.578126-4.207032 5.300781-12.128907 5.574218-16.84375.714843-46.523438-47.957031-111.648438-77.769531-183.742188-77.769531-72.035156 0-137.109375 29.761719-183.625 77.648438zm0 0"
          fill="#e31e7f"/>
    <path d="m457 200v214.546875c-46.882812 59.355469-119.488281 97.453125-201 97.453125s-154.117188-38.097656-201-97.453125v-214.546875c0-5.523438 4.476562-10 10-10h6c22.089844 0 40-17.910156 40-40v-110c0-5.523438 4.476562-10 10-10h58.484375c3.371094 0 6.515625 1.699219 8.363281 4.515625l64.96875 99.105469c1.976563 3.011718 6.390625 3.011718 8.363282 0l64.972656-99.105469c1.847656-2.816406 4.992187-4.515625 8.363281-4.515625h56.484375c5.523438 0 10 4.476562 10 10v110c0 22.089844 17.910156 40 40 40h6c5.523438 0 10 4.476562 10 10zm0 0"
          fill="#e8ce00"/>
    <path d="m81.414062 255c-3.542968 0-6.414062 2.871094-6.414062 6.414062v2.175782c0 3.539062 2.871094 6.410156 6.414062 6.410156h375.585938v110h-375.585938c-3.542968 0-6.414062 2.871094-6.414062 6.414062v2.175782c0 3.539062 2.871094 6.410156 6.414062 6.410156h375.585938v19.546875c-2.816406 3.5625-5.730469 7.046875-8.726562 10.453125h-366.859376c-3.542968 0-6.414062 2.871094-6.414062 6.414062v5.589844c-7.089844-7.089844-13.777344-14.578125-20-22.457031v-214.546875c0-5.523438 4.476562-10 10-10h6c22.089844 0 40-17.910156 40-40v-110c0-5.523438 4.476562-10 10-10h10.691406c-.402344 4.558594-.65625 8.222656-.691406 10.066406v109.933594c0 29.007812-20.695312 53.277344-48.097656 58.8125-4.621094.9375-7.902344 5.0625-7.902344 9.777344 0 3.539062 2.871094 6.410156 6.414062 6.410156h375.585938v30zm0 0"
          fill="#d6bf01"/>
    <path d="m184.386719 322.191406c.808593 1.027344.828125 2.46875.050781 3.519532l-25.101562 33.980468c-1.160157 1.570313-3.511719 1.570313-4.671876 0l-25.101562-33.980468c-.777344-1.050782-.753906-2.492188.050781-3.519532l25.101563-31.949218c1.164062-1.480469 3.40625-1.480469 4.570312 0zm40.898437-31.949218c-1.164062-1.480469-3.40625-1.480469-4.570312 0l-25.101563 31.949218c-.808593 1.027344-.828125 2.46875-.050781 3.519532l25.101562 33.980468c1.160157 1.570313 3.511719 1.570313 4.671876 0l25.101562-33.980468c.777344-1.050782.753906-2.492188-.050781-3.519532zm-132 0c-1.164062-1.480469-3.40625-1.480469-4.570312 0l-25.101563 31.949218c-.808593 1.027344-.828125 2.46875-.050781 3.519532l25.101562 33.980468c1.160157 1.570313 3.511719 1.570313 4.671876 0l25.101562-33.980468c.777344-1.050782.753906-2.492188-.050781-3.519532zm355.101563 31.949218-25.101563-31.949218c-1.164062-1.480469-3.40625-1.480469-4.570312 0l-25.101563 31.949218c-.808593 1.027344-.828125 2.46875-.050781 3.519532l25.101562 33.980468c1.160157 1.570313 3.511719 1.570313 4.671876 0l25.101562-33.980468c.777344-1.050782.757812-2.492188-.050781-3.519532zm-91.101563-31.949218c-1.164062-1.480469-3.40625-1.480469-4.570312 0l-25.101563 31.949218c-.808593 1.027344-.828125 2.46875-.050781 3.519532l25.101562 33.980468c1.160157 1.570313 3.511719 1.570313 4.671876 0l25.101562-33.980468c.777344-1.050782.757812-2.492188-.050781-3.519532zm-66 0c-1.164062-1.480469-3.40625-1.480469-4.570312 0l-25.101563 31.949218c-.808593 1.027344-.828125 2.46875-.050781 3.519532l25.101562 33.980468c1.160157 1.570313 3.511719 1.570313 4.671876 0l25.101562-33.980468c.777344-1.050782.757812-2.492188-.050781-3.519532zm0 0"
          fill="#fded32"/>
    <path d="m261.183594 133.621094 64.96875-99.101563c1.847656-2.820312 4.992187-4.519531 8.363281-4.519531h32.933594l-103.085938 157.242188c-3.949219 6.023437-12.777343 6.023437-16.726562 0l-103.085938-157.242188h34.933594c3.371094 0 6.515625 1.699219 8.363281 4.515625l64.96875 99.105469c1.976563 3.011718 6.390625 3.011718 8.367188 0zm0 0"
          fill="#fff5f5"/>
</svg>
